<?xml version="1.0" encoding="UTF-8"?>
<svg width="1200pt" height="1200pt" version="1.1" viewBox="0 0 1200 1200" xmlns="http://www.w3.org/2000/svg">
 <path d="m380.44 494.16h102.52c6.6094 0 12-5.3438 12-12v-49.688c0-34.875-28.359-63.281-63.281-63.281-34.875 0-63.281 28.406-63.281 63.281v49.688c0.046875 6.6094 5.3906 12 12.047 12zm12-61.734c0-21.656 17.625-39.281 39.281-39.281s39.281 17.625 39.281 39.281v37.688h-78.516z"/>
 <path d="m548.72 494.16h102.52c6.6094 0 12-5.3438 12-12v-49.688c0-34.875-28.359-63.281-63.281-63.281-34.875 0-63.281 28.406-63.281 63.281v49.688c0.046875 6.6094 5.4375 12 12.047 12zm12-61.734c0-21.656 17.625-39.281 39.281-39.281s39.281 17.625 39.281 39.281v37.688h-78.516z"/>
 <path d="m717.05 494.16h102.52c6.6094 0 12-5.3438 12-12v-49.688c0-34.875-28.359-63.281-63.281-63.281-34.875 0-63.281 28.406-63.281 63.281v49.688c0.046875 6.6094 5.4375 12 12.047 12zm12-61.734c0-21.656 17.625-39.281 39.281-39.281s39.281 17.625 39.281 39.281v37.688h-78.516z"/>
 <path d="m380.44 680.48h102.52c6.6094 0 12-5.3438 12-12v-100.97c0-6.6562-5.3906-12-12-12h-102.52c-6.6094 0-12 5.3438-12 12v100.97c0 6.6094 5.3438 12 12 12zm12-100.97h78.516v76.969h-78.516z"/>
 <path d="m548.72 680.48h102.52c6.6094 0 12-5.3438 12-12v-100.97c0-6.6562-5.3906-12-12-12h-102.52c-6.6094 0-12 5.3438-12 12v100.97c0 6.6094 5.3906 12 12 12zm12-100.97h78.516v76.969h-78.516z"/>
 <path d="m717.05 680.48h102.52c6.6094 0 12-5.3438 12-12v-100.97c0-6.6562-5.3906-12-12-12h-102.52c-6.6094 0-12 5.3438-12 12v100.97c0 6.6094 5.3906 12 12 12zm12-100.97h78.516v76.969h-78.516z"/>
 <path d="m380.44 902.81h102.52c6.6094 0 12-5.3438 12-12v-136.97c0-6.6562-5.3906-12-12-12h-102.52c-6.6094 0-12 5.3438-12 12v136.97c0 6.6562 5.3438 12 12 12zm12-136.97h78.516v112.97h-78.516z"/>
 <path d="m717.05 902.81h102.52c6.6094 0 12-5.3438 12-12v-136.97c0-6.6562-5.3906-12-12-12h-102.52c-6.6094 0-12 5.3438-12 12v136.97c0 6.6562 5.3906 12 12 12zm12-136.97h78.516v112.97h-78.516z"/>
 <path d="m1080 765.84c0-52.969-43.078-96.094-96.047-96.094-31.594 0-59.531 15.375-77.062 38.953l-0.046875-384.71h20.578c6.6094 0 12-5.3438 12-12v-108c0-6.6562-5.3906-12-12-12h-416.02v-60c0-6.6562-5.3906-12-12-12h-153.14c-6.6094 0-12 5.3438-12 12v60h-61.734c-6.6094 0-12 5.3438-12 12v108c0 6.6562 5.3906 12 12 12h20.578v384.74c-17.531-23.578-45.516-38.953-77.062-38.953-52.969-0.046875-96.047 43.078-96.047 96.047 0 48.891 36.75 89.297 84.047 95.25v86.906h-72.047c-6.6094 0-12 5.3438-12 12v108c0 6.6562 5.3906 12 12 12h936c6.6094 0 12-5.3438 12-12v-108c0-6.6562-5.3906-12-12-12h-72.047v-86.953c47.297-5.9062 84.047-46.312 84.047-95.203zm-96.047-72.094c39.703 0 72.047 32.344 72.047 72.094s-32.344 72.094-72.047 72.094c-39.75 0-72.094-32.344-72.094-72.094s32.344-72.094 72.094-72.094zm-625.69-549.74h129.14v48h-129.14zm-73.734 72h630.89v84h-630.89zm598.31 108v624h-219.61v-194.16c0-6.6562-5.3906-12-12-12h-102.52c-6.6094 0-12 5.3438-12 12v194.16h-219.61l0.046875-624zm-243.56 624h-78.516l-0.046874-182.16h78.516zm-495.28-182.16c0-39.75 32.344-72.094 72.047-72.094 39.75 0 72.094 32.344 72.094 72.094s-32.344 72.094-72.094 72.094c-39.703-0.046875-72.047-32.344-72.047-72.094zm84.047 95.203c26.625-3.3281 49.828-17.578 65.062-38.156l0.046875 125.11h-65.062zm827.95 194.95h-912v-84h912zm-149.16-108v-125.06c15.281 20.531 38.484 34.781 65.062 38.156l0.046874 86.906z"/>
</svg>
