<?xml version="1.0" encoding="UTF-8"?>
<svg width="1200pt" height="1200pt" version="1.1" viewBox="0 0 1200 1200" xmlns="http://www.w3.org/2000/svg">
 <path d="m1161.9 702.14c-0.98438 14.344-2.2969 28.031-3.9375 41.062-15.281 122.26-59.109 207.56-126.28 260.72-67.172 53.156-157.08 73.594-264.56 66.188-11.859-0.84375-23.812-1.9688-35.766-3.4219-114.47-3.2812-205.82-36.891-267.32-106.31-57.703-65.156-88.453-161.26-86.531-292.74-0.046874-0.65625 0-1.2656 0.09375-1.9219 0.84375-6.2812 6.6094-10.641 12.844-9.7969 103.88 14.25 187.4 38.484 250.78 76.734 56.297 33.984 96.656 78.891 121.13 137.34 18.375-34.547 42.422-63.516 72.281-87.422 71.812-57.609 176.53-85.453 315.28-92.672 6.3281-0.32812 11.672 4.5469 12 10.828 0.046875 0.51562 0.046875 0.9375 0 1.4062zm-435.05 273.94c-23.484-36.375-52.219-67.125-86.297-92.25-35.344-26.016-76.406-46.031-123.28-60.047-6.0469-1.8281-9.5156-8.2031-7.7344-14.25 1.8281-6.0469 8.2031-9.5156 14.25-7.6875 49.406 14.766 92.812 35.906 130.26 63.516 30.469 22.453 56.953 49.172 79.453 80.062 4.2188-16.359 9.3281-31.828 15.234-46.453-21.328-63.703-61.078-111.47-119.44-146.72-57.984-35.016-134.34-57.844-229.13-71.859 0.23438 119.02 28.781 206.02 80.906 264.84 54.656 61.734 135.84 92.953 237.79 98.062 1.5-23.766 4.125-46.125 7.9688-67.219zm19.219 24.75c24.328-39.141 53.625-72.234 87.797-99.281 47.625-37.734 104.62-63.516 170.95-77.391 6.1875-1.2656 12.234 2.6719 13.547 8.8594 1.2656 6.1875-2.6719 12.234-8.8594 13.547-62.859 13.125-116.67 37.453-161.44 72.938-40.969 32.484-74.578 74.438-100.78 125.95 7.3125 0.75 14.438 1.3594 21.469 1.8281 101.91 7.0312 186.47-11.906 248.86-61.266 62.391-49.359 103.22-129.71 117.66-245.58 1.0781-8.8594 2.0625-17.812 2.8594-26.906-127.45 7.9688-223.55 34.359-289.08 86.906-56.391 45.188-90.516 110.25-102.98 200.39zm-250.5-673.26h-68.203v68.203h68.203zm-79.688-22.922h91.172c6.3281 0 11.484 5.1562 11.484 11.484v91.172c0 6.3281-5.1562 11.484-11.484 11.484h-91.172c-6.3281 0-11.484-5.1562-11.484-11.484v-91.172c0-6.375 5.1562-11.484 11.484-11.484zm241.03 22.922h-68.203v68.203h68.203zm-79.688-22.922h91.172c6.3281 0 11.484 5.1562 11.484 11.484v91.172c0 6.3281-5.1562 11.484-11.484 11.484h-91.172c-6.3281 0-11.484-5.1562-11.484-11.484v-91.172c0-6.375 5.1562-11.484 11.484-11.484zm-516.28 424.74h169.82c6.3281 0 11.484 5.1562 11.484 11.484v62.344c0 6.3281-5.1562 11.484-11.484 11.484l-169.82-0.046875v150.66h257.86v-602.48l-58.641 16.078c-0.65625 0.23438-1.3594 0.42188-2.0625 0.5625l-197.16 54.141v57.703h169.82c6.3281 0 11.484 5.1562 11.484 11.484v62.344c0 6.3281-5.1562 11.484-11.484 11.484l-169.82-0.046875v33.797h169.82c6.3281 0 11.484 5.1562 11.484 11.484v62.344c0 6.3281-5.1562 11.484-11.484 11.484l-169.82-0.046875zm158.34 22.922v39.375l-158.34 0.046875v-39.375zm0-119.06v39.375l-158.34 0.046875v-39.422zm0-119.02v39.375h-158.34v-39.375zm-12.516-254.29v-108.61l-33.797 0.046875v108.61zm-56.766 0h-26.391c-6.3281 0-11.484 5.1562-11.484 11.484v124.45l-65.672 18c-5.1094 1.4062-8.4375 6-8.4375 11.016h-0.046875v551.95c0 6.3281 5.1562 11.484 11.484 11.484h401.44c6.3281 0 11.484-5.1562 11.484-11.484s-5.1562-11.484-11.484-11.484h-109.17v-771.32h400.74v617.68l0.32812 1.9688 0.5625 1.6875 0.09375 0.23437 1.2656 2.1094 0.75 0.9375 0.9375 0.9375 0.46875 0.375 2.3438 1.4062 0.23438 0.09375 1.6875 0.5625c0.09375 0.046874 0.1875 0.046874 0.28125 0.046874l0.28125 0.046876c0.09375 0 0.1875 0.046874 0.28125 0.046874l1.125 0.1875h1.6875l1.9688-0.32812 1.6875-0.5625 0.23438-0.09375 2.3438-1.4062 0.70312-0.5625 0.5625-0.5625 0.75-0.9375 1.2656-2.1094 0.1875-0.46875 0.5625-1.6875 0.32812-1.9688v-0.84375l0.046875-492.56h216.52v371.11c0 6.3281 5.1562 11.484 11.484 11.484s11.484-5.1562 11.484-11.484v-382.6c0-6.3281-5.1562-11.484-11.484-11.484h-228v-112.73c0-6.3281-5.1562-11.484-11.484-11.484l-423.66 0.046876c-6.3281 0-11.484 5.1562-11.484 11.484v156.52l-51.234 14.062v-81.797c0-6.3281-5.1562-11.484-11.484-11.484h-26.391v-120.05c0-6.3281-5.1562-11.484-11.484-11.484h-56.766c-6.3281 0-11.484 5.1562-11.484 11.484zm94.641 99.562-109.55 30.047v-106.69h109.55zm655.12 3.5625c0-6.3281 5.1562-11.484 11.484-11.484 6.3281 0 11.484 5.1562 11.484 11.484v279.14c0 6.3281-5.1562 11.484-11.484 11.484-6.3281 0-11.484-5.1562-11.484-11.484zm-75.094 0c0-6.3281 5.1562-11.484 11.484-11.484 6.3281 0 11.484 5.1562 11.484 11.484v279.14c0 6.3281-5.1562 11.484-11.484 11.484-6.3281 0-11.484-5.1562-11.484-11.484zm-329.11 136.97v68.203h-68.203v-68.203zm-79.688-22.969h91.172c6.3281 0 11.484 5.1562 11.484 11.484v91.125c0 6.3281-5.1562 11.484-11.484 11.484h-91.172c-6.3281 0-11.484-5.1562-11.484-11.484v-91.125c0-6.3281 5.1562-11.484 11.484-11.484zm241.03 22.969v68.203h-68.203v-68.203zm-79.688-22.969h91.172c6.3281 0 11.484 5.1562 11.484 11.484v91.125c0 6.3281-5.1562 11.484-11.484 11.484h-91.172c-6.3281 0-11.484-5.1562-11.484-11.484v-91.125c0-6.3281 5.1562-11.484 11.484-11.484z" fill-rule="evenodd"/>
</svg>
