<?xml version="1.0" encoding="UTF-8"?>
<svg width="1200pt" height="1200pt" version="1.1" viewBox="0 0 1200 1200" xmlns="http://www.w3.org/2000/svg">
 <path d="m611.76 1005.7-26.531-27.328c-129.14-133.22-156.05-296.48-68.672-416.81 38.672-52.969 56.297-118.5 49.406-183.74l-16.641-171.61 44.391 48.469c117.33 128.21 141.84 281.53 63.609 397.6l-14.062 20.906c-33.938 50.156-49.594 110.48-44.344 170.76z"/>
 <path d="m920.58 986.58-21-21.656c-102.19-105.38-123.47-234.56-54.375-329.81h0.046875c30.609-41.953 44.578-93.75 39.094-145.4l-13.125-135.79 35.109 38.391c92.859 101.44 112.27 222.79 50.344 314.63l-11.156 16.547c-26.859 39.656-39.234 87.375-35.062 135.14z"/>
 <path d="m307.22 986.58-20.953-21.656c-102.19-105.38-123.47-234.56-54.375-329.81 30.656-41.953 44.578-93.75 39.141-145.4l-13.172-135.79 35.109 38.391c92.859 101.44 112.27 222.79 50.344 314.63l-11.156 16.547c-26.812 39.656-39.234 87.375-35.062 135.1z"/>
</svg>
