<svg height='100px' width='100px'  fill="#000000" xmlns="http://www.w3.org/2000/svg" xmlns:xlink="http://www.w3.org/1999/xlink" version="1.1" x="0px" y="0px" viewBox="0 0 100 100" style="enable-background:new 0 0 100 100;" xml:space="preserve"><path d="M63.8,55.5H19c-3,0-5.5-2.5-5.5-5.5v0c0-3,2.5-5.5,5.5-5.5h44.9c3,0,5.5,2.5,5.5,5.5v0C69.3,53,66.9,55.5,63.8,55.5z"></path><path d="M44.4,86.9H19c-3,0-5.5-2.5-5.5-5.5v0c0-3,2.5-5.5,5.5-5.5h25.4c3,0,5.5,2.5,5.5,5.5v0C49.9,84.5,47.4,86.9,44.4,86.9z"></path><path d="M81.3,24H19c-3,0-5.5-2.5-5.5-5.5v0c0-3,2.5-5.5,5.5-5.5h62.4c3,0,5.5,2.5,5.5,5.5v0C86.8,21.5,84.4,24,81.3,24z"></path></svg>