<svg xmlns="http://www.w3.org/2000/svg" xmlns:xlink="http://www.w3.org/1999/xlink" version="1.1" x="0px" y="0px" viewBox="0 0 64 64" enable-background="new 0 0 64 64" xml:space="preserve"><g><g><path d="M30.25,25.75c0-3.998-3.252-7.25-7.25-7.25s-7.25,3.252-7.25,7.25c0,1.61,0.52,3.134,1.482,4.389    c-1.728,1.599-2.732,3.859-2.732,6.236c0,4.348,3.283,7.939,7.5,8.436V49.5c0,0.552,0.448,1,1,1s1-0.448,1-1v-4.689    c4.217-0.497,7.5-4.088,7.5-8.436c0-2.376-1.005-4.637-2.732-6.236C29.73,28.884,30.25,27.36,30.25,25.75z M29.5,36.375    c0,3.584-2.916,6.5-6.5,6.5s-6.5-2.916-6.5-6.5c0-2.101,1.029-4.084,2.752-5.304c0.244-0.172,0.397-0.444,0.419-0.741    c0.022-0.297-0.089-0.589-0.304-0.796c-1.043-1.002-1.617-2.346-1.617-3.784c0-2.895,2.355-5.25,5.25-5.25s5.25,2.355,5.25,5.25    c0,1.438-0.574,2.782-1.617,3.784c-0.215,0.207-0.327,0.499-0.304,0.796c0.022,0.297,0.176,0.569,0.419,0.741    C28.471,32.291,29.5,34.274,29.5,36.375z"></path><path d="M25.765,27.144c0.355-0.422,0.301-1.053-0.121-1.409c-0.422-0.355-1.053-0.301-1.409,0.121l-1.298,1.542l-1.105-1.105    c-0.391-0.391-1.023-0.391-1.414,0s-0.391,1.023,0,1.414L22,29.289v4.586V34.5v1.336l-1.418-1.418    c-0.391-0.391-1.023-0.391-1.414,0s-0.391,1.023,0,1.414L22,38.664v1.461c0,0.552,0.448,1,1,1s1-0.448,1-1V34.5v-0.26l1.765-2.096    c0.355-0.422,0.301-1.053-0.121-1.409c-0.422-0.355-1.053-0.301-1.409,0.121L24,31.135V29.24L25.765,27.144z"></path><path d="M36,19.5h-2c-0.553,0-1,0.448-1,1s0.447,1,1,1h2c0.553,0,1-0.448,1-1S36.552,19.5,36,19.5z"></path><path d="M36,23.5h-2c-0.553,0-1,0.448-1,1s0.447,1,1,1h2c0.553,0,1-0.448,1-1S36.552,23.5,36,23.5z"></path><path d="M17,48.5h-7c-0.552,0-1,0.448-1,1s0.448,1,1,1h7c0.552,0,1-0.448,1-1S17.552,48.5,17,48.5z"></path><path d="M10,46.5h4c0.552,0,1-0.448,1-1s-0.448-1-1-1h-4c-0.552,0-1,0.448-1,1S9.448,46.5,10,46.5z"></path><path d="M10,42.5h2c0.552,0,1-0.448,1-1s-0.448-1-1-1h-2c-0.552,0-1,0.448-1,1S9.448,42.5,10,42.5z"></path><path d="M51.586,30.256c-1.12-3.472-3.635-6.398-6.897-8.03L42,20.882v-8.319V12.5v-2.063C42,8.266,40.233,6.5,38.062,6.5H5    c-0.552,0-1,0.448-1,1v8v39c0,0.552,0.448,1,1,1h33c2.206,0,4-1.794,4-4v-1.567c2.818,2.949,6.183,7.146,6.219,7.191    c0.198,0.247,0.488,0.375,0.782,0.375c0.219,0,0.439-0.072,0.624-0.219c0.431-0.345,0.501-0.974,0.156-1.405    c-0.165-0.206-4.069-5.078-7.074-8.083C40,45.086,40,41.452,40,39.5c0-1.279-1.184-4.39-3.519-9.246    c-0.114-0.237-0.037-0.515,0.183-0.662l0.621-0.414c0.115-0.078,0.256-0.106,0.395-0.078c0.138,0.028,0.256,0.107,0.334,0.224    l5.154,7.731c0.306,0.459,0.925,0.584,1.387,0.277c0.46-0.306,0.584-0.927,0.277-1.387l-2.863-4.293    C41.977,31.6,42,31.554,42,31.5v-8.382l1.794,0.897c2.786,1.393,4.932,3.892,5.888,6.855l8.366,25.937    C58.184,57.23,58.577,57.5,59,57.5c0.102,0,0.205-0.016,0.307-0.049c0.526-0.169,0.814-0.733,0.646-1.259L51.586,30.256z M6,8.5    h32.063C39.131,8.5,40,9.369,40,10.437V12.5v0.063c0,1.068-0.869,1.938-1.938,1.938H6V8.5z M39.677,28.215    c-0.374-0.562-0.944-0.943-1.605-1.076c-0.659-0.133-1.334,0.001-1.896,0.375l-0.621,0.414c-1.041,0.694-1.418,2.067-0.876,3.192    C37.13,36.219,38,38.821,38,39.5c0,1.761,0.008,5.129,2,8.119V51.5c0,1.103-0.897,2-2,2H6v-37h32.063    c0.708,0,1.363-0.203,1.938-0.531v12.729L39.677,28.215z"></path><path d="M54.071,31.871l4,10C58.227,42.262,58.603,42.5,59,42.5c0.124,0,0.25-0.023,0.371-0.072    c0.513-0.206,0.763-0.787,0.558-1.3l-4-10c-0.205-0.513-0.791-0.761-1.3-0.557C54.116,30.777,53.866,31.358,54.071,31.871z"></path><path d="M53.105,28.947c0.176,0.351,0.528,0.553,0.896,0.553c0.15,0,0.303-0.034,0.446-0.105c0.494-0.247,0.694-0.848,0.447-1.342    l-1-2c-0.248-0.494-0.848-0.694-1.342-0.447c-0.494,0.247-0.694,0.848-0.447,1.342L53.105,28.947z"></path></g></g></svg>