<svg xmlns="http://www.w3.org/2000/svg" xmlns:xlink="http://www.w3.org/1999/xlink" version="1.1" x="0px" y="0px" viewBox="0 0 64 64" enable-background="new 0 0 64 64" xml:space="preserve"><g><g><path d="M50.906,57.477h-2.438v-7.581c0.227-0.081,0.463-0.204,0.691-0.393c0.682-0.564,1.028-1.482,1.028-2.729v-6.875    c0-0.831-0.701-1.831-1.69-2.567c0.173-0.063,0.336-0.131,0.477-0.207c0.892-0.479,1.645-1.337,2.302-2.62    c1.25-2.443,0.569-5.3-1.52-6.37c-2.089-1.066-4.806,0.052-6.055,2.494c-0.657,1.283-0.912,2.395-0.779,3.398    c0.097,0.735,0.469,1.713,1.575,2.52c-1.083,0.303-3.106,1.018-7.016,2.7V24.452c0.332-0.128,0.743-0.314,1.169-0.56    c0.296,1.383,1.431,2.724,3.754,3.397c0,0,0,0,0,0.001c0.519,0.149,1.086,0.212,1.67,0.212c2.529,0,5.355-1.162,5.735-1.322    c0.277-0.118,0.486-0.354,0.57-0.643c0.083-0.288,0.033-0.6-0.138-0.847c-0.289-0.417-2.897-4.099-5.662-4.901    c-1.359-0.393-2.489-0.366-3.401-0.086v-2.829c0.656,0.61,1.58,1.004,2.738,1.004c0.722,0,1.536-0.153,2.432-0.502h0    c2.683-1.044,4.955-4.941,5.205-5.383c0.148-0.261,0.171-0.575,0.063-0.855c-0.109-0.28-0.338-0.497-0.625-0.589    c-0.482-0.156-4.792-1.496-7.475-0.449c-0.597,0.232-1.116,0.523-1.575,0.849c-0.074-0.326-0.172-0.658-0.297-0.995    c-1-2.699-4.86-5.036-5.297-5.293c-0.259-0.152-0.574-0.182-0.855-0.076c-0.282,0.104-0.502,0.33-0.599,0.614    c-0.164,0.48-1.572,4.767-0.572,7.467c0.938,2.531,2.597,3.552,4.148,3.552c0.24,0,0.476-0.03,0.708-0.077v3.893    c0,1.366-1.425,2.151-2.291,2.502l-1.412-2.118c0.349-0.428,0.599-0.935,0.71-1.515c0.196-1.027-0.026-2.202-0.641-3.397    c-1.21-2.353-4.97-4.049-5.395-4.234c-0.276-0.122-0.589-0.11-0.858,0.026c-0.267,0.138-0.458,0.389-0.521,0.683    c-0.096,0.453-0.903,4.499,0.307,6.851c0.615,1.196,1.442,2.061,2.392,2.499c0.469,0.216,0.956,0.324,1.439,0.324    c0.302,0,0.6-0.055,0.894-0.139l1.679,2.519v15.865c0,0.13,0.029,0.254,0.074,0.368c-0.402,0.366-0.707,0.831-0.85,1.373    c-0.225,0.853-0.05,1.747,0.48,2.454l0.111,0.148v8.001c-0.199,0.007-0.4,0.023-0.604,0.051c-0.027-0.155-0.078-0.304-0.175-0.432    l-1.719-2.293c-0.803-1.07-2.266-1.343-3.402-0.634l-0.128,0.08l-5.722-12.768v-3.223c0-0.553-0.448-1-1-1s-1,0.447-1,1v4.188    c-0.888-0.786-1.632-1.387-1.813-1.532c-0.017-0.013-0.037-0.016-0.055-0.028c-0.014-1.29-0.436-3.221-1.327-6.34    c-0.151-0.531-0.706-0.836-1.236-0.688c-0.531,0.152-0.838,0.706-0.687,1.236c1.363,4.771,1.384,6.144,1.188,6.433    c0,0-0.04,0.019-0.15,0.025c-1.131-0.661-3.374-6.896-3.381-8.387c0.124-0.389,1.431-1.458,3.488-2.115    c1.026-0.328,3.59-0.958,5.232,0.272c2.236,1.678,3.579,9.404,3.899,13.881c0.038,0.526,0.477,0.929,0.997,0.929    c0.024,0,0.048-0.001,0.072-0.003c0.551-0.039,0.965-0.518,0.926-1.068c-0.085-1.185-0.872-10.97-3.932-14.599    c0.1-0.043,0.198-0.087,0.285-0.134c0.892-0.479,1.645-1.337,2.301-2.62c1.25-2.442,0.569-5.3-1.519-6.37    c-2.089-1.066-4.805,0.053-6.055,2.493c-0.657,1.283-0.912,2.396-0.779,3.399c0.055,0.414,0.2,0.906,0.508,1.4    c-1.566,0.128-3.127,0.635-4.367,1.255c-0.917,0.458-3.049,1.688-3.049,3.216c0,0.572,0.348,2.187,0.931,3.982    c-0.019,0.054-0.05,0.102-0.06,0.161l-0.859,5.494c-0.008,0.051-0.012,0.103-0.012,0.154c0,1.045,0.321,2.031,0.891,2.857    c-0.001,0.003-0.003,0.005-0.003,0.007L8.87,57.477H6.219c-0.552,0-1,0.447-1,1s0.448,1,1,1h3.438h6.875h34.375    c0.552,0,1-0.447,1-1S51.458,57.477,50.906,57.477z M44.022,21.711c1.304,0.379,2.808,1.912,3.777,3.08    c-1.442,0.468-3.529,0.959-4.837,0.579c-1.747-0.507-2.667-1.553-2.345-2.664C40.939,21.595,42.278,21.207,44.022,21.711z     M44.242,11.964c0.478-0.186,1.078-0.258,1.72-0.258c1.059,0,2.229,0.196,3.15,0.407c-0.86,1.248-2.221,2.906-3.49,3.4    c-1.695,0.659-3.061,0.389-3.48-0.689c-0.186-0.477-0.141-0.951,0.133-1.41C42.622,12.831,43.302,12.329,44.242,11.964z     M36.198,11.972c-0.472-1.272-0.134-3.393,0.229-4.866c1.235,0.883,2.872,2.271,3.343,3.544c0.35,0.946,0.426,1.787,0.22,2.434    c-0.163,0.51-0.488,0.857-0.966,1.035C37.938,14.52,36.83,13.677,36.198,11.972z M21.562,19.509    C21.562,19.509,21.562,19.509,21.562,19.509c0.576-1.126,1.603-1.816,2.55-1.816c0.283,0,0.559,0.062,0.813,0.191    c1.107,0.567,1.398,2.217,0.65,3.679c-0.459,0.897-0.953,1.492-1.468,1.77c-0.337,0.181-0.899,0.364-1.895-0.146    c-0.995-0.509-1.177-1.072-1.227-1.451C20.908,21.154,21.102,20.405,21.562,19.509z M17.48,57.086    c-0.314-0.941-1.1-1.792-2.341-2.537l3.026-10.301l0.668,0.417l-1.557,6.711c-0.078,0.336,0.023,0.688,0.267,0.933    c0.963,0.964,2.697,1.287,4.37,1.287c0.614,0,1.219-0.044,1.775-0.116c-0.087,0.465-0.053,0.956,0.133,1.421l1.03,2.575H17.58    C17.556,57.352,17.525,57.222,17.48,57.086z M36.054,54.29c1.754,0.438,2.358,2.091,2.567,3.187h-10    C30.917,55.749,34.24,53.838,36.054,54.29z M40.464,56.586c1.366-1.352,2.666-1.405,2.708-1.406c0.552,0,1-0.447,1-1v-8.266    c0-0.553-0.448-1-1-1s-1,0.447-1,1v7.42c-0.66,0.171-1.574,0.54-2.519,1.301c-0.513-0.829-1.266-1.593-2.381-2.047    c0.006-0.044,0.026-0.082,0.026-0.127V45.52c0.556,0.085,1.131,0.016,1.648-0.244l5.449-2.334    c0.508-0.217,0.743-0.805,0.526-1.313c-0.218-0.509-0.804-0.745-1.313-0.525l-5.502,2.358c-0.375,0.187-0.832,0.08-1.084-0.256    l-0.234-0.313c-0.161-0.215-0.214-0.486-0.146-0.745c0.04-0.15,0.156-0.425,0.491-0.571c5.499-2.404,8.081-3.258,8.62-3.258    c1.202,0,2.359,1.24,2.438,1.578v6.875c0,0.852-0.224,1.118-0.293,1.18c-0.108,0.098-0.254,0.084-0.238,0.088    c-0.292-0.055-0.595,0.022-0.825,0.212c-0.23,0.189-0.363,0.473-0.363,0.771v8.453h-5.823    C40.606,57.212,40.547,56.91,40.464,56.586z M45.482,31.54L45.482,31.54c0.576-1.126,1.603-1.816,2.549-1.816    c0.283,0,0.559,0.062,0.814,0.191c1.106,0.567,1.398,2.217,0.65,3.679c-0.459,0.897-0.954,1.493-1.468,1.77    c-0.337,0.182-0.899,0.364-1.896-0.146c-0.995-0.509-1.176-1.072-1.227-1.451C44.829,33.186,45.022,32.437,45.482,31.54z     M32.307,19.513c-0.54-0.249-1.042-0.802-1.451-1.597c-0.536-1.042-0.484-2.877-0.331-4.222c1.182,0.655,2.703,1.68,3.241,2.725    c0.409,0.796,0.566,1.524,0.455,2.109c-0.085,0.447-0.324,0.774-0.71,0.973C33.126,19.7,32.72,19.704,32.307,19.513z     M30.754,50.545c0.169,0,0.336,0.078,0.446,0.224l1.085,1.446l-5.83,3.887l-0.777-1.943c-0.101-0.251-0.007-0.537,0.223-0.681    l4.556-2.847C30.549,50.572,30.652,50.545,30.754,50.545z M26.641,50.657c-0.374-0.504-1.155-1.19-2.805-2.089    c0.42-1.004,0.971-2.464,1.303-3.879l2.419,5.396L26.641,50.657z M17.391,38.32c0.698,0,1.24-0.221,1.636-0.634    c1.61,1.336,3.849,3.387,4.344,4.378c0.38,0.76-0.609,4.061-1.735,6.546c-0.222,0.489-0.017,1.067,0.463,1.308    c0.895,0.447,1.797,0.992,2.367,1.411c-1.328,0.311-3.878,0.441-5.092-0.149l1.568-6.759c0.097-0.416-0.082-0.848-0.444-1.073    l-4.975-3.11c-0.875-0.546-1.405-1.479-1.429-2.507l0.365-2.337C15.31,37.053,16.324,38.32,17.391,38.32z M10.928,57.477    l3.738-15.417l1.738,1.086l-3.41,11.61c-0.136,0.465,0.08,0.96,0.512,1.177c1.18,0.59,1.732,1.146,1.973,1.543H10.928z"></path><path d="M57.781,57.477h-1.719c-0.552,0-1,0.447-1,1s0.448,1,1,1h1.719c0.552,0,1-0.447,1-1S58.333,57.477,57.781,57.477z"></path></g></g></svg>