<svg xmlns="http://www.w3.org/2000/svg" xmlns:xlink="http://www.w3.org/1999/xlink" version="1.1" x="0px" y="0px" viewBox="0 0 64 64" enable-background="new 0 0 64 64" xml:space="preserve"><g><g><path d="M29.612,41.813c0.195,0.195,0.451,0.293,0.707,0.293s0.512-0.098,0.707-0.293l10.606-10.606    c6.238-6.239,6.238-16.39,0-22.627c-3.021-3.022-7.04-4.687-11.313-4.687S22.027,5.558,19.006,8.58    c-3.022,3.021-4.687,7.039-4.687,11.313c0,4.273,1.664,8.291,4.687,11.313L29.612,41.813z M20.42,9.994    c2.645-2.645,6.16-4.101,9.899-4.101s7.255,1.456,9.899,4.101c5.458,5.458,5.458,14.34,0,19.799l-9.899,9.899l-9.899-9.899    c-2.645-2.645-4.101-6.16-4.101-9.899C16.319,16.153,17.775,12.639,20.42,9.994z"></path><path d="M29.32,30.199v1.138c0,0.553,0.447,1,1,1s1-0.447,1-1v-1.14c2.882-0.37,5.637-2.399,5.637-7.212    c0-6.463-5.631-13.237-5.87-13.522c-0.188-0.224-0.466-0.354-0.758-0.356C30,9.116,29.757,9.23,29.565,9.452    c-0.248,0.285-6.062,7.076-5.881,13.562C23.8,27.164,25.887,29.778,29.32,30.199z M30.31,11.729    c1.486,2.025,4.646,6.852,4.646,11.256c0,3.003-1.284,4.812-3.637,5.198v-2.159l1.664-2.403c0.314-0.454,0.201-1.077-0.253-1.392    c-0.455-0.315-1.078-0.201-1.392,0.253l-0.02,0.028v-4.404c0-0.553-0.447-1-1-1s-1,0.447-1,1v2.749    c-0.324-0.374-0.873-0.474-1.296-0.19c-0.461,0.306-0.586,0.926-0.28,1.386l1.576,2.374v3.758    c-2.298-0.387-3.551-2.172-3.636-5.226C25.561,18.566,28.792,13.745,30.31,11.729z"></path><path d="M60.491,37.973c-0.043-0.317-0.235-0.595-0.518-0.747l-13-7c-0.484-0.261-1.093-0.079-1.354,0.407    c-0.262,0.485-0.079,1.092,0.407,1.354l11.787,6.347l-3.454,3.297c-0.089-0.161-0.207-0.308-0.381-0.403l-11-6    c-0.482-0.265-1.092-0.086-1.356,0.399c-0.265,0.484-0.086,1.092,0.399,1.356l10.949,5.972l-3.277,3.128l-3.746-1.873    c-0.289-0.146-0.63-0.14-0.915,0.011l-16.61,8.793l-5.064-2.762l15.609-8.264c0.331-0.175,0.536-0.521,0.532-0.896    c-0.005-0.374-0.218-0.715-0.553-0.883l-2-1c-0.494-0.246-1.094-0.047-1.342,0.447c-0.247,0.494-0.047,1.095,0.447,1.342    l0.262,0.131l-15.061,7.974L6.343,40.974l5.508-4.131c0.055,0.049,0.102,0.105,0.169,0.142l11,6    c0.151,0.083,0.315,0.122,0.478,0.122c0.354,0,0.697-0.188,0.879-0.521c0.265-0.484,0.086-1.092-0.399-1.356l-10.407-5.676    l3.528-2.646c0.442-0.331,0.532-0.958,0.2-1.399c-0.332-0.443-0.958-0.532-1.399-0.2l-12,9c-0.272,0.204-0.422,0.532-0.397,0.872    c0.024,0.339,0.22,0.643,0.519,0.806l33,18c0.15,0.082,0.314,0.122,0.479,0.122c0.251,0,0.5-0.095,0.69-0.276l22-21    C60.422,38.608,60.534,38.29,60.491,37.973z M37.338,57.879l-6.81-3.714l14.985-7.933l2.643,1.321L37.338,57.879z"></path></g></g></svg>