<svg width="170" height="139" viewBox="0 0 170 139" fill="none" xmlns="http://www.w3.org/2000/svg">
<path d="M51.2096 49.4836C51.6323 48.6653 52.055 47.8471 52.6364 46.8125C53.4148 45.875 54.0344 45.1539 54.6408 44.4389C54.6276 44.445 54.6105 44.4686 54.7489 44.4367C55.2339 43.9788 55.5805 43.5527 55.9271 43.1267C55.9271 43.1267 55.927 43.1625 56.0757 43.1257C58.3753 41.9798 60.5263 40.8706 62.6773 39.7615C63.5259 39.1603 64.3745 38.5591 65.2255 37.9562C65.6168 37.9914 66.1893 38.0429 67.0101 37.9582C68.714 36.8248 69.9471 34.8475 72.0174 36.8614C71.3924 38.0237 70.8065 39.0584 70.0901 40.1748C67.6228 40.9576 68.7419 43.3886 67.4263 44.9233C68.1946 44.9233 68.6777 44.9233 69.1387 45.0779C68.0538 47.718 68.7067 49.9338 70.5175 49.8933C70.4016 50.5026 69.9859 51.2961 70.2257 51.6764C71.0992 53.0621 72.1298 54.3653 73.2278 55.5858C73.7743 56.1933 74.805 56.4096 75.2489 57.0556C76.1785 58.4085 76.9417 58.749 78.5323 57.9665C79.0068 58.0257 79.574 58.0513 79.6191 58.2182C80.2517 60.5547 81.9254 59.9944 83.5427 59.7259C84.3057 59.5992 85.0923 59.6148 85.9414 59.7133C88.3477 60.2035 90.6776 60.5738 93.019 60.8449C93.2439 60.8709 93.5402 60.2796 93.7975 59.9595C93.7917 59.9441 93.7611 59.9563 93.91 59.9962C94.4153 59.8624 94.7718 59.6888 95.3175 59.5086C96.2149 59.5118 96.9234 59.5085 97.6309 59.5336C99.7891 59.6103 101.314 58.2856 101.687 56.0213C102.172 55.3051 102.682 54.7048 102.881 54.0148C103.22 52.8437 103.53 51.617 103.537 50.4118C103.543 49.3815 103.108 48.3486 102.849 47.1953C102.795 46.9137 102.759 46.7537 102.805 46.468C103.557 44.4051 102.041 43.9818 100.745 43.252C100.582 43.0053 100.492 42.8615 100.443 42.5498C100.489 42.1519 100.494 41.9219 100.533 41.6219C100.49 41.4459 100.415 41.34 100.173 41.1966C98.5685 40.5149 97.6807 39.5267 97.9484 37.7289C97.9997 37.4934 98.0149 37.357 98.1787 37.1844C100.685 37.9543 102.827 39.0318 104.095 41.4962C105.602 42.7397 107.082 43.8296 108.587 44.9565C108.613 44.9934 108.758 45.0975 108.729 45.2811C109.926 48.3785 111.074 51.3547 114.379 52.7485C114.563 53.652 114.66 54.4445 115.011 55.102C115.727 56.4444 117.921 57.0569 116.965 59.2143C116.026 61.3321 114.013 60.6255 112.521 60.6484C110.46 60.6799 108.279 60.3719 106.353 59.6587C104.134 58.8367 102.207 59.1214 100.854 61.2434C100.552 61.6894 100.366 62.0721 100.024 62.5274C99.7154 63.8519 99.5635 65.1039 99.3962 66.5116C99.3763 68.7947 99.1252 70.8082 96.8445 71.9489C96.4929 72.1002 96.2475 72.237 95.8642 72.3034C95.2513 72.1917 94.6018 71.9299 94.3301 72.1451C92.6296 73.4918 92.011 72.2444 91.2237 70.894C89.4134 71.0193 87.6835 71.1225 86.0504 71.5752C85.2071 71.8089 84.5359 72.6635 83.659 73.3057C83.0444 73.5115 82.5635 73.6755 82.0699 73.7801C81.4986 73.9013 80.7701 73.7825 80.3661 74.0969C79.1452 75.0471 77.9069 76.0416 76.9377 77.2323C75.6149 78.8575 74.4661 80.57 74.765 82.9587C74.9653 84.5595 74.5823 86.2333 74.4532 87.9707C75.0314 88.7916 75.6967 89.8796 76.5128 90.8395C76.9767 91.3851 77.6873 91.7211 78.2836 92.1592C78.2805 92.1669 78.2945 92.1598 78.3207 92.2929C78.7598 92.7596 79.1726 93.0933 79.5896 93.5396C79.6122 93.725 79.6307 93.7979 79.6297 94.0079C79.8723 94.3817 80.1345 94.6183 80.4182 94.9353C80.4397 95.0157 80.5507 95.1398 80.5213 95.293C80.9179 95.7363 81.3439 96.0263 81.7679 96.3541C81.766 96.3919 81.8348 96.4234 81.8591 96.5477C82.1055 96.9192 82.3276 97.1666 82.5605 97.4956C82.5714 97.5772 82.6528 97.7204 82.6087 97.8449C83.1746 98.9414 83.6127 100.101 84.429 100.848C86.3454 102.6 88.2734 104.227 86.9685 107.291C86.1576 107.868 85.4602 108.38 84.5894 108.909C81.1112 108.805 77.8066 108.684 74.401 108.444C73.1646 106.556 71.6347 106.057 69.6536 106.736C67.624 104.507 65.0697 103.685 62.3117 103.161C61.8454 101 59.4382 101.707 58.5168 100.168C58.2102 99.8206 57.9095 99.629 57.6188 99.2816C56.9405 97.9741 56.2521 96.8223 55.7171 95.6615C56.617 95.3382 57.3636 95.0239 58.218 94.6931C58.3915 94.5577 58.4572 94.4389 58.5103 94.3252C58.4977 94.3303 58.5177 94.3487 58.6611 94.324C59.0262 93.78 59.578 93.1 59.4161 92.7676C58.3617 90.6026 57.1239 88.5391 55.4909 87.9921C54.1942 85.0839 53.2014 82.8573 52.0864 80.3567C52.0887 80.3568 51.6715 80.3357 51.1737 80.2014C50.9989 79.4031 50.9048 78.7183 50.9397 77.9298C50.667 76.5404 50.2652 75.2546 49.8499 73.9116C49.8116 73.7748 49.7619 73.7163 49.6375 73.5347C48.7293 71.7341 47.2238 71.2257 45.5081 71.0899C45.5323 70.0489 45.5565 69.0079 45.5683 67.7138C45.7187 67.0238 46.0487 66.5725 46.0126 66.1528C45.907 64.9259 45.6554 63.7116 45.4609 62.4924C45.6574 60.7164 45.8539 58.9405 46.2388 56.9906C47.3015 56.6444 48.1758 56.4721 49.1947 56.3506C51.1635 57.2307 51.8632 55.5411 52.3141 54.6028C52.6989 53.8018 52.0278 52.4934 51.8167 51.2656C51.6096 50.5757 51.4096 50.0296 51.2096 49.4836Z" fill="#1488FC" stroke="white" stroke-width="2"/>
<path d="M163.462 57.347C163.6 57.3339 163.707 57.385 163.813 57.7349C163.888 58.0551 163.932 58.1407 163.967 58.3691C163.629 59.8741 163.34 61.2472 162.964 62.5959C162.566 64.0262 162.836 65.1623 164.363 65.5773C166.099 66.0493 166.707 67.2047 166.821 68.8565C166.862 69.4568 167.132 70.0415 167.297 70.6334C166.928 71.4276 166.56 72.2219 165.907 73.0917C164.48 72.9997 163.336 72.8322 162.157 72.6595C164.061 74.5727 161.919 76.1512 161.213 77.9854C160.52 78.0792 159.8 78.3403 159.14 78.2327C157.638 77.9881 156.308 77.6893 155.179 79.2645C154.756 79.856 153.481 80.2472 152.713 80.1021C150.809 79.7424 148.757 79.3575 147.178 78.34C145.869 77.4956 144.486 77.3195 143.238 76.7468C141.528 75.9624 139.364 75.165 139.038 72.6258C140.552 71.8326 141.91 71.2197 143.416 70.5399C143.029 70.1775 142.496 69.6799 141.968 69.0319C140.869 68.0471 139.767 67.2125 138.615 66.2093C138.586 64.8654 138.713 63.6779 138.58 62.5203C138.51 61.9157 137.982 61.3638 137.658 60.6265C137.815 60.1062 137.878 59.5748 138.154 59.4177C139.673 58.5536 141.244 57.781 143.274 56.7307C142.241 56.537 141.585 56.472 140.965 56.2855C139.699 55.9042 138.399 56.5884 137.42 56.5294C135.078 56.3879 132.771 55.235 130.519 54.3198C130.021 54.1173 129.809 53.2089 129.501 52.4657C129.795 51.7716 130.054 51.2375 130.436 50.6339C131.12 49.5768 131.755 48.6226 132.214 47.5901C132.54 46.8567 132.628 46.0176 132.823 45.2257C131.959 45.1638 131.085 44.9912 130.236 45.078C129.65 45.138 129.1 45.5565 128.464 45.6978C125.97 45.419 124.309 43.9853 122.877 42.4151C123.26 41.6996 123.644 41.1212 123.85 40.4853C123.894 40.3496 123.322 39.8359 122.988 39.7821C118.821 39.1118 118.491 37.8111 118.574 34.6118C118.578 34.4571 118.33 34.296 118.239 33.9749C118.075 33.5141 117.797 32.9316 117.678 32.9623C116.477 33.2724 115.302 33.6829 113.928 34.0978C112.441 34.9193 111.918 33.7073 111.065 32.9922C109.433 30.6919 110.132 28.5239 110.961 26.3556C110.961 26.3556 110.959 26.3911 111.052 26.3568C111.354 26.2272 111.563 26.132 111.772 26.0367C112.996 25.2118 113.891 24.2267 113.49 22.5881C113.148 21.1907 114.229 21.1897 115.377 20.8718C116.162 20.6442 116.778 20.6657 117.135 20.3721C118.244 19.4594 119.254 18.4271 120.303 17.4412C120.859 17.0444 121.395 16.6158 121.975 16.2576C123.047 15.5948 124.145 14.9732 125.55 14.3657C127.24 15.5399 129.111 16.4246 129.87 17.8864C130.99 20.0461 131.313 22.618 131.995 25.0088C132.089 25.3403 132.295 25.6399 132.494 26.0943C133.225 27.0945 133.913 27.9546 134.643 28.8681C135.042 28.6183 135.459 28.3573 135.876 28.0962C135.876 28.0962 136.089 28.1019 136.291 28.2169C137.737 28.9682 138.98 29.6044 140.223 30.2406C140.223 30.2406 140.195 30.2491 140.133 30.3985C140.138 31.5474 140.48 32.0214 141.662 31.8476C143.312 31.6047 145.001 31.6183 146.673 31.5222C146.673 31.5222 146.646 31.5389 146.628 31.6516C146.759 31.8291 146.907 31.8939 147.055 31.9587C147.593 32.8161 148.132 33.6735 148.638 34.853C148.842 38.0053 148.978 40.8242 150.642 43.3423C151.693 44.9333 151.937 46.7256 150.431 48.3154C149.472 50.112 148.634 51.972 147.526 54.4307C148.387 53.8765 148.83 53.5768 149.287 53.2993C150.255 52.7112 151.292 51.5947 152.186 51.6977C153.177 51.8119 154.194 52.9188 154.92 53.8189C155.953 55.0987 156.731 56.5841 157.215 57.347C159.846 57.347 161.654 57.347 163.462 57.347ZM133.35 36.5773C133.35 36.8575 133.35 37.1377 133.35 37.8292C133.933 37.1459 134.262 36.7602 134.882 36.2896C134.995 36.0192 135.107 35.7489 135.219 35.4785C134.579 35.7655 133.938 36.0525 133.35 36.5773ZM131.141 37.9308C130.69 38.4095 130.238 38.8882 129.572 39.3092C128.459 39.4387 127.345 39.5681 126.312 39.6883C127.428 40.5567 128.728 41.0605 130.531 40.0721C130.908 39.4005 131.284 38.729 131.915 37.9408C131.89 37.7879 131.865 37.6349 131.84 37.482C131.692 37.5849 131.543 37.6878 131.141 37.9308Z" fill="#1B4D2F" stroke="white" stroke-width="2"/>
<path d="M100.181 62.455C100.366 62.0722 100.551 61.6894 101.023 61.2546C103.01 60.2317 104.725 60.352 106.31 61.3652C108.309 62.6421 110.453 62.532 112.648 62.348C113.131 62.3075 113.656 62.5375 114.111 62.4299C115.205 62.1713 116.268 61.7829 117.345 61.4535C118.046 61.2391 118.751 61.0363 119.43 60.9836C119.096 61.9822 118.279 63.259 118.565 63.5942C119.848 65.0968 120.127 66.6079 119.578 68.433C119.421 68.9565 119.568 69.5716 119.56 70.292C119.526 70.6354 119.508 70.8315 119.373 71.1008C119.387 73.5483 119.51 75.9231 119.661 78.2961C119.672 78.4739 119.881 78.6392 119.892 78.9154C119.163 80.9072 118.54 82.7939 117.952 84.576C118.404 85.2619 118.773 85.8224 119.115 86.4563C118.989 86.6484 118.889 86.7672 118.688 86.9842C118.498 87.3373 118.408 87.592 118.248 87.9783C116.892 89.7117 115.602 91.309 114.324 92.9168C112.493 95.2214 110.672 97.5336 108.847 99.8425C106.66 101.224 104.738 103.112 101.909 103.25C101.446 103.272 101.01 103.888 100.458 104.308C101.142 104.611 101.507 104.773 101.823 104.913C101.881 106.088 95.8503 107.822 94.6694 107.094C94.4969 106.988 94.3118 106.902 93.8601 106.695C91.9038 106.57 90.2521 106.625 89.4678 108.527C89.4531 108.519 89.4791 108.541 89.3232 108.516C88.6832 108.061 88.1991 107.631 87.7912 107.078C88.8188 105.53 88.8083 102.489 87.6898 101.965C85.7464 101.054 85.1031 99.0275 83.7062 97.5484C83.1642 95.3234 82.5809 93.2579 81.9554 91.0432C81.6414 91.0432 80.9731 91.0432 80.1753 91.0432C80.2208 90.3201 80.2579 89.7311 80.2944 89.1522C79.5979 89.2849 79.0385 89.3914 78.3286 89.5266C78.3914 88.1632 78.4416 87.0721 78.5064 85.6664C77.5342 86.2792 76.8394 86.7172 76.0066 87.1059C75.7234 86.9115 75.4281 86.6803 75.4548 86.6338C76.4261 84.9413 76.4169 83.2261 75.8246 81.3987C75.7001 81.0146 76.1691 80.3366 76.516 79.9202C77.5617 78.665 78.4976 77.1929 79.817 76.3211C81.7275 75.0587 83.9365 74.2482 86.1548 73.1822C87.9755 72.4185 89.6596 71.7176 91.3436 71.0168C92.0104 72.2445 92.629 73.4919 94.3295 72.1452C94.6012 71.93 95.2507 72.1918 95.8714 72.4539C97.9054 74.3014 98.5254 74.0825 99.3126 71.5156C99.322 71.5167 99.3328 71.5016 99.472 71.4291C99.8049 70.56 99.9986 69.7633 100.323 68.8775C101.901 66.1467 101.835 64.667 100.211 63.2252C100.199 62.8657 100.19 62.6603 100.181 62.455ZM95.3243 73.7301C95.2729 73.7616 95.2986 73.7459 95.3243 73.7301V73.7301Z" fill="#72D99C" stroke="white" stroke-width="2"/>
<path d="M93.8348 117.64C94.3348 119.809 94.6632 119.964 96.4454 118.875C97.499 118.231 98.5541 117.589 99.9197 116.277C101.339 117.358 102.913 118.291 104.126 119.567C105.008 120.496 105.133 122.275 106.101 122.959C107.389 123.868 107.614 124.828 107.383 126.383C105.836 128.025 104.4 129.251 104.301 131.628C104.262 132.539 102.538 133.79 101.359 134.143C99.7397 134.629 97.9086 134.408 96.0138 134.496C96.075 137.066 93.9758 137.165 92.1789 137.641C90.7546 136.974 89.3315 136.305 87.9052 135.643C87.5877 135.496 87.2703 135.313 86.9333 135.248C83.2028 134.526 82.6073 133.8 82.4098 129.791C82.3941 129.472 82.1739 129.087 81.9284 128.868C80.948 127.991 79.92 127.167 78.9102 126.324C78.6557 127.651 78.3285 129.017 79.904 130.39C81.6176 131.884 80.7043 134.72 78.4058 134.856C73.6759 135.136 68.9091 135.22 64.1874 134.918C62.9674 134.839 61.8567 133.032 60.6989 132.015C59.8145 131.239 58.7599 130.582 58.0927 129.649C56.9708 128.08 56.0965 126.334 55.2461 124.484C55.5569 124.199 55.7395 124.093 55.9199 123.987C55.9176 123.987 55.9154 123.99 56.0305 123.969C56.2209 123.816 56.2962 123.683 56.502 123.523C56.8225 123.224 57.0125 122.953 57.2624 122.554C57.8746 121.998 58.4787 121.622 58.9676 121.131C59.7811 120.314 62.1854 120.696 61.0764 118.399C61.0764 118.399 61.0774 118.398 61.213 118.314C63.1736 116.955 65.1735 117.02 67.347 117.508C68.6424 117.724 69.8135 117.894 71.0872 118.179C72.1228 118.374 73.0558 118.456 73.9891 118.533C75.0186 118.619 76.29 118.351 77.0263 118.859C78.4322 119.83 79.5332 121.242 81.0275 122.738C83.1456 121.028 85.4215 119.191 87.7736 117.471C89.8447 117.605 91.8397 117.623 93.8348 117.64Z" fill="#194C2E" stroke="white" stroke-width="2"/>
<path d="M24.0543 77.1248C22.3885 77.5182 20.866 78.6303 19.0139 77.1072C18.109 76.3631 16.4789 76.4602 15.1642 76.2629C11.3437 75.6895 9.41696 73.6611 9.59894 69.922C9.66703 68.5231 9.61115 67.8841 8.03165 68.1362C7.77445 68.1773 7.33936 67.6884 7.13071 67.3544C5.77737 65.1881 4.46399 62.9968 3.01517 60.5933C2.82827 58.372 2.53703 56.3414 2.79299 54.3823C2.92465 53.3746 3.9044 52.3573 4.73019 51.5915C5.74138 50.6539 7.14 50.1228 8.1099 49.1543C10.2147 47.0526 11.3668 47.0701 12.8128 49.2308C14.2395 48.6498 15.5937 48.0984 16.9313 47.5537C16.8993 47.4722 16.797 47.2114 16.6946 46.9505C18.024 46.4983 19.4701 45.4814 20.6553 45.7265C22.4295 46.0933 23.8682 45.7157 25.5563 45.2017C26.0249 45.3038 26.3403 45.3586 26.7666 45.5046C27.5061 46.0221 28.1491 46.429 28.7599 46.8795C29.5846 47.4877 30.3846 48.1294 31.1951 48.7567C32.1174 49.5959 32.9459 50.583 33.9831 51.2409C35.6715 52.3117 37.5158 52.5527 39.5811 52.2174C41.4619 51.912 43.2224 54.2419 43.0958 56.2208C43.0276 57.2877 43.2165 58.3711 43.3266 59.9979C43.1069 60.2557 42.4767 60.995 41.6684 61.8881C40.3677 62.0366 39.2451 62.0314 38.0266 61.9304C35.7562 61.3576 33.5817 60.8805 31.3145 60.3832C30.8148 60.7489 30.2063 61.1943 29.4254 61.6403C27.6498 61.653 26.0467 61.6652 24.3544 61.6736C24.2653 61.6697 24.0887 61.6447 24.0015 61.5147C23.5479 60.4316 22.9425 59.4962 22.87 58.5212C22.7559 56.9847 22.2334 56.5151 20.1891 57.3161C20.8271 58.3037 21.3407 59.1827 21.9389 59.9997C22.4693 60.7239 23.0939 61.3793 23.6332 62.214C23.1756 63.2692 22.7616 64.1753 22.2262 65.104C21.5415 65.2402 20.9782 65.3539 20.2279 65.5053C20.2279 65.8715 20.2279 66.5515 20.1353 67.305C19.9196 67.6463 19.7966 67.9141 19.6735 68.1818C19.9915 68.1455 20.1306 68.0114 20.1784 67.8502C20.2358 67.6562 20.2156 67.4393 20.3363 67.346C20.8433 70.3872 21.3666 73.2418 24.3529 74.8081C24.5253 74.8985 24.5171 75.3332 24.5568 75.7414C24.3652 76.2917 24.2098 76.7083 24.0543 77.1248ZM13.0928 63.8057C13.6196 63.7902 14.234 63.9419 14.6541 63.7222C15.3859 63.3394 16.2327 62.8421 16.563 62.1645C16.7328 61.8163 15.8684 60.9884 15.5137 60.3536C15.1234 59.6551 14.8036 58.9171 14.4104 58.2203C14.1869 57.8243 13.8781 57.4763 13.6077 57.1068C13.4132 57.1753 13.2188 57.2438 13.0243 57.3123C13.0243 59.3792 13.0243 61.4461 13.0928 63.8057Z" fill="#1C4D30" stroke="white" stroke-width="2"/>
<path d="M23.6987 104.654C21.9118 102.442 19.1194 100.997 18.5356 97.8573C18.4968 97.6488 18.1547 97.4557 17.9143 97.3322C16.0165 96.3574 15.2472 94.7356 15.2383 92.8663C16.1497 92.0056 17.0402 91.268 17.7781 90.4004C17.9819 90.1608 17.899 89.2842 17.6618 89.1247C15.7216 87.8196 16.3706 86.4893 17.7579 85.0007C19.2139 84.9047 20.0867 84.5924 19.7816 83.1129C19.7816 83.1129 19.7979 83.1391 19.9222 83.2144C20.5317 82.7986 21.0168 82.3075 21.5018 81.8165C21.5018 81.8165 21.5159 81.8414 21.6352 81.785C21.8231 81.5466 21.8917 81.3647 21.9603 81.1828C22.9909 80.9718 24.0214 80.7608 25.2901 80.7109C25.9212 80.9026 26.3142 80.9333 26.7071 80.9639C26.7071 80.9639 26.681 80.9884 26.6527 81.1163C27.0569 81.5023 27.5014 81.9975 27.9196 81.9762C29.5093 81.8951 31.0905 81.6471 32.774 81.5674C34.3844 82.4005 35.8956 83.1277 37.4461 84.0052C38.7915 85.6086 40.5006 86.8389 40.1352 89.2476C38.7407 89.8817 37.459 90.4217 35.6588 91.1801C36.5949 91.9559 37.2008 92.8191 37.9794 93.0232C39.3296 93.3771 40.7868 93.3232 42.1861 93.4516C42.1731 93.4628 42.1491 93.4382 42.1424 93.602C42.8712 94.509 43.6067 95.2522 44.1891 96.0896C44.1526 97.7065 44.2692 99.2291 44.3094 100.912C44.1185 102.271 44.004 103.47 43.885 104.656C43.8804 104.643 43.9078 104.649 43.7624 104.621C43.5628 104.762 43.5086 104.931 43.4526 105.086C43.4509 105.072 43.4784 105.077 43.3075 105.057C40.5974 105.144 40.2257 107.764 38.5656 108.941C38.5212 108.939 38.4324 108.939 38.2877 108.841C37.0565 108.876 35.7531 107.861 34.9384 109.441C34.2842 110.71 33.5147 111.919 32.7963 113.154C29.7058 113.699 27.9367 111.929 26.4416 109.296C25.7023 107.435 26.1214 105.174 23.6987 104.654Z" fill="#194C2E" stroke="white" stroke-width="2"/>
<path d="M72.0567 36.7342C69.9472 34.8479 68.7141 36.8252 67.1206 37.8681C67.0101 37.5701 67.0378 37.2266 67.0837 36.6565C64.5602 37.4533 63.0925 36.2468 61.826 34.294C61.1973 33.3245 60.1383 32.5897 59.1695 31.8942C56.9845 30.3257 56.3053 27.6876 57.5822 25.352C57.8861 24.796 58.1661 24.2269 58.6341 23.4893C59.12 23.0215 59.4534 22.7498 59.7335 22.4312C61.0092 20.98 61.7683 19.0068 64.2424 18.8847C64.9332 18.8506 65.5635 17.5893 66.2216 16.891C66.2216 16.891 66.2288 16.9194 66.3584 16.9717C66.5557 16.8478 66.6235 16.6716 66.6913 16.4953C66.7997 16.4012 66.908 16.307 67.2502 16.1417C69.1758 16.0028 70.8726 15.9914 72.5567 15.84C73.2388 15.7787 73.8934 15.4122 74.5606 15.1845C74.7136 15.0629 74.8666 14.9413 75.2739 14.8175C75.7288 14.6474 75.9293 14.4796 76.1299 14.3117C76.1299 14.3117 76.1242 14.3423 76.2907 14.4043C78.2993 14.0672 79.9031 14.4537 81.3793 15.6926C82.0479 16.2537 82.9763 16.5052 83.7868 16.8971C85.3386 17.4852 86.8904 18.0733 88.4509 18.9653C88.4158 20.0283 88.5137 20.8309 88.2967 21.5368C87.9286 22.7342 88.3882 23.2562 89.5022 23.622C89.7882 24.3519 90.0241 24.9499 90.3246 25.5135C92.3183 29.2514 91.1227 32.3615 87.0882 33.7279C85.222 34.3598 83.3091 34.8537 81.2893 35.3214C80.4539 35.4152 79.7467 35.5978 78.8922 35.6941C77.107 35.2767 75.5294 35.1022 74.0354 36.2277C73.5335 36.6059 72.725 36.577 72.0567 36.7342Z" fill="#194C2E" stroke="white" stroke-width="2"/>
<path d="M135.401 81.4724C138.977 79.6541 141.816 81.3294 144.587 83.3914C144.896 83.6214 145.373 83.9369 145.653 83.8459C148.292 82.9883 149.926 84.4958 151.499 86.2098C151.733 86.465 152.011 86.6797 152.473 87.1168C152.959 87.6932 153.332 88.028 153.508 88.4456C154.135 89.933 154.473 91.6007 155.36 92.8995C155.942 93.7514 157.282 94.0855 157.996 94.4891C157.55 98.055 156.093 100.579 153.045 101.971C152.83 102.069 152.687 102.327 152.517 102.516C151.818 103.293 151.11 104.063 150.429 104.856C150.038 105.311 149.693 105.805 149.327 106.281C147.631 106.95 145.982 107.85 144.224 108.206C143.112 108.431 141.836 107.843 140.721 107.636C139.747 108.285 138.679 109.432 137.431 109.685C136.51 109.87 135.353 108.888 134.262 108.125C133.642 107.241 133.089 106.627 132.474 106.082C130.9 104.689 129.299 103.328 127.708 101.954C127.87 100.871 128.031 99.7874 128.212 98.5725C126.246 96.855 126.934 94.4786 130.322 92.7635C131.048 92.7656 131.672 92.7427 131.969 93.0433C133.884 94.9842 135.011 93.4426 136.247 92.3238C135.067 91.0638 133.974 89.8975 132.89 88.5779C132.632 85.7112 133.422 83.3779 135.401 81.4724Z" fill="#1B4D2F" stroke="white" stroke-width="2"/>
<path d="M49.5057 42.2686C49.7968 44.3984 48.1358 44.8082 46.7221 45.4769C45.2545 46.1711 43.8206 46.9367 42.072 47.8231C36.9729 45.9386 30.4293 45.3393 27.1074 38.8526C27.1197 38.0641 27.119 37.6011 27.2092 37.0204C28.7549 35.4189 27.9997 33.6436 27.9726 31.8244C28.2733 31.3564 28.5537 31.0255 28.9847 30.6556C29.572 29.8129 30.245 29.0504 30.394 28.1965C30.6668 26.6329 31.2724 25.452 32.8707 25.1015C35.4167 24.5434 37.9977 24.1434 40.5393 23.5683C41.1807 23.4232 41.7291 22.8678 42.3203 22.5009C42.6158 22.2368 42.9112 21.9726 43.5188 21.6792C45.2087 21.7455 46.5855 21.8935 47.9645 21.9182C48.8794 21.9346 49.7974 21.7747 50.714 21.6937C53.6193 22.244 53.8808 24.5173 54.1161 26.8451C54.1846 27.5219 54.2267 28.5021 54.6541 28.791C56.8087 30.2473 56.3987 32.6867 57.0145 34.6766C57.63 36.6651 57.0709 38.4522 54.7054 39.1395C54.2512 39.2714 53.8777 39.6809 53.2555 40.0152C52.1167 39.1003 51.1894 38.1323 50.2968 36.994C49.967 35.9865 49.6023 35.1493 49.0663 33.9187C47.9107 34.8565 47.1284 35.4914 46.2775 36.2645C46.0644 37.0826 45.9198 37.7626 45.8177 38.2428C47.1143 39.6582 48.31 40.9634 49.5057 42.2686Z" fill="#194C2E" stroke="white" stroke-width="2"/>
<path d="M38.4323 108.939C38.4323 108.939 38.5211 108.939 38.7018 109.033C40.1309 109.438 41.3793 109.75 42.7082 110.082C42.2346 107.159 42.2346 107.159 43.4605 106.788C43.4461 106.79 43.4437 106.761 43.4599 106.881C43.6145 107.074 43.753 107.146 44.0263 107.15C44.6479 106.462 45.1601 105.86 45.6154 105.217C46.3072 104.241 46.4755 102.67 48.3091 103.1C49.9263 104.847 51.4868 106.468 53.1615 108.19C54.4443 108.442 55.6129 108.595 56.9244 108.778C57.8047 109.159 58.5602 109.476 59.276 109.867C60.7589 110.675 62.2207 111.523 63.6757 112.365C63.6602 112.376 63.6808 112.344 63.6466 112.493C63.6096 112.845 63.6067 113.047 63.453 113.267C61.2557 114.421 60.3975 116.075 61.0773 118.398C61.0773 118.398 61.0763 118.399 60.9175 118.407C59.5065 118.27 58.2542 118.123 56.8118 117.955C56.4552 119.44 55.4566 121.112 57.2025 122.681C57.0125 122.953 56.8225 123.224 56.3944 123.555C56.0759 123.74 55.9956 123.865 55.9153 123.99C55.9153 123.99 55.9176 123.987 55.7187 123.944C55.2163 123.923 54.9128 123.945 54.6192 123.984C54.6291 124 54.6258 124.08 54.6258 124.08C52.1867 124.748 51.5974 122.627 50.5304 121.255C49.4539 122.29 48.4625 123.286 47.425 124.231C46.2365 125.313 45.2075 125.001 44.9424 123.512C44.69 122.095 44.888 120.598 44.888 119.28C42.3057 119.676 39.7282 120.071 36.8865 120.451C35.7793 120.27 34.3296 121.214 34.4649 119.257C34.7096 119.03 34.9542 118.803 35.4648 118.329C33.5534 118.149 31.973 118 30.318 117.844C29.6365 115.45 31.0388 114.46 33.2005 113.683C34.4211 113.342 35.349 113.076 36.4314 112.766C34.8175 110.026 37.3183 109.912 38.4323 108.939Z" fill="#1B4D2F" stroke="white" stroke-width="2"/>
<path d="M91.5985 12.5643C91.5985 12.5643 91.5906 12.354 91.7794 12.2907C92.5032 12.3718 93.313 12.8125 93.5283 12.6126C94.9496 11.2931 96.3457 10.0961 98.4029 9.81006C99.2956 9.68592 100.112 9.00908 101.224 8.45211C100.939 7.14927 100.596 5.58603 100.253 4.02279C100.403 4.00421 100.554 3.98563 100.896 4.13744C101.785 4.14095 102.492 4.00759 103.176 3.80051C104.801 3.30914 106.4 2.72543 108.04 2.29477C108.863 2.07875 109.847 1.85553 110.579 2.1242C111.122 2.32345 111.752 3.34677 111.694 3.94016C111.422 6.74512 110.927 9.52846 110.512 12.3195C110.597 13.5669 110.666 14.8157 110.773 16.0613C110.837 16.8012 110.261 17.5877 111.343 18.2295C112.626 18.9901 112.332 20.3687 111.746 21.4231C111.381 22.0783 110.521 22.4575 109.721 23.0878C109.68 23.3263 109.572 23.9516 109.193 24.5756C108.447 24.4662 107.972 24.3582 107.503 24.1737C107.456 24.1117 107.403 24.126 107.35 24.1403C107.407 24.1694 107.464 24.1985 107.579 24.3779C108.093 25.8473 108.549 27.1665 109.039 28.5831C107.821 28.8386 107.348 30.8884 105.491 29.8258C104.087 29.1346 102.829 28.4335 101.552 27.582C101.798 24.9556 102.064 22.4796 102.359 19.8286C102.264 17.2895 100.117 18.7504 99.2657 17.7716C98.5832 18.9878 98.1459 19.9933 99.7384 20.678C98.8475 22.3055 97.9761 23.7828 96.986 25.181C95.4239 24.5433 93.9805 23.9845 92.4445 23.3083C91.4535 22.5656 90.5551 21.9404 89.7041 21.3483C90.1271 20.62 90.4332 20.0931 90.7393 19.5662C91.231 19.2884 91.7228 19.0106 92.4495 18.6293C92.7576 18.3894 92.8306 18.2531 92.9036 18.1168C92.9036 18.1168 92.8794 17.9422 93.0664 17.8446C93.767 17.7469 94.2807 17.7469 94.3202 17.7469C93.4429 16.0764 92.5207 14.3203 91.5985 12.5643ZM101.175 9.80282C101.251 9.80923 101.326 9.81564 101.402 9.82205C101.368 9.77689 101.333 9.73173 101.175 9.80282Z" fill="#1C4D30" stroke="white" stroke-width="2"/>
<path d="M113.633 110.992C113.87 110.739 114.061 110.386 114.352 110.251C115.378 109.778 116.438 109.38 117.485 108.953C117.673 109.639 117.932 110.314 118.032 111.013C118.171 111.983 118.241 112.97 118.25 113.951C118.267 115.64 119.057 116.198 120.902 115.61C123.005 115.602 122.301 117.03 122.33 117.946C122.376 119.411 122.142 120.882 122.135 122.352C122.128 123.731 122.94 124.006 124.113 123.565C124.463 123.433 124.799 123.265 124.652 123.33C125.39 124.142 125.895 124.698 126.4 125.253C126.41 125.47 126.42 125.686 126.25 126.09C125.613 127.63 124.97 128.952 124.746 130.342C124.447 132.194 124.473 134.098 124.359 135.979C121.723 134.14 118.951 132.461 116.504 130.397C115.216 129.312 114.494 127.556 113.603 125.857C113.924 125.295 114.159 124.978 114.394 124.661C114.2 124.768 114.006 124.875 113.812 124.981C112.994 124.068 112.176 123.155 111.358 122.241C111.358 122.241 111.382 122.268 111.513 122.346C113.95 121.444 112.162 120.857 111.427 120.169C110.415 119.378 109.309 118.675 108.437 117.752C108.067 117.36 107.94 116.396 108.157 115.885C108.399 115.312 109.157 114.958 109.992 114.517C111.906 114.47 111.363 113.285 111.559 112.406C112.355 111.935 112.994 111.463 113.633 110.992Z" fill="#1F4F32" stroke="white" stroke-width="2"/>
<path d="M30.0561 74.2145C29.8626 74.3041 29.6691 74.3937 29.2687 74.4164C28.2607 74.1291 27.4596 73.9086 26.5311 73.6439C26.0688 73.4974 25.7339 73.3951 25.3746 73.1419C22.6192 70.961 22.0993 68.5458 24.0542 65.6787C24.156 65.5293 24.0923 65.267 24.179 65.0503C24.2523 65.0434 24.3997 65.0435 24.5545 65.0028C26.4779 64.5071 27.3064 61.7883 29.8312 62.9314C30.1431 63.2392 30.342 63.4976 30.4251 63.8365C29.4094 65.2857 30.4794 65.0168 31.2332 65.0994C31.2419 65.1808 31.0895 65.2405 31.0612 65.4364C31.0974 66.4112 31.1618 67.19 31.267 68.4633C32.3143 67.5723 32.9338 67.0453 33.6671 66.4778C33.861 66.4456 33.9411 66.4538 34.1469 66.5502C35.2206 66.8566 36.1686 67.0749 37.1165 67.2932C37.2273 67.8561 37.3381 68.4191 37.4479 69.312C37.4515 70.1326 37.4561 70.6232 37.4608 71.1138C37.4608 71.1138 37.4441 71.1065 37.3507 71.1788C37.1846 71.3841 37.112 71.5171 37.0394 71.6501C36.8451 71.7539 36.6507 71.8577 36.1863 71.9742C35.5744 72.2795 35.2325 72.5721 34.8905 72.8647C34.8905 72.8647 34.8841 72.8487 34.7153 72.8477C33.1066 73.4893 31.0003 71.9442 30.0561 74.2145ZM25.4901 66.5827C25.6147 66.7077 25.7393 66.8327 25.864 66.9577C25.951 66.8031 26.038 66.6485 26.125 66.494C25.9306 66.4501 25.7362 66.4063 25.4901 66.5827ZM27.7352 70.3177C27.5538 70.1854 27.3724 70.0531 27.191 69.9209C27.1503 70.0355 27.0586 70.2401 27.077 70.2505C27.2396 70.3426 27.4217 70.4003 27.7352 70.3177ZM28.7238 67.8541C28.8034 67.7405 28.883 67.6269 28.9626 67.5132C28.8445 67.5861 28.7265 67.6589 28.7238 67.8541ZM29.4206 70.8724C29.5687 70.9672 29.7168 71.062 29.8649 71.1568C29.8764 71.0376 29.9324 70.8367 29.8911 70.8142C29.7535 70.739 29.5809 70.7279 29.4206 70.8724ZM30.9259 69.9487C30.9577 69.9488 30.9894 69.9489 30.9259 69.9487V69.9487Z" fill="#1C4D30" stroke="white" stroke-width="2"/>
<path d="M138.665 66.378C139.767 67.2125 140.87 68.047 141.806 69.0861C140.303 69.9296 138.968 70.5685 137.632 71.2075C136.045 71.1706 134.457 71.1338 132.516 71.099C128.668 71.3607 125.174 71.6203 121.548 71.837C121.232 71.8006 121.049 71.8072 120.751 71.6717C120.544 71.0754 120.451 70.621 120.389 70.0151C121.124 69.145 121.731 67.9661 122.553 67.7904C125.551 67.1493 128.768 66.1025 131.614 66.665C133.581 67.0536 135.112 65.8111 137.01 66.4526C137.684 66.4235 138.174 66.4007 138.665 66.378Z" fill="#B46428" stroke="white" stroke-width="2"/>
<path d="M30.5416 63.7559C30.3427 63.4975 30.1437 63.2391 29.8308 62.8381C29.7169 62.6956 29.7458 62.5115 29.903 62.4712C32.7479 62.2959 35.4356 62.1609 38.1233 62.0259C39.246 62.0312 40.3686 62.0364 41.6608 62.0263C42.9637 62.2198 44.0969 62.4288 45.3459 62.5652C45.656 63.7119 45.9076 64.9262 46.0132 66.153C46.0493 66.5728 45.7193 67.024 45.5074 67.5775C42.9227 67.4001 40.3873 67.1061 37.4969 66.8234C36.1019 66.7104 35.0618 66.5862 34.0218 66.462C33.9417 66.4537 33.8616 66.4455 33.5419 66.5039C32.5649 66.1271 31.8276 65.6837 31.0902 65.2404C31.0902 65.2404 31.2426 65.1807 31.253 64.987C31.0228 64.4475 30.7822 64.1017 30.5416 63.7559Z" fill="#B46428" stroke="white" stroke-width="2"/>
<path d="M49.6874 73.6792C49.7619 73.7166 49.8116 73.7751 49.7215 74.0192C48.5871 76.3619 48.7976 77.0349 50.8106 78.0337C50.9048 78.7186 50.9989 79.4035 51.1673 80.3707C51.5427 82.0096 51.5314 83.551 52.2042 84.6876C54.162 87.995 56.3936 91.1402 58.5178 94.3491C58.5178 94.3491 58.4977 94.3307 58.4247 94.3712C58.2452 94.4901 58.1647 94.5895 58.1103 94.71C57.3636 95.0243 56.617 95.3386 55.612 95.6973C55.2413 95.8376 55.1289 95.9335 54.8767 95.9679C55.3076 94.5297 54.711 93.8101 53.5694 92.9396C52.2503 91.9337 51.3058 90.4365 50.2072 88.9818C49.8586 87.7869 49.5014 86.7626 49.0867 85.618C49.0141 85.3207 48.9989 85.1438 49.1238 84.9725C49.4041 84.8714 49.5443 84.7647 49.6845 84.658C49.4605 84.551 49.2365 84.4441 49.0125 84.3371C48.8766 83.9073 48.7408 83.4774 48.6032 82.7393C49.1443 79.8128 46.2861 78.2283 46.5434 75.6614C46.596 75.136 46.1549 74.5611 45.9414 74.009C46.6275 73.8487 47.3067 73.6207 48.002 73.5496C48.5536 73.4932 49.1249 73.6289 49.6874 73.6792Z" fill="#75DA9E" stroke="white" stroke-width="2"/>
<path d="M149.501 106.32C149.692 105.805 150.038 105.311 150.429 104.856C151.11 104.063 151.818 103.294 152.516 102.516C152.686 102.327 152.83 102.069 153.044 101.971C156.093 100.579 157.55 98.055 157.996 94.4891C157.282 94.0855 155.942 93.7515 155.36 92.8995C154.472 91.6008 154.135 89.9331 153.507 88.4456C153.331 88.0281 152.959 87.6933 152.605 87.1605C152.179 85.778 151.824 84.5555 151.446 83.2532C154.033 82.5233 154.801 85.3836 154.966 86.3067C155.438 88.9321 157.427 89.8132 158.981 91.2745C160.442 92.6483 160.692 94.369 160.417 96.3159C160.038 98.9888 158.635 100.668 156.17 101.696C155.69 101.896 155.462 102.895 155.276 103.569C154.807 105.267 153.71 105.979 152.563 105.828C151.601 106.005 150.638 106.182 149.501 106.32Z" fill="#BFC6C6" stroke="white" stroke-width="2"/>
<path d="M132.881 88.731C133.973 89.8974 135.066 91.0637 136.246 92.3237C135.01 93.4424 133.882 94.984 131.968 93.0431C131.671 92.7426 131.047 92.7655 130.412 92.6557C127.52 91.4146 124.788 90.1583 122.059 88.8973C121.333 88.5622 120.614 88.2125 119.621 87.866C119.349 87.8626 119.136 87.8508 119.141 87.8595C119.146 87.8683 119.151 87.8489 119.147 87.7174C119.024 87.3526 118.907 87.1193 118.789 86.886C118.889 86.7672 118.989 86.6485 119.262 86.4155C120.076 85.8431 120.716 85.3849 121.356 84.9268C124.495 85.2938 127.518 86.0337 130.318 87.571C130.709 87.7856 131.245 87.7351 131.919 87.9211C132.377 88.2669 132.629 88.499 132.881 88.731Z" fill="#B46428" stroke="white" stroke-width="2"/>
<path d="M25.4033 45.1542C23.8685 45.7156 22.4297 46.0933 20.6556 45.7264C19.4704 45.4813 18.0242 46.4983 16.6949 46.9505C16.7972 47.2113 16.8996 47.4722 16.9315 47.5536C15.594 48.0983 14.2398 48.6498 12.8131 49.2308C11.367 47.0701 10.215 47.0525 8.11015 49.1543C7.14025 50.1227 5.74163 50.6539 4.73044 51.5915C3.90465 52.3572 2.9249 53.3746 2.79324 54.3823C2.53728 56.3414 2.82852 58.372 2.90771 60.5315C2.84183 60.4275 2.84229 60.0682 2.66572 59.9204C2.12086 59.464 1.01162 59.0951 1.00595 58.6801C0.977224 56.5753 1.04016 54.4271 1.47163 52.3784C1.64893 51.5367 2.74484 50.4334 3.57516 50.2815C5.16681 49.9904 5.44511 48.6396 6.36892 47.8453C8.51164 46.003 11.7429 44.508 14.5657 47.4518C14.8966 46.8916 15.2811 46.4045 15.494 45.8514C16.2978 43.7624 17.6942 43.1783 19.9504 43.8504C20.8776 44.1265 21.9069 44.0602 23.1366 44.0114C23.4674 43.7412 23.5513 43.6093 23.6353 43.4774C23.6353 43.4774 23.6368 43.5276 23.7399 43.541C24.0666 43.444 24.2903 43.3335 24.514 43.223C24.5895 43.2041 24.6649 43.1852 24.8563 43.3381C25.1159 44.058 25.2596 44.6061 25.4033 45.1542Z" fill="#ABB5B5" stroke="white" stroke-width="2"/>
<path d="M49.1438 85.7383C49.5009 86.7625 49.8581 87.7867 50.0445 88.9967C46.868 89.7953 44.3819 91.3448 42.1984 93.4401C40.7861 93.3229 39.329 93.3769 37.9787 93.0229C37.2001 92.8188 36.5943 91.9557 35.6582 91.1799C37.4584 90.4214 38.7401 89.8814 40.2984 89.2231C41.2452 88.5419 41.9153 87.979 42.5855 87.416C42.5855 87.416 42.5889 87.4419 42.7037 87.4542C43.0289 87.3325 43.2394 87.1984 43.4499 87.0644C45.0946 86.4125 46.7393 85.7605 48.5062 84.9913C48.6283 84.8739 48.6301 84.8363 48.5032 84.933C48.4577 85.2734 48.5008 85.5433 48.6403 85.7474C48.6923 85.8235 48.9693 85.7459 49.1438 85.7383Z" fill="#B46428" stroke="white" stroke-width="2"/>
<path d="M93.947 117.516C91.8403 117.623 89.8453 117.606 87.7939 117.293C87.8549 114.876 87.9721 112.753 88.1855 110.576C88.6812 109.862 89.0808 109.202 89.4805 108.542C89.4805 108.542 89.4545 108.52 89.6377 108.549C91.0982 108.43 92.3754 108.281 93.6526 108.132C93.7879 111.219 93.9233 114.305 93.947 117.516Z" fill="#B46428" stroke="white" stroke-width="2"/>
<path d="M110.642 12.2147C110.929 9.52845 111.424 6.74511 111.695 3.94015C111.753 3.34676 111.123 2.32344 110.581 2.12419C109.849 1.85552 108.864 2.07874 108.042 2.29476C106.402 2.72542 104.802 3.30913 103.178 3.8005C102.493 4.00758 101.786 4.14094 101.011 4.15678C102.239 3.14239 103.442 1.90307 104.877 1.50891C106.757 0.992619 108.819 1.13729 110.804 1.00949C112.593 0.894272 113.244 1.83367 113.089 3.50814C112.901 5.54504 112.719 7.58249 112.521 9.77095C113.358 9.92144 114.011 10.039 114.746 10.1711C114.746 11.0755 114.746 11.9793 114.746 12.952C113.287 13.155 112.659 9.4282 110.642 12.2147Z" fill="#98A1A1" stroke="white" stroke-width="2"/>
<path d="M113.594 110.839C112.994 111.463 112.355 111.935 111.439 112.422C110.691 111.923 110.25 111.376 109.741 110.902C109.308 110.499 108.797 110.179 108.32 109.823C107.509 109.04 106.343 108.395 105.971 107.442C105.451 106.104 105.523 104.537 105.303 102.758C110.121 103.964 111.514 107.646 113.594 110.839Z" fill="#B46428" stroke="white" stroke-width="2"/>
<path d="M49.6364 42.3259C48.3097 40.9629 47.114 39.6577 45.8174 38.2424C45.9195 37.7622 46.0641 37.0821 46.4577 36.3179C47.8918 36.5437 49.0768 36.8538 50.2618 37.1639C51.1891 38.1318 52.1164 39.0998 53.1701 40.142C53.7658 41.1404 54.235 42.0646 54.8134 43.2421C54.8185 43.8198 54.7144 44.1442 54.6103 44.4685C54.6103 44.4685 54.6273 44.4449 54.4877 44.454C53.471 44.3354 52.5939 44.2076 51.7169 44.0798C51.067 43.5145 50.4172 42.9491 49.6364 42.3259Z" fill="#B46428" stroke="white" stroke-width="2"/>
<path d="M163.368 57.2263C161.655 57.3467 159.846 57.3467 157.216 57.3467C156.732 56.5838 155.954 55.0983 154.921 53.8186C154.195 52.9185 153.178 51.8116 152.186 51.6973C151.293 51.5944 150.256 52.7109 149.288 53.299C148.831 53.5765 148.388 53.8761 147.527 54.4304C148.635 51.9717 149.473 50.1117 150.43 48.4478C150.837 49.1025 151.126 49.5613 151.415 50.02C152.955 50.4999 154.821 50.5997 155.942 51.5655C157.086 52.5521 157.498 54.3886 158.257 55.9062C160.395 54.5635 161.862 55.7245 163.368 57.2263Z" fill="#98A1A1" stroke="white" stroke-width="2"/>
<path d="M92.334 137.641C93.9759 137.164 96.0751 137.066 96.0139 134.496C97.9087 134.407 99.7398 134.628 101.359 134.143C102.538 133.79 104.263 132.539 104.301 131.628C104.4 129.25 105.836 128.025 107.386 126.562C107.629 126.587 107.842 126.704 107.827 126.756C107.223 128.872 107.092 131.365 105.837 132.986C104.588 134.599 102.229 136.193 100.316 136.242C97.7802 136.307 95.9611 138.58 93.4164 137.859C93.1112 137.772 92.7983 137.713 92.334 137.641Z" fill="#ABB5B5" stroke="white" stroke-width="2"/>
<path d="M108.982 99.9089C110.673 97.5338 112.494 95.2216 114.325 92.9171C115.602 91.3093 116.893 89.712 118.387 87.9838C118.782 87.8547 118.967 87.8519 119.152 87.8491C119.152 87.8491 119.147 87.8685 119.134 87.9791C119.126 88.169 119.131 88.2482 119.135 88.3275C120.413 90.0314 119.149 91.364 118.209 92.3885C116.079 94.7113 113.721 96.8329 111.371 98.9423C110.784 99.4694 109.877 99.6404 108.982 99.9089Z" fill="#BFC6C6" stroke="white" stroke-width="2"/>
<path d="M121.189 84.855C120.717 85.3852 120.077 85.8433 119.289 86.3423C118.773 85.8227 118.405 85.2622 117.953 84.5763C118.541 82.7942 119.164 80.9075 120.056 78.8303C120.382 76.5554 120.439 74.471 120.571 72.337C120.72 72.1296 120.793 71.9717 120.866 71.8139C121.049 71.8073 121.232 71.8007 121.579 71.9364C121.884 72.3385 122.026 72.5984 122.168 72.8583C122.726 76.3993 121.974 79.7701 120.905 83.1167C120.748 83.6096 120.973 84.2245 121.189 84.855Z" fill="#ABB5B5" stroke="white" stroke-width="2"/>
<path d="M167.469 70.634C167.132 70.0414 166.862 69.4567 166.821 68.8563C166.708 67.2045 166.1 66.0491 164.363 65.5771C162.836 65.1622 162.566 64.0261 162.965 62.5957C163.341 61.247 163.63 59.874 164.042 58.3703C164.127 58.229 164.274 58.1997 164.274 58.1997C166.206 60.0996 165.405 62.5815 165.623 64.8205C168.656 65.4138 169.436 67.7309 167.469 70.634Z" fill="#ABB5B5" stroke="white" stroke-width="2"/>
<path d="M127.546 101.921C129.298 103.328 130.9 104.689 132.473 106.082C133.089 106.627 133.641 107.241 134.202 107.987C133.274 108.135 132.172 108.447 131.492 108.045C129.126 106.647 126.77 105.121 125.931 102.23C125.745 101.588 125.699 100.905 125.588 100.241C125.836 100.149 126.085 100.057 126.334 99.9648C126.684 100.606 127.034 101.247 127.546 101.921Z" fill="#BFC6C6" stroke="white" stroke-width="2"/>
<path d="M151.397 49.8603C151.127 49.5617 150.838 49.103 150.551 48.5116C151.938 46.7257 151.695 44.9335 150.643 43.3425C148.979 40.8244 148.843 38.0055 148.692 34.981C149.507 36.6532 150.242 38.5171 150.959 40.3882C151.14 40.8622 151.119 41.4962 151.434 41.8235C153.773 44.2556 153.846 46.7437 151.586 49.1201C151.456 49.2564 151.444 49.5043 151.397 49.8603Z" fill="#ABB5B5" stroke="white" stroke-width="2"/>
<path d="M49.05 56.3001C48.1757 56.4723 47.3014 56.6446 46.2637 56.8368C47.2188 54.5451 48.3005 52.214 49.5007 49.9456C49.6583 49.6478 50.4224 49.671 51.0576 49.5146C51.4096 50.0298 51.6095 50.5759 51.7559 51.399C50.9864 53.3138 51.6624 55.7501 49.05 56.3001Z" fill="#75DA9E" stroke="white" stroke-width="2"/>
<path d="M42.2558 22.4022C41.7293 22.8673 41.1808 23.4228 40.5395 23.5679C37.9978 24.143 35.4168 24.5429 32.8709 25.1011C31.2725 25.4515 30.6669 26.6325 30.3941 28.196C30.2451 29.05 29.5721 29.8125 28.9246 30.554C28.5875 30.3999 28.4612 30.3081 28.335 30.2163C29.1121 26.9821 31.0202 24.5839 33.8371 22.8962C34.2776 22.6324 34.869 22.6204 35.624 22.6476C36.3771 22.726 36.8967 22.6488 37.4164 22.5715C37.4164 22.5715 37.5876 22.4967 37.7892 22.4373C38.0845 22.2459 38.1781 22.1139 38.2717 21.9819C38.2717 21.9819 38.2618 22.0377 38.4285 22.0731C39.7725 22.0983 40.9497 22.088 42.1269 22.0778C42.1484 22.1532 42.1698 22.2286 42.2558 22.4022Z" fill="#ABB5B5" stroke="white" stroke-width="2"/>
<path d="M132.45 25.954C132.296 25.6396 132.089 25.34 131.995 25.0086C131.313 22.6178 130.99 20.0458 129.87 17.8862C129.111 16.4244 127.241 15.5396 125.718 14.3716C125.601 14.1357 125.595 13.7565 125.672 13.7386C128.385 13.1124 131.49 16.1138 130.884 18.751C133.544 20.6247 134.033 21.8503 133.359 24.7261C133.298 24.9856 133.603 25.3307 133.631 25.8201C133.166 25.9874 132.808 25.9707 132.45 25.954Z" fill="#ABB5B5" stroke="white" stroke-width="2"/>
<path d="M126.412 125.081C125.895 124.698 125.39 124.142 124.653 123.33C124.8 123.266 124.464 123.433 124.114 123.565C122.941 124.006 122.128 123.731 122.135 122.352C122.142 120.883 122.376 119.411 122.33 117.946C122.302 117.031 123.006 115.602 120.986 115.512C120.845 114.83 120.676 114.01 120.991 113.477C121.167 113.179 122.309 113.12 122.716 113.395C123.047 113.62 122.965 114.5 123.009 115.093C123.178 117.385 123.325 119.678 123.487 122.075C124.857 122.591 128.026 121.401 126.412 125.081Z" fill="#98A1A1" stroke="white" stroke-width="2"/>
<path d="M100.092 4.05029C100.595 5.5857 100.938 7.14894 101.224 8.45178C100.111 9.00875 99.2955 9.68559 98.4028 9.80973C96.3456 10.0958 94.9494 11.2928 93.5281 12.6123C93.3129 12.8121 92.503 12.3715 91.8086 12.1894C94.0309 10.5979 96.4128 9.0441 98.9888 7.36374C98.3989 6.4325 97.7149 4.94055 100.092 4.05029Z" fill="#98A1A1" stroke="white" stroke-width="2"/>
<path d="M49.6379 73.5351C49.1252 73.6289 48.554 73.4933 48.0023 73.5497C47.3071 73.6208 46.6279 73.8488 45.9418 74.0091C46.1553 74.5611 46.5964 75.136 46.5437 75.6614C46.2865 78.2284 49.1447 79.8129 48.5926 82.5975C47.3055 82.4511 45.9008 80.2305 46.141 78.9533C46.2797 78.2159 46.3517 77.4661 46.3943 76.4163C46.0709 76.0308 45.8069 75.9509 45.543 75.871C45.3831 75.1118 45.098 74.3523 45.0996 73.5935C45.1012 72.8768 45.4043 72.1608 45.5416 71.2674C47.2242 71.2261 48.7297 71.7345 49.6379 73.5351Z" fill="#98A1A1" stroke="white" stroke-width="2"/>
<path d="M105.638 29.816C107.348 30.8885 107.822 28.8387 109.04 28.5833C108.55 27.1666 108.093 25.8475 107.573 24.3833C107.509 24.2383 107.498 24.2502 107.498 24.2502C107.973 24.3583 108.447 24.4664 109.066 24.6158C109.13 26.9802 109.208 27.0814 110.813 26.4581C110.132 28.524 109.433 30.692 110.907 33.0338C110.618 33.2357 110.402 33.2568 110.099 33.135C108.577 32.0673 107.14 31.1464 105.715 30.207C105.637 30.1558 105.661 29.9499 105.638 29.816Z" fill="#828E8C" stroke="white" stroke-width="2"/>
<path d="M66.0371 16.9008C65.5632 17.5892 64.9329 18.8505 64.242 18.8846C61.768 19.0066 61.0089 20.9799 59.7332 22.4311C59.4531 22.7497 59.1196 23.0214 58.6683 23.3352C58.4376 19.3766 61.2928 16.8651 66.0371 16.9008Z" fill="#ABB5B5" stroke="white" stroke-width="2"/>
<path d="M161.398 77.9997C161.92 76.1509 164.062 74.5724 162.158 72.6592C163.336 72.8318 164.48 72.9994 165.8 73.202C165.831 74.0397 165.834 74.9092 165.509 75.6317C164.771 77.2749 163.452 78.1442 161.398 77.9997Z" fill="#ABB5B5" stroke="white" stroke-width="2"/>
<path d="M38.2874 108.841C37.3182 109.912 34.8173 110.026 36.4313 112.766C35.3489 113.076 34.421 113.342 33.3351 113.607C33.1176 113.482 33.0582 113.358 32.8975 113.194C33.5144 111.919 34.2839 110.71 34.9382 109.441C35.7529 107.861 37.0563 108.876 38.2874 108.841Z" fill="#828E8C" stroke="white" stroke-width="2"/>
<path d="M132.89 88.5781C132.63 88.4993 132.378 88.2673 132.066 87.9178C131.89 87.1971 132.929 86.6611 131.5 85.9027C130.254 85.2412 131.509 83.5486 132.506 82.7265C133.226 82.1336 134.214 81.8672 135.242 81.4639C133.422 83.3781 132.632 85.7114 132.89 88.5781Z" fill="#ABB5B5" stroke="white" stroke-width="2"/>
<path d="M91.4513 12.5483C92.5215 14.3202 93.4437 16.0763 94.321 17.7467C94.2814 17.7467 93.7678 17.7467 93.0892 17.7591C92.0211 16.9612 91.0476 16.2139 90.2438 15.3148C89.8246 14.8458 89.346 13.9351 89.5393 13.5379C89.7838 13.0356 90.6853 12.853 91.4513 12.5483Z" fill="#828E8C" stroke="white" stroke-width="2"/>
<path d="M83.724 16.7613C82.9762 16.5051 82.0479 16.2536 81.3793 15.6926C79.903 14.4537 78.2993 14.0671 76.2754 14.4012C76.5263 13.8996 76.9085 13.1601 77.4003 13.0781C79.6889 12.6964 82.6516 14.4561 83.724 16.7613Z" fill="#98A1A1" stroke="white" stroke-width="2"/>
<path d="M137.709 71.3154C138.967 70.5684 140.303 69.9295 141.801 69.2363C142.497 69.6798 143.029 70.1774 143.417 70.5398C141.911 71.2195 140.553 71.8324 139.034 72.4713C138.511 72.1393 138.148 71.7813 137.709 71.3154Z" fill="#828E8C" stroke="white" stroke-width="2"/>
<path d="M120.139 17.4421C119.255 18.4274 118.245 19.4597 117.136 20.3724C116.779 20.666 116.163 20.6446 115.5 20.7463C115.312 19.365 117.924 16.3712 119.071 16.5507C119.41 16.6038 119.675 17.1321 120.139 17.4421Z" fill="#ABB5B5" stroke="white" stroke-width="2"/>
<path d="M90.5916 19.5331C90.4343 20.0932 90.1282 20.6202 89.7052 21.3484C90.5562 21.9406 91.4546 22.5658 92.3445 23.434C91.3254 24.4459 90.508 22.4952 89.4823 23.4743C88.3884 23.2562 87.9288 22.7342 88.2969 21.5368C88.5139 20.8309 88.416 20.0283 88.5245 19.0869C89.2072 19.103 89.8249 19.3014 90.5916 19.5331Z" fill="#828E8C" stroke="white" stroke-width="2"/>
<path d="M62.5126 39.7505C60.5258 40.8708 58.3748 41.9799 56.0573 43.1267C55.6741 41.9783 56.4493 41.6449 57.3714 41.3624C59.0396 40.8512 60.6904 40.2834 62.5126 39.7505Z" fill="#CCD7D6" stroke="white" stroke-width="2"/>
<path d="M122.347 72.8396C122.026 72.5986 121.884 72.3387 121.711 71.9795C125.174 71.6206 128.669 71.361 132.352 71.1445C130.468 71.5927 128.399 72.034 126.317 72.3891C125.065 72.6025 123.791 72.6814 122.347 72.8396Z" fill="#828E8C" stroke="white" stroke-width="2"/>
<path d="M146.646 31.3585C145.001 31.6183 143.313 31.6047 141.663 31.8476C140.481 32.0214 140.139 31.5474 140.138 30.3847C141.885 30.2072 143.57 30.1184 145.242 30.2258C145.72 30.2564 146.161 30.856 146.646 31.3585Z" fill="#98A1A1" stroke="white" stroke-width="2"/>
<path d="M74.4393 15.0485C73.8936 15.4124 73.239 15.7789 72.5569 15.8402C70.8728 15.9916 69.176 16.003 67.3086 16.0509C69.0078 14.1755 72.1772 13.682 74.4393 15.0485Z" fill="#98A1A1" stroke="white" stroke-width="2"/>
<path d="M28.1686 30.2319C28.4606 30.3083 28.5869 30.4001 28.7733 30.5931C28.5532 31.0252 28.2728 31.3561 27.8187 31.8507C25.0299 33.4712 26.9983 35.3997 27.1178 37.1379C27.1185 37.6009 27.1192 38.0639 27.1148 38.7008C26.2308 38.5225 25.5883 38.0885 25.7976 36.9229C26.1492 34.964 26.3192 32.9713 26.7081 31.0212C26.7741 30.6903 27.5533 30.5017 28.1686 30.2319Z" fill="#CCD7D6" stroke="white" stroke-width="2"/>
<path d="M124.513 135.994C124.473 134.098 124.447 132.193 124.746 130.342C124.97 128.952 125.613 127.63 126.212 126.249C126.027 128.539 125.728 130.863 125.359 133.175C125.206 134.133 124.902 135.066 124.513 135.994Z" fill="#828E8C" stroke="white" stroke-width="2"/>
<path d="M23.643 104.805C26.1213 105.174 25.7022 107.435 26.3383 109.198C24.1916 108.335 23.1588 106.654 23.643 104.805Z" fill="#ABB5B5" stroke="white" stroke-width="2"/>
<path d="M37.4063 83.8543C35.8951 83.1271 34.3839 82.3999 32.7818 81.4059C32.697 80.8174 32.7031 80.4956 32.7092 80.1738C34.6406 80.6146 36.2249 81.5861 37.3777 83.4532C37.382 83.6823 37.4063 83.8543 37.4063 83.8543Z" fill="#BFC6C6" stroke="white" stroke-width="2"/>
<path d="M37.4462 84.005C37.407 83.8547 37.3827 83.6827 37.4233 83.606C38.7451 84.6365 40.0193 85.7521 41.3131 86.8446C41.5951 87.0827 41.9469 87.2382 42.4264 87.4239C41.9161 87.979 41.246 88.5419 40.412 89.1291C40.5007 86.8387 38.7916 85.6084 37.4462 84.005Z" fill="#828E8C" stroke="white" stroke-width="2"/>
<path d="M31.1039 48.6198C30.3847 48.1292 29.5847 47.4875 28.76 46.8793C28.1492 46.4288 27.5063 46.0219 26.7977 45.3407C26.6985 44.7533 26.6793 44.4209 26.6602 44.0884C29.5883 44.0901 29.9528 46.6309 31.1039 48.6198Z" fill="#98A1A1" stroke="white" stroke-width="2"/>
<path d="M50.5402 21.6814C49.7974 21.7744 48.8794 21.9343 47.9645 21.9179C46.5855 21.8931 45.2087 21.7452 43.6348 21.6512C44.9446 19.9689 46.5546 19.6737 48.4455 21.1112C48.9409 21.4878 49.7184 21.4934 50.5402 21.6814Z" fill="#ABB5B5" stroke="white" stroke-width="2"/>
<path d="M32.5165 80.1411C32.7034 80.4959 32.6973 80.8177 32.6829 81.3003C31.0903 81.6467 29.509 81.8948 27.9193 81.9759C27.5011 81.9972 27.0566 81.502 26.6602 81.0998C28.5719 80.6732 30.4477 80.3906 32.5165 80.1411Z" fill="#98A1A1" stroke="white" stroke-width="2"/>
<path d="M111.208 122.299C112.176 123.155 112.994 124.068 113.812 124.981C114.006 124.875 114.2 124.768 114.394 124.661C114.159 124.978 113.924 125.295 113.6 125.707C112.63 125.47 111.739 125.16 110.869 124.8C109.73 124.328 109.814 123.323 111.208 122.299Z" fill="#98A1A1" stroke="white" stroke-width="2"/>
<path d="M25.3993 73.293C25.7342 73.3952 26.0691 73.4975 26.5647 73.789C26.7453 74.1752 26.765 74.3722 26.7847 74.5692C25.9857 75.4275 25.1867 76.2857 24.2213 77.1344C24.2102 76.7083 24.3656 76.2917 24.6611 75.6144C25.0005 74.6667 25.1999 73.9798 25.3993 73.293Z" fill="#98A1A1" stroke="white" stroke-width="2"/>
<path d="M34.3112 119.263C34.3294 121.214 35.7791 120.27 36.7935 120.496C36.6769 120.981 36.441 121.711 36.0911 121.77C35.1082 121.938 34.0784 121.829 32.3936 121.829C33.2244 120.623 33.6911 119.946 34.3112 119.263Z" fill="#98A1A1" stroke="white" stroke-width="2"/>
<path d="M108.337 109.985C108.797 110.18 109.308 110.499 109.741 110.902C110.25 111.377 110.691 111.923 111.282 112.422C111.363 113.286 111.907 114.47 110.137 114.534C109.727 113.745 109.501 112.938 109.213 112.154C108.963 111.472 108.643 110.816 108.337 109.985Z" fill="#98A1A1" stroke="white" stroke-width="2"/>
<path d="M93.6691 107.964C92.3743 108.281 91.0971 108.43 89.6514 108.557C90.2524 106.625 91.9041 106.57 93.7011 106.69C93.7718 107.13 93.7293 107.464 93.6691 107.964Z" fill="#98A1A1" stroke="white" stroke-width="2"/>
<path d="M140.217 30.0862C138.981 29.6044 137.738 28.9682 136.398 28.2218C136.734 27.8795 137.404 27.343 137.56 27.4649C138.509 28.2037 139.34 29.0928 140.217 30.0862Z" fill="#98A1A1" stroke="white" stroke-width="2"/>
<path d="M132.494 26.094C132.809 25.9706 133.167 25.9873 133.7 25.9648C134.52 26.5555 135.165 27.1853 135.844 27.9555C135.46 28.3569 135.043 28.618 134.643 28.8677C133.913 27.9542 133.225 27.0942 132.494 26.094Z" fill="#828E8C" stroke="white" stroke-width="2"/>
<path d="M51.7744 44.2223C52.5942 44.2078 53.4713 44.3355 54.5012 44.4481C54.0344 45.154 53.4148 45.8751 52.6693 46.6727C52.3062 45.9543 52.0689 45.1595 51.7744 44.2223Z" fill="#CCD7D6" stroke="white" stroke-width="2"/>
<path d="M30.167 74.2857C31.0006 71.9442 33.1069 73.4892 34.7098 72.854C34.1106 73.1869 33.3658 73.5654 32.5812 73.8224C31.835 74.0667 31.0471 74.184 30.167 74.2857Z" fill="#1F4F32" stroke="white" stroke-width="2"/>
<path d="M26.517 44.0101C26.6797 44.4212 26.6988 44.7536 26.6871 45.2498C26.3408 45.3587 26.0254 45.3039 25.5568 45.2018C25.2598 44.6063 25.1162 44.0581 24.9697 43.3667C25.4358 43.4594 25.9046 43.6955 26.517 44.0101Z" fill="#BFC6C6" stroke="white" stroke-width="2"/>
<path d="M42.1062 21.9102C40.9497 22.0884 39.7725 22.0986 38.4014 22.0653C39.4387 21.076 40.7129 20.7266 42.1062 21.9102Z" fill="#CCD7D6" stroke="white" stroke-width="2"/>
<path d="M19.6232 83.1304C20.0869 84.5923 19.2142 84.9046 17.8457 84.8799C18.2716 84.2926 18.8681 83.7202 19.6232 83.1304Z" fill="#828E8C" stroke="white" stroke-width="2"/>
<path d="M111.421 120.343C112.163 120.857 113.95 121.444 111.499 122.336C111.374 121.67 111.395 121.093 111.421 120.343Z" fill="#98A1A1" stroke="white" stroke-width="2"/>
<path d="M21.3295 81.7741C21.0166 82.3071 20.5315 82.7982 19.9094 83.2052C19.5197 81.9457 20.2443 81.7449 21.3295 81.7741Z" fill="#828E8C" stroke="white" stroke-width="2"/>
<path d="M34.1475 66.5498C35.0617 66.5859 36.1017 66.7101 37.3183 66.8576C37.4571 67.0085 37.3864 67.1138 37.1998 67.2448C36.1691 67.0745 35.2212 66.8562 34.1475 66.5498Z" fill="#1F4F32" stroke="white" stroke-width="2"/>
<path d="M26.9611 74.5749C26.7643 74.372 26.7445 74.175 26.6914 73.833C27.4591 73.9085 28.2603 74.129 29.1695 74.4599C28.5645 74.5739 27.8513 74.5774 26.9611 74.5749Z" fill="#1F4F32" stroke="white" stroke-width="2"/>
<path d="M37.2482 22.5495C36.8968 22.6494 36.3771 22.7266 35.791 22.6845C36.1763 22.5524 36.6282 22.5396 37.2482 22.5495Z" fill="#CCD7D6" stroke="white" stroke-width="2"/>
<path d="M54.7489 44.4372C54.7147 44.1447 54.8188 43.8204 54.8883 43.3713C55.0938 43.2278 55.3339 43.209 55.7505 43.1587C55.5805 43.5532 55.2339 43.9793 54.7489 44.4372Z" fill="#CCD7D6" stroke="white" stroke-width="2"/>
<path d="M35.0303 72.846C35.2327 72.5719 35.5747 72.2793 36.0746 71.9937C35.8784 72.2762 35.5241 72.5518 35.0303 72.846Z" fill="#1F4F32" stroke="white" stroke-width="2"/>
<path d="M37.5789 71.0181C37.4561 70.6231 37.4514 70.1325 37.4614 69.457C37.5497 69.8223 37.6233 70.3724 37.5789 71.0181Z" fill="#1F4F32" stroke="white" stroke-width="2"/>
<path d="M54.6094 123.967C54.9129 123.945 55.2165 123.923 55.7211 123.943C55.7396 124.092 55.5569 124.199 55.2675 124.324C55.1013 124.277 55.0419 124.211 54.8347 124.071C54.6869 123.997 54.6094 123.967 54.6094 123.967Z" fill="#828E8C" stroke="white" stroke-width="2"/>
<path d="M48.892 84.3838C49.2368 84.4436 49.4609 84.5505 49.6849 84.6575C49.5447 84.7642 49.4044 84.8709 49.037 84.9356C48.8099 84.8936 48.6309 84.836 48.6309 84.836C48.6309 84.836 48.6291 84.8736 48.6478 84.8755C48.7014 84.7285 48.7363 84.5797 48.892 84.3838Z" fill="#CCD7D6" stroke="white" stroke-width="2"/>
<path d="M26.6775 80.8069C26.3132 80.9331 25.9202 80.9025 25.4648 80.7264C25.8179 80.6039 26.2334 80.627 26.6775 80.8069Z" fill="#98A1A1" stroke="white" stroke-width="2"/>
<path d="M75.9861 14.3213C75.9287 14.4796 75.7282 14.6475 75.3691 14.7967C75.4214 14.629 75.6322 14.4799 75.9861 14.3213Z" fill="#98A1A1" stroke="white" stroke-width="2"/>
<path d="M111.654 26.0513C111.564 26.1319 111.355 26.2272 111.035 26.3566C111.128 26.2825 111.331 26.1742 111.654 26.0513Z" fill="#828E8C" stroke="white" stroke-width="2"/>
<path d="M24.3759 43.187C24.2902 43.3332 24.0665 43.4437 23.7148 43.5376C23.8039 43.3978 24.0209 43.2745 24.3759 43.187Z" fill="#BFC6C6" stroke="white" stroke-width="2"/>
<path d="M43.3157 87.0454C43.2401 87.1984 43.0296 87.3324 42.6914 87.4525C42.7694 87.3012 42.9751 87.1638 43.3157 87.0454Z" fill="#828E8C" stroke="white" stroke-width="2"/>
<path d="M45.6055 75.9964C45.8071 75.9506 46.071 76.0305 46.401 76.2394C46.2007 76.2863 45.9343 76.2042 45.6055 75.9964Z" fill="#75DA9E" stroke="white" stroke-width="2"/>
<path d="M147.047 31.8442C146.907 31.8938 146.759 31.829 146.634 31.6364C146.784 31.5824 146.911 31.656 147.047 31.8442Z" fill="#98A1A1" stroke="white" stroke-width="2"/>
<path d="M54.619 123.984C54.6091 123.967 54.6867 123.997 54.7068 124.033C54.727 124.069 54.6786 124.098 54.6521 124.089C54.6256 124.079 54.629 124 54.619 123.984Z" fill="#194C2E" stroke="white" stroke-width="2"/>
<path d="M21.8622 81.2886C21.8919 81.3641 21.8232 81.546 21.6211 81.786C21.5797 81.6943 21.6718 81.5446 21.8622 81.2886Z" fill="#828E8C" stroke="white" stroke-width="2"/>
<path d="M38.1589 22.0361C38.1774 22.1142 38.0838 22.2462 37.8819 22.4353C37.8647 22.3583 37.9557 22.2242 38.1589 22.0361Z" fill="#CCD7D6" stroke="white" stroke-width="2"/>
<path d="M37.1422 71.5913C37.1126 71.517 37.1852 71.384 37.3536 71.1875C37.3811 71.2602 37.3128 71.3964 37.1422 71.5913Z" fill="#1F4F32" stroke="white" stroke-width="2"/>
<path d="M92.8089 18.1846C92.8309 18.2534 92.7579 18.3897 92.5825 18.5814C92.5581 18.5086 92.636 18.3803 92.8089 18.1846Z" fill="#828E8C" stroke="white" stroke-width="2"/>
<path d="M119.244 88.2948C119.131 88.2481 119.126 88.1688 119.13 87.9702C119.137 87.8509 119.351 87.8627 119.457 87.8725C119.493 88.009 119.423 88.1356 119.244 88.2948Z" fill="#ABB5B5" stroke="white" stroke-width="2"/>
<path d="M66.5677 16.5024C66.6237 16.6714 66.5559 16.8476 66.3439 16.97C66.2812 16.7806 66.3626 16.6452 66.5677 16.5024Z" fill="#ABB5B5" stroke="white" stroke-width="2"/>
<path d="M164.239 58.0861C164.274 58.1997 164.127 58.229 164.052 58.2276C163.933 58.1406 163.889 58.055 163.838 57.8247C163.956 57.7774 164.08 57.8749 164.239 58.0861Z" fill="#98A1A1" stroke="white" stroke-width="2"/>
<path d="M23.5266 43.5337C23.5508 43.6091 23.4668 43.741 23.2837 43.9363C23.2625 43.8633 23.3405 43.7267 23.5266 43.5337Z" fill="#BFC6C6" stroke="white" stroke-width="2"/>
<path d="M101.553 27.5819C100.307 30.8345 99.0421 33.9368 97.8963 37.1291C98.0151 37.3571 97.9999 37.4935 97.8135 37.7804C95.9164 38.8484 95.2583 37.7786 94.7336 36.3238C94.6806 36.2805 94.592 36.1777 94.5293 36.0464C94.5401 35.0933 94.4944 34.2389 94.7086 33.4556C95.4592 30.7105 96.2993 27.9899 97.1055 25.26C97.977 23.7827 98.8484 22.3054 99.9048 20.6485C100.836 20.3137 101.583 20.1586 102.33 20.0034C102.065 22.4795 101.799 24.9555 101.553 27.5819Z" fill="#B46428" stroke="white" stroke-width="2"/>
<path d="M107.471 41.3677C108.545 39.9709 109.62 38.5741 110.885 37.1644C111.174 36.9911 111.273 36.8308 111.372 36.6705C111.372 36.6705 111.372 36.6998 111.511 36.7098C112.473 35.8348 113.297 34.9499 114.121 34.065C115.303 33.6827 116.478 33.2721 117.679 32.9621C117.798 32.9313 118.076 33.5138 118.111 34.0374C117.561 34.9219 117.241 35.6262 116.789 36.2318C114.699 39.0328 112.571 41.8063 110.353 44.6696C109.751 44.8656 109.255 44.9816 108.758 45.0976C108.758 45.0976 108.613 44.9935 108.523 44.7941C108.112 43.519 107.792 42.4434 107.471 41.3677Z" fill="#B46428" stroke="white" stroke-width="2"/>
<path d="M67.3467 117.508C67.6012 116.598 68.0837 115.763 68.3384 114.864C68.9665 112.646 69.5072 110.403 70.0347 108.159C70.1044 107.863 69.8925 107.5 69.7504 107.031C71.6346 106.057 73.1645 106.556 74.4009 108.444C74.2998 110.057 74.6993 111.605 73.4184 112.965C72.8018 113.619 73.0135 114.993 72.6461 115.963C72.3692 116.695 71.7678 117.303 71.1476 118.015C69.8132 117.894 68.6421 117.724 67.3467 117.508Z" fill="#B46428" stroke="white" stroke-width="2"/>
<path d="M119.456 60.8283C118.752 61.0363 118.047 61.239 117.346 61.4535C116.268 61.7828 115.206 62.1713 114.112 62.4299C113.657 62.5375 113.132 62.3074 112.649 62.3479C110.454 62.532 108.31 62.6421 106.311 61.3652C104.726 60.352 103.011 60.2317 101.141 61.1913C102.208 59.1214 104.134 58.8367 106.354 59.6587C108.279 60.3719 110.461 60.6799 112.521 60.6484C114.014 60.6256 116.026 61.3322 116.965 59.2143C117.921 57.057 115.727 56.4444 115.011 55.1021C114.661 54.4445 114.563 53.652 114.469 52.6605C114.403 51.9826 114.276 51.5258 114.023 51.1541C113.17 49.8983 112.272 48.6728 111.554 47.4448C114.235 48.369 114.691 50.9514 116.067 52.7942C116.563 53.4576 117.279 53.9564 117.946 54.6666C118.345 55.1678 118.693 55.5326 119.051 56.0679C119.021 56.752 118.901 57.2746 118.958 57.7773C119.073 58.8 119.284 59.8119 119.456 60.8283Z" fill="#ABB5B5" stroke="white" stroke-width="2"/>
<path d="M62.3119 103.161C61.0672 104.515 59.815 105.732 58.3419 107.105C57.6746 107.757 57.2281 108.252 56.7815 108.747C55.6129 108.595 54.4443 108.442 53.1328 108.036C53.3819 106.854 53.7739 105.925 54.1659 104.996C55.577 103.528 56.9881 102.06 58.461 100.458C59.4383 101.707 61.8455 101.001 62.3119 103.161Z" fill="#B46428" stroke="white" stroke-width="2"/>
<path d="M86.0187 73.2451C83.937 74.2484 81.728 75.0589 79.8175 76.3213C78.4981 77.1931 77.5622 78.6652 76.5166 79.9204C76.1697 80.3368 75.7006 81.0148 75.8251 81.3989C76.4174 83.2263 76.4266 84.9415 75.4553 86.634C75.4286 86.6805 75.7239 86.9117 76.01 87.2508C76.8629 89.0138 77.5748 90.5828 78.2866 92.1517C77.6872 91.7213 76.9767 91.3854 76.5127 90.8398C75.6966 89.8799 75.0313 88.7919 74.4531 87.971C74.5823 86.2336 74.9652 84.5598 74.7649 82.959C74.466 80.5702 75.6148 78.8578 76.9377 77.2326C77.9068 76.0419 79.1452 75.0474 80.366 74.0972C80.7701 73.7827 81.4986 73.9015 82.0698 73.7804C82.5634 73.6758 83.0444 73.5118 83.8119 73.3099C84.7348 73.2456 85.3768 73.2453 86.0187 73.2451Z" fill="#BFC6C6" stroke="white" stroke-width="2"/>
<path d="M94.7861 36.3672C95.2578 37.7787 95.9159 38.8485 97.7919 37.8813C97.6804 39.5268 98.5682 40.515 100.139 41.2622C100.282 41.522 100.358 41.631 100.5 41.6921C100.494 41.9221 100.488 42.1521 100.36 42.6208C100.078 43.1019 99.9193 43.3443 99.7701 43.5885C99.7801 43.5903 99.781 43.57 99.6781 43.6136C99.494 43.7778 99.4127 43.8984 99.3411 44.0195C99.3508 44.02 99.3496 44.0005 99.2244 44.071C99.0342 44.3169 98.9693 44.4923 98.8642 44.6922C98.8241 44.7168 98.7088 44.8642 98.5643 44.8816C98.2939 45.0351 98.1679 45.1712 98.0493 45.3053C98.0566 45.3034 98.046 45.2926 97.8925 45.2605C96.9329 45.6058 96.1269 45.9832 95.0935 46.467C95.786 44.4515 99.1535 44.3822 97.9253 41.5369C96.506 42.7078 95.1567 43.821 93.7718 44.8976C93.7361 44.8611 93.6621 44.7907 93.6711 44.6346C95.3948 42.8743 94.174 40.9548 94.2074 39.1755C94.2093 39.0754 93.6346 38.9644 93.3262 38.856C93.3242 38.8535 93.3198 38.85 93.3749 38.7157C93.8821 37.8433 94.3341 37.1052 94.7861 36.3672ZM96.1389 40.9871C96.2757 40.8478 96.4126 40.7085 96.5494 40.5692C96.3924 40.5021 96.2353 40.4351 96.0783 40.3681C96.0201 40.5722 95.962 40.7763 96.1389 40.9871ZM99.2775 41.9758C99.3005 42.0525 99.3235 42.1292 99.3464 42.2059C99.3721 42.1275 99.3979 42.0491 99.2775 41.9758Z" fill="#CCD7D6" stroke="white" stroke-width="2"/>
<path d="M78.3832 57.9989C76.9426 58.7494 76.1794 58.4088 75.2498 57.056C74.8059 56.41 73.7752 56.1936 73.2287 55.5862C72.1308 54.3657 71.1001 53.0625 70.2266 51.6768C69.9868 51.2964 70.4025 50.5029 70.5184 49.8936C68.7077 49.9342 68.0547 47.7184 69.2572 45.0671C69.4756 44.8968 69.5541 44.8922 69.6653 45.0476C69.9905 46.1321 70.283 47.0565 70.6421 48.1004C71.0246 49.232 71.0752 50.4747 71.7121 51.2083C73.0238 52.7188 74.6487 53.9574 76.1755 55.4395C76.8945 56.005 77.5827 56.439 78.2755 57.0615C78.3144 57.4997 78.3488 57.7493 78.3832 57.9989Z" fill="#ABB5B5" stroke="white" stroke-width="2"/>
<path d="M58.6614 94.3243C56.3938 91.1402 54.1622 87.9949 52.2044 84.6876C51.5316 83.551 51.5429 82.0095 51.248 80.484C51.6717 80.336 52.0889 80.357 52.0866 80.3569C53.2016 82.8576 54.1944 85.0842 55.4911 87.9923C57.1241 88.5394 58.3619 90.6029 59.4164 92.7678C59.5783 93.1003 59.0265 93.7803 58.6614 94.3243Z" fill="#BFC6C6" stroke="white" stroke-width="2"/>
<path d="M78.2838 92.1594C77.5751 90.5827 76.8633 89.0138 76.1484 87.3001C76.8403 86.7173 77.5351 86.2793 78.5072 85.6665C78.4425 87.0723 78.3922 88.1634 78.3294 89.5268C79.0394 89.3915 79.5988 89.285 80.2952 89.1524C80.2588 89.7312 80.2217 90.3202 80.1762 91.0434C80.974 91.0434 81.6423 91.0434 81.9562 91.0434C82.5817 93.2581 83.1651 95.3235 83.584 97.5625C83.164 97.7309 82.9086 97.7258 82.6531 97.7206C82.6531 97.7206 82.5717 97.5774 82.5513 97.3609C82.299 96.9041 82.067 96.6639 81.835 96.4237C81.835 96.4237 81.7662 96.3921 81.7334 96.2299C81.3174 95.7585 80.9342 95.4493 80.551 95.14C80.551 95.14 80.4399 95.016 80.4088 94.7972C80.1349 94.3426 79.8922 94.1067 79.6495 93.8709C79.631 93.7981 79.6125 93.7252 79.5663 93.3991C79.1239 92.8172 78.7093 92.4887 78.2947 92.1601C78.2947 92.1601 78.2807 92.1671 78.2838 92.1594Z" fill="#CCD7D6" stroke="white" stroke-width="2"/>
<path d="M101.573 56.0972C101.314 58.2859 99.7893 59.6106 97.6312 59.534C96.9237 59.5088 96.2152 59.5122 95.1647 59.5078C94.4687 59.6609 94.115 59.8088 93.7614 59.9566C93.7614 59.9566 93.792 59.9444 93.6077 59.9373C92.5805 60.0242 91.7295 60.2393 90.8968 60.1832C89.6831 60.1015 88.4826 59.8246 87.3848 59.551C87.7218 59.3381 87.9504 59.2052 88.3114 59.1368C89.1814 59.1484 89.9191 59.0953 90.7156 59.1079C90.9077 59.1315 91.041 59.0895 91.1762 59.0558C91.1781 59.0642 91.1613 59.0606 91.2603 59.0153C91.4417 58.853 91.5241 58.7359 91.6057 58.6273C91.6051 58.6359 91.5889 58.6306 91.7113 58.5879C93.0891 58.1907 94.3445 57.8364 95.6286 57.4738C96.5004 58.9921 97.6958 58.243 99.0068 57.7534C99.5009 57.3191 99.8473 56.9036 100.195 56.4827C100.196 56.4773 100.204 56.4699 100.337 56.4155C100.838 56.2731 101.205 56.1851 101.573 56.0972Z" fill="#ABB5B5" stroke="white" stroke-width="2"/>
<path d="M82.6094 97.8451C82.9089 97.7258 83.1644 97.731 83.543 97.7222C85.1043 99.0277 85.7476 101.054 87.691 101.965C88.8095 102.49 88.82 105.53 87.6341 107.083C87.2939 107.216 87.1883 107.221 87.0827 107.225C88.274 104.227 86.346 102.601 84.4296 100.848C83.6133 100.102 83.1752 98.9416 82.6094 97.8451Z" fill="#ABB5B5" stroke="white" stroke-width="2"/>
<path d="M101.687 56.0213C101.205 56.1849 100.837 56.2729 100.33 56.235C100.481 54.943 100.772 53.7768 101.165 52.6158C101.372 52.5509 101.478 52.4807 101.583 52.4106C101.409 52.3355 101.234 52.2603 101.077 52.0481C101.512 51.1731 101.93 50.4353 102.377 49.5266C102.56 48.6761 102.714 47.9965 102.868 47.3169C103.108 48.3486 103.543 49.3816 103.537 50.4118C103.529 51.6171 103.219 52.8437 102.881 54.0148C102.681 54.7049 102.171 55.3051 101.687 56.0213Z" fill="#BFC6C6" stroke="white" stroke-width="2"/>
<path d="M111.391 47.4358C112.272 48.6728 113.17 49.8984 114.023 51.1541C114.276 51.5258 114.403 51.9826 114.498 52.4885C111.074 51.3548 109.926 48.3786 108.729 45.2812C109.255 44.9816 109.751 44.8656 110.348 44.8032C110.613 45.4612 110.779 46.0654 110.987 46.7444C111.099 46.9153 111.187 46.9864 111.323 47.1325C111.35 47.2326 111.391 47.4358 111.391 47.4358Z" fill="#CCD7D6" stroke="white" stroke-width="2"/>
<path d="M72.0175 36.8618C72.725 36.577 73.5335 36.6058 74.0354 36.2277C75.5293 35.1022 77.107 35.2767 78.8796 35.8302C77.981 36.6271 76.9014 37.7505 75.9234 37.6681C73.475 37.4618 72.0947 39.1299 70.2993 40.123C70.2746 40.1096 70.2207 40.0934 70.2207 40.0934C70.8066 39.0587 71.3925 38.024 72.0175 36.8618Z" fill="#CCD7D6" stroke="white" stroke-width="2"/>
<path d="M98.7097 44.8646C98.7097 44.8646 98.8249 44.7172 98.9587 44.5943C99.1784 44.3146 99.2644 44.1578 99.3504 44.0009C99.3504 44.0009 99.3517 44.0204 99.4469 43.9794C99.622 43.8157 99.7019 43.6931 99.7818 43.5704C99.7818 43.5704 99.781 43.5907 99.953 43.5827C100.356 43.5016 100.588 43.4285 100.819 43.3555C102.041 43.9824 103.557 44.4057 102.689 46.4387C101.963 46.229 101.648 44.9969 100.632 46.1507C99.924 46.3978 99.3747 46.6416 98.9112 46.8474C98.5965 46.2815 98.3217 45.7873 98.0469 45.2931C98.0469 45.2931 98.0574 45.3038 98.1743 45.2538C98.4307 45.0907 98.5702 44.9777 98.7097 44.8646Z" fill="#BFC6C6" stroke="white" stroke-width="2"/>
<path d="M78.5316 57.9663C78.3472 57.7488 78.3128 57.4991 78.4403 57.0747C79.3519 57.1166 80.1016 57.3332 80.9434 57.6455C81.5849 58.1437 82.1341 58.5461 82.6141 58.8977C83.2459 58.6117 83.7496 58.3838 84.4104 58.2224C85.3496 58.4107 86.1317 58.5323 86.9041 58.7976C86.8815 59.1332 86.8686 59.3251 86.6912 59.5239C86.3069 59.5424 86.0872 59.5541 85.8675 59.5657C85.0916 59.6146 84.305 59.599 83.542 59.7257C81.9248 59.9942 80.251 60.5545 79.6185 58.218C79.5733 58.0511 79.0061 58.0255 78.5316 57.9663Z" fill="#98A1A1" stroke="white" stroke-width="2"/>
<path d="M86.1549 73.1821C85.3763 73.2451 84.7343 73.2453 83.9395 73.2416C84.5354 72.6635 85.2066 71.809 86.0499 71.5752C87.6829 71.1225 89.4129 71.0193 91.2232 70.894C89.6596 71.7176 87.9755 72.4185 86.1549 73.1821Z" fill="#CCD7D6" stroke="white" stroke-width="2"/>
<path d="M70.0897 40.1749C70.2201 40.0931 70.274 40.1094 70.3141 40.2664C70.2765 41.2358 70.1987 42.0482 70.1127 43.0128C69.9468 43.7391 69.7891 44.3133 69.6313 44.8874C69.5527 44.8919 69.4742 44.8965 69.2779 44.9122C68.6772 44.9234 68.1941 44.9234 67.4258 44.9234C68.7414 43.3887 67.6223 40.9577 70.0897 40.1749Z" fill="#BFC6C6" stroke="white" stroke-width="2"/>
<path d="M100.789 46.1474C101.647 44.9968 101.962 46.2289 102.605 46.5643C102.759 46.7542 102.794 46.9142 102.849 47.1958C102.714 47.9969 102.56 48.6765 102.252 49.4483C101.494 47.5877 99.9881 49.4711 98.9688 48.8897C99.6152 47.9158 100.202 47.0316 100.789 46.1474Z" fill="#CCD7D6" stroke="white" stroke-width="2"/>
<path d="M86.9684 107.291C87.1876 107.221 87.2932 107.216 87.5572 107.207C88.1996 107.632 88.6838 108.062 89.3238 108.517C89.08 109.202 88.6804 109.862 88.1847 110.576C88.0305 110.233 88.0655 109.539 87.8989 109.486C86.9683 109.194 85.9889 109.057 84.8945 108.879C85.4602 108.38 86.1575 107.868 86.9684 107.291Z" fill="#98A1A1" stroke="white" stroke-width="2"/>
<path d="M107.315 41.388C107.791 42.4434 108.112 43.5191 108.498 44.7572C107.082 43.8297 105.602 42.7398 104.095 41.4963C105.097 41.3646 106.128 41.3865 107.315 41.388Z" fill="#ABB5B5" stroke="white" stroke-width="2"/>
<path d="M57.6189 99.2817C55.3022 99.4592 54.3958 98.3982 54.9989 96.1956C55.129 95.9332 55.2414 95.8373 55.4588 95.7061C56.2522 96.8224 56.9406 97.9742 57.6189 99.2817Z" fill="#BFC6C6" stroke="white" stroke-width="2"/>
<path d="M50.9398 77.9299C48.7977 77.0347 48.5872 76.3617 49.735 74.0762C50.2653 75.2547 50.6671 76.5405 50.9398 77.9299Z" fill="#828E8C" stroke="white" stroke-width="2"/>
<path d="M49.1943 56.3509C51.6621 55.7502 50.986 53.3139 51.7627 51.543C52.0275 52.4937 52.6986 53.8021 52.3137 54.6031C51.8628 55.5414 51.1631 57.231 49.1943 56.3509Z" fill="#BFC6C6" stroke="white" stroke-width="2"/>
<path d="M85.9414 59.7135C86.0878 59.5545 86.3076 59.5428 86.7985 59.5464C87.1385 59.5847 87.2073 59.6078 87.2761 59.6308C88.4823 59.8245 89.6827 60.1014 90.8964 60.1831C91.7292 60.2392 92.5802 60.0241 93.6132 59.9527C93.5401 60.2798 93.2438 60.8711 93.019 60.8451C90.6776 60.574 88.3477 60.2037 85.9414 59.7135Z" fill="#BFC6C6" stroke="white" stroke-width="2"/>
<path d="M99.3034 71.5146C98.5258 74.0827 97.9057 74.3016 96.0098 72.5246C96.2473 72.2373 96.4926 72.1005 97.0206 71.9573C97.9699 71.8054 98.6367 71.66 99.3034 71.5146Z" fill="#ABB5B5" stroke="white" stroke-width="2"/>
<path d="M99.313 71.5155C98.6368 71.6598 97.9701 71.8051 97.127 71.9424C99.1251 70.8082 99.3762 68.7947 99.5053 66.5124C99.7027 66.3563 99.7754 66.3553 99.8365 66.5379C99.8235 67.4533 99.8222 68.1849 99.7835 69.0793C99.6085 69.9951 99.4709 70.7483 99.3333 71.5015C99.3333 71.5015 99.3225 71.5167 99.313 71.5155Z" fill="#BFC6C6" stroke="white" stroke-width="2"/>
<path d="M99.8482 66.3546C99.7753 66.3556 99.7025 66.3567 99.5205 66.3569C99.5633 65.1043 99.7152 63.8523 100.024 62.5278C100.19 62.6606 100.199 62.866 100.211 63.4008C100.092 64.6051 99.9698 65.4798 99.8482 66.3546Z" fill="#ABB5B5" stroke="white" stroke-width="2"/>
<path d="M80.5215 95.2935C80.9341 95.4495 81.3173 95.7587 81.7352 96.1924C81.344 96.0267 80.9181 95.7367 80.5215 95.2935Z" fill="#BFC6C6" stroke="white" stroke-width="2"/>
<path d="M78.3203 92.2935C78.7086 92.489 79.1232 92.8175 79.5614 93.2868C79.1722 93.0938 78.7594 92.7602 78.3203 92.2935Z" fill="#BFC6C6" stroke="white" stroke-width="2"/>
<path d="M79.6299 94.0083C79.8921 94.1069 80.1349 94.3427 80.3873 94.7169C80.1347 94.6187 79.8726 94.3821 79.6299 94.0083Z" fill="#BFC6C6" stroke="white" stroke-width="2"/>
<path d="M93.9102 59.9964C94.115 59.8087 94.4686 59.6608 94.9754 59.5142C94.772 59.689 94.4155 59.8626 93.9102 59.9964Z" fill="#BFC6C6" stroke="white" stroke-width="2"/>
<path d="M81.8594 96.5479C82.067 96.6638 82.299 96.904 82.5404 97.2792C82.3278 97.1668 82.1058 96.9194 81.8594 96.5479Z" fill="#BFC6C6" stroke="white" stroke-width="2"/>
<path d="M100.745 43.252C100.587 43.4279 100.356 43.501 99.9426 43.5803C99.9198 43.3442 100.079 43.1017 100.321 42.7886C100.492 42.8616 100.582 43.0054 100.745 43.252Z" fill="#75DA9E" stroke="white" stroke-width="2"/>
<path d="M100.532 41.6222C100.358 41.6311 100.282 41.5221 100.306 41.2998C100.415 41.3403 100.49 41.4462 100.532 41.6222Z" fill="#75DA9E" stroke="white" stroke-width="2"/>
<path d="M58.2183 94.693C58.1649 94.589 58.2455 94.4896 58.4377 94.3657C58.4575 94.4388 58.3917 94.5576 58.2183 94.693Z" fill="#BFC6C6" stroke="white" stroke-width="2"/>
<path d="M117.946 54.6671C120.733 52.0044 123.55 49.4525 126.431 46.9749C126.957 46.5224 127.742 46.3721 128.472 45.9486C129.102 45.5566 129.651 45.1382 130.238 45.0781C131.086 44.9913 131.961 45.164 132.824 45.2259C132.63 46.0178 132.541 46.8568 132.215 47.5902C131.756 48.6227 131.121 49.5769 130.283 50.6816C128.399 51.8511 126.792 52.9035 125.186 53.956C123.83 54.798 122.475 55.64 120.955 56.5841C120.606 56.4163 119.944 56.0979 119.162 55.8387C118.694 55.533 118.346 55.1682 117.946 54.6671Z" fill="#B46428" stroke="white" stroke-width="2"/>
<path d="M137.009 66.4527C137.051 64.6715 137.276 62.884 137.582 60.9424C137.982 61.3639 138.51 61.9157 138.58 62.5203C138.713 63.6779 138.586 64.8655 138.615 66.2094C138.173 66.4008 137.683 66.4236 137.009 66.4527Z" fill="#ABB5B5" stroke="white" stroke-width="2"/>
<path d="M113.93 34.0977C113.298 34.95 112.474 35.8349 111.498 36.7032C111.514 36.2396 111.681 35.7927 111.694 35.7566C111.041 34.8662 110.576 34.2324 110.149 33.4381C110.404 33.2566 110.619 33.2355 110.992 33.1729C111.919 33.7072 112.442 34.9192 113.93 34.0977Z" fill="#98A1A1" stroke="white" stroke-width="2"/>
<path d="M125.357 53.9464C126.791 52.9029 128.398 51.8505 130.159 50.7505C130.054 51.2371 129.795 51.7712 129.501 52.4652C128.154 53.0626 126.842 53.5 125.357 53.9464Z" fill="#98A1A1" stroke="white" stroke-width="2"/>
<path d="M130.245 40.1286C128.729 41.0606 127.429 40.5567 126.312 39.6884C127.346 39.5682 128.46 39.4387 129.706 39.4521C129.974 39.7729 130.109 39.9507 130.245 40.1286Z" fill="#ABB5B5" stroke="white" stroke-width="2"/>
<path d="M130.388 40.1004C130.109 39.9507 129.974 39.7729 129.813 39.481C130.239 38.8883 130.691 38.4096 131.334 37.9283C131.527 37.9257 131.661 38.0575 131.661 38.0575C131.285 38.729 130.908 39.4006 130.388 40.1004Z" fill="#828E8C" stroke="white" stroke-width="2"/>
<path d="M134.593 36.3744C134.264 36.7601 133.935 37.1457 133.352 37.8291C133.352 37.1375 133.352 36.8573 133.487 36.4375C133.946 36.3233 134.269 36.3488 134.593 36.3744Z" fill="black" stroke="white" stroke-width="2"/>
<path d="M134.738 36.332C134.269 36.3489 133.945 36.3234 133.46 36.3187C133.939 36.0525 134.58 35.7655 135.221 35.4785C135.108 35.7489 134.996 36.0192 134.738 36.332Z" fill="#CCD7D6" stroke="white" stroke-width="2"/>
<path d="M131.461 37.8581C131.544 37.6877 131.692 37.5848 131.84 37.4819C131.865 37.6349 131.89 37.7878 131.788 37.999C131.661 38.0573 131.526 37.9255 131.461 37.8581Z" fill="#828E8C" stroke="white" stroke-width="2"/>
<path d="M120.495 72.3865C120.438 74.471 120.382 76.5554 120.162 78.7252C119.882 78.6395 119.673 78.4743 119.661 78.2964C119.51 75.9234 119.387 73.5486 119.516 71.1538C120.014 71.5511 120.254 71.9688 120.495 72.3865Z" fill="black" stroke="white" stroke-width="2"/>
<path d="M99.837 66.5385C99.9704 65.48 100.092 64.6053 100.214 63.5552C101.836 64.6675 101.901 66.1472 100.231 68.8665C100.007 68.944 99.8213 68.9171 99.8213 68.9171C99.8226 68.1855 99.8239 67.4538 99.837 66.5385Z" fill="#98A1A1" stroke="white" stroke-width="2"/>
<path d="M99.7837 69.0796C99.821 68.9169 100.007 68.9438 100.1 68.9554C99.9992 69.7636 99.8055 70.5603 99.4727 71.4294C99.471 70.7487 99.6087 69.9955 99.7837 69.0796Z" fill="#ABB5B5" stroke="white" stroke-width="2"/>
<path d="M120.57 72.3366C120.254 71.9685 120.014 71.5508 119.632 71.0803C119.508 70.8315 119.527 70.6354 119.56 70.292C119.749 70.166 119.924 70.1873 120.228 70.1875C120.45 70.6208 120.543 71.0751 120.75 71.6714C120.792 71.9713 120.719 72.1292 120.57 72.3366Z" fill="#828E8C" stroke="white" stroke-width="2"/>
<path d="M119.147 87.7175C118.966 87.8518 118.781 87.8546 118.457 87.8521C118.409 87.5921 118.498 87.3374 118.689 86.9844C118.907 87.1194 119.025 87.3527 119.147 87.7175Z" fill="#ABB5B5" stroke="white" stroke-width="2"/>
<path d="M95.2877 73.7547C95.2721 73.7643 95.3033 73.7451 95.2877 73.7547V73.7547Z" fill="#ABB5B5" stroke="white" stroke-width="2"/>
<path d="M56.0304 123.969C55.9956 123.864 56.0759 123.739 56.2637 123.582C56.296 123.682 56.2208 123.815 56.0304 123.969Z" fill="#828E8C" stroke="white" stroke-width="2"/>
<path d="M25.375 73.1418C25.2 73.9797 25.0007 74.6665 24.6974 75.4804C24.5177 75.333 24.5259 74.8983 24.3535 74.8079C21.3672 73.2416 20.8439 70.387 20.3366 67.3455C20.229 67.2315 20.2285 67.2313 20.2285 67.2313C20.2285 66.5513 20.2285 65.8714 20.2285 65.5051C20.9788 65.3537 21.5421 65.24 22.1987 65.2356C22.2551 65.6012 22.2182 65.8576 22.1813 66.114C22.487 66.079 22.85 66.1357 23.0853 65.9883C23.4694 65.7479 23.7702 65.3745 24.1061 65.0571C24.0927 65.2669 24.1565 65.5292 24.0546 65.6786C22.0997 68.5457 22.6196 70.9609 25.375 73.1418Z" fill="#1F4F32" stroke="white" stroke-width="2"/>
<path d="M23.6772 62.0649C23.0942 61.3792 22.4696 60.7239 21.9393 59.9996C21.341 59.1827 20.8274 58.3036 20.1895 57.316C22.2338 56.515 22.7562 56.9846 22.8703 58.5211C22.9428 59.4961 23.5483 60.4315 23.954 61.6031C23.9093 61.9304 23.8039 62.0116 23.6772 62.0649Z" fill="#98A1A1" stroke="white" stroke-width="2"/>
<path d="M23.6341 62.2138C23.8045 62.0114 23.9099 61.9303 24.0417 61.733C24.0897 61.6445 24.2662 61.6695 24.4341 61.7982C26.8414 63.1149 24.8155 64.027 24.4005 65.0434C24.4005 65.0434 24.2531 65.0433 24.1798 65.0502C23.7705 65.3744 23.4697 65.7479 23.0856 65.9883C22.8503 66.1357 22.4873 66.079 22.1816 66.114C22.2185 65.8576 22.2554 65.6012 22.3204 65.213C22.7625 64.1751 23.1765 63.269 23.6341 62.2138Z" fill="black" stroke="white" stroke-width="2"/>
<path d="M38.0265 61.9305C35.4347 62.1612 32.7469 62.2963 29.8712 62.3268C29.6547 62.0282 29.6262 61.834 29.5977 61.6399C30.2062 61.1945 30.8147 60.7491 31.3144 60.3833C33.5816 60.8807 35.7561 61.3577 38.0265 61.9305Z" fill="#BFC6C6" stroke="white" stroke-width="2"/>
<path d="M29.4256 61.6401C29.6265 61.8337 29.655 62.0279 29.7143 62.3668C29.7452 62.5116 29.7163 62.6956 29.7172 62.7888C27.3064 61.7883 26.4779 64.5071 24.5545 65.0027C24.8148 64.0271 26.8406 63.1149 24.5225 61.8022C26.0469 61.6651 27.65 61.6529 29.4256 61.6401Z" fill="#1F4F32" stroke="white" stroke-width="2"/>
<path d="M20.229 67.232C20.2159 67.4392 20.2361 67.6562 20.1787 67.8502C20.1309 68.0113 19.9918 68.1454 19.6738 68.1818C19.7969 67.914 19.9199 67.6463 20.1356 67.305C20.2282 67.2314 20.229 67.232 20.229 67.232Z" fill="#1F4F32" stroke="white" stroke-width="2"/>
<path d="M43.3074 105.057C43.4717 105.533 43.4651 105.988 43.4666 106.615C42.2345 107.159 42.2345 107.159 42.7082 110.082C41.3792 109.75 40.1308 109.438 38.7461 109.034C40.2256 107.764 40.5972 105.144 43.3074 105.057Z" fill="#828E8C" stroke="white" stroke-width="2"/>
<path d="M42.1426 93.6019C45.1979 93.5101 46.9835 95.7231 45.7527 98.022C45.1845 97.3033 44.7635 96.6493 44.3425 95.9953C43.607 95.2521 42.8714 94.5089 42.1426 93.6019Z" fill="#BFC6C6" stroke="white" stroke-width="2"/>
<path d="M44.1894 96.0894C44.7636 96.6492 45.1846 97.3031 45.6092 98.1049C45.6039 98.9895 45.5951 99.7265 45.4156 100.609C44.9587 100.753 44.6725 100.752 44.3862 100.752C44.2696 99.2289 44.1529 97.7062 44.1894 96.0894Z" fill="#98A1A1" stroke="white" stroke-width="2"/>
<path d="M44.3098 100.911C44.6725 100.752 44.9588 100.753 45.3882 100.756C45.5315 100.759 45.5978 100.948 45.6021 101.182C45.6082 101.503 45.6101 101.592 45.612 101.681C45.612 101.681 45.5986 101.887 45.4806 102.075C45.3029 102.498 45.2434 102.734 45.1838 102.969C44.8561 103.52 44.5285 104.072 44.0454 104.646C44.0044 103.47 44.1189 102.27 44.3098 100.911Z" fill="#828E8C" stroke="white" stroke-width="2"/>
<path d="M43.7624 104.621C43.84 104.791 43.7722 104.933 43.5794 105.087C43.5086 104.93 43.5628 104.762 43.7624 104.621Z" fill="#828E8C" stroke="white" stroke-width="2"/>
<path d="M100.632 46.1508C100.203 47.0317 99.6165 47.9159 98.97 48.8898C99.9894 49.4712 101.495 47.5879 102.225 49.6193C101.931 50.4358 101.513 51.1737 101.08 52.047C101.065 52.1825 101.068 52.1795 100.968 52.1744C100.766 52.2415 100.665 52.3137 100.564 52.3858C100.731 52.4619 100.898 52.538 101.065 52.6134C101.064 52.6128 101.063 52.6112 101.063 52.6112C100.773 53.7774 100.482 54.9436 100.198 56.29C100.204 56.4702 100.196 56.4776 100.05 56.4857C99.5553 56.92 99.2074 57.3462 98.8594 57.7725C97.6962 58.2433 96.5008 58.9925 95.629 57.4742C94.3448 57.8367 93.0894 58.1911 91.7145 58.4594C91.4577 58.0333 91.3203 57.6933 91.1762 57.345C91.1695 57.3367 91.1552 57.3208 91.1398 57.175C90.817 56.8546 90.3495 56.4576 90.2299 56.5437C89.6923 56.9307 89.2534 57.4549 88.7075 57.8663C88.636 57.803 88.4947 57.6744 88.5329 57.5187C88.587 56.9345 88.6028 56.506 88.7097 56.0764C88.8863 55.9978 88.9718 55.9202 89.0573 55.8426C88.8998 55.9078 88.7424 55.973 88.4383 56.0572C87.5767 56.5444 86.8616 57.0126 86.0944 57.428C86.0423 57.3752 85.9358 57.2718 85.9131 57.1512C85.3452 57.4058 84.7999 57.7812 84.2546 58.1566C83.7509 58.3846 83.2472 58.6126 82.6154 58.8986C82.1355 58.5469 81.5862 58.1445 81.036 57.525C80.1413 56.3428 79.2475 55.3776 78.4596 54.3743C78.6513 54.1471 78.7372 53.958 78.8231 53.7689C78.5842 53.9078 78.3453 54.0466 77.9714 54.229C77.2724 54.6178 76.7084 54.963 76.1445 55.3082C74.6485 53.9577 73.0235 52.7191 71.7119 51.2085C71.0749 50.475 71.0244 49.2323 70.7945 48.0554C72.8988 46.3223 72.5558 44.0482 70.1221 42.8611C70.1999 42.0487 70.2777 41.2364 70.3401 40.2804C72.0953 39.1302 73.4755 37.4621 75.924 37.6684C76.902 37.7508 77.9815 36.6275 79.0274 35.9169C79.7472 35.5981 80.4544 35.4155 81.2062 35.4525C81.2161 36.0035 81.1814 36.3348 81.1466 36.6661C81.6581 36.4104 82.1696 36.1548 82.8123 35.8982C82.8548 36.5555 82.7662 37.2136 82.6754 37.8877C83.891 37.8877 85.1537 38.0723 86.3219 37.82C87.0489 37.6629 87.633 36.8446 88.4076 36.2271C90.4475 35.0962 90.4908 36.735 91.0159 38.0207C92.2231 37.3988 93.4078 36.7885 94.5925 36.1783C94.5925 36.1783 94.6811 36.281 94.7341 36.3243C94.3351 37.1057 93.8831 37.8437 93.3176 38.7381C93.2458 38.8826 93.2875 38.8708 93.3292 38.859C93.6356 38.9649 94.2103 39.0758 94.2084 39.176C94.175 40.9552 95.3957 42.8748 93.6196 44.6809C93.6416 44.9001 93.725 44.9173 93.8085 44.9346C95.1577 43.8214 96.507 42.7083 97.9262 41.5374C99.1545 44.3827 95.787 44.4519 95.0945 46.4675C96.1279 45.9836 96.9339 45.6062 97.8934 45.261C98.3218 45.7873 98.5966 46.2815 98.9113 46.8474C99.3748 46.6416 99.9242 46.3978 100.632 46.1508ZM96.5462 48.3217C96.3946 48.4424 96.2431 48.5631 96.0916 48.6838C96.1577 48.7531 96.2238 48.8223 96.2898 48.8916C96.4507 48.7007 96.6116 48.5098 96.9631 48.2383C97.0809 48.1595 97.1706 48.0563 97.4607 47.8758C97.5891 47.7347 97.7176 47.5936 97.8461 47.4525C97.7618 47.3811 97.6775 47.3097 97.5932 47.2383C97.4365 47.4327 97.2798 47.627 96.9512 47.9397C96.8422 48.0371 96.7772 48.1581 96.5462 48.3217Z" fill="#75DA9E" stroke="white" stroke-width="2"/>
<path d="M27.2096 37.0201C26.9992 35.3996 25.0308 33.4712 27.7992 31.9878C28.0001 33.6433 28.7553 35.4186 27.2096 37.0201Z" fill="#98A1A1" stroke="white" stroke-width="2"/>
<path d="M50.2966 36.9943C49.0768 36.8545 47.8918 36.5444 46.5264 36.1805C47.1282 35.4917 47.9105 34.8568 49.0661 33.9189C49.6021 35.1495 49.9667 35.9867 50.2966 36.9943Z" fill="#ABB5B5" stroke="white" stroke-width="2"/>
<path d="M56.9248 108.778C57.2285 108.252 57.675 107.757 58.2771 107.239C59.2676 108.506 60.0347 109.699 61.8877 109.896C62.603 109.971 63.1868 111.288 63.761 112.197C62.2211 111.523 60.7593 110.675 59.2764 109.867C58.5607 109.476 57.8051 109.159 56.9248 108.778Z" fill="#828E8C" stroke="white" stroke-width="2"/>
<path d="M54.0129 105.018C53.7734 105.925 53.3814 106.853 53.0181 107.936C51.4863 106.468 49.9258 104.846 48.3086 103.1C49.1952 103.577 50.1922 104.112 51.0612 104.807C51.5653 105.21 51.8634 105.87 52.2632 106.427C52.8868 105.886 53.3736 105.463 54.0129 105.018Z" fill="#98A1A1" stroke="white" stroke-width="2"/>
<path d="M63.6472 112.493C65.3227 113.086 65.3945 113.623 63.883 114.977C63.7857 114.452 63.7051 114.018 63.6144 113.417C63.6073 113.047 63.6102 112.845 63.6472 112.493Z" fill="#828E8C" stroke="white" stroke-width="2"/>
<path d="M43.46 106.881C43.5734 106.838 43.7031 106.916 43.8622 107.106C43.7531 107.146 43.6146 107.074 43.46 106.881Z" fill="#828E8C" stroke="white" stroke-width="2"/>
<path d="M102.36 19.8284C101.583 20.1585 100.836 20.3137 99.9241 20.4982C98.1467 19.9932 98.5839 18.9877 99.2664 17.7715C100.117 18.7503 102.265 17.2893 102.36 19.8284Z" fill="#828E8C" stroke="white" stroke-width="2"/>
<path d="M101.238 9.74444C101.334 9.73148 101.369 9.77664 101.403 9.8218C101.327 9.81539 101.252 9.80898 101.238 9.74444Z" fill="#98A1A1" stroke="white" stroke-width="2"/>
<path d="M107.517 24.2329C107.465 24.1985 107.408 24.1694 107.351 24.1403C107.404 24.126 107.457 24.1117 107.504 24.1737C107.499 24.2501 107.51 24.2382 107.517 24.2329Z" fill="#828E8C" stroke="white" stroke-width="2"/>
<path d="M31.0615 65.4365C31.8272 65.6839 32.5646 66.1273 33.4278 66.5445C32.9341 67.0453 32.3146 67.5724 31.2673 68.4633C31.162 67.1901 31.0976 66.4113 31.0615 65.4365Z" fill="#1F4F32" stroke="white" stroke-width="2"/>
<path d="M30.4256 63.8364C30.782 64.1017 31.0226 64.4475 31.2441 64.9056C30.4799 65.0167 29.4099 65.2856 30.4256 63.8364Z" fill="#1F4F32" stroke="white" stroke-width="2"/>
<path d="M25.5166 66.4724C25.7369 66.4061 25.9313 66.4499 26.1257 66.4938C26.0387 66.6483 25.9516 66.8029 25.8646 66.9574C25.74 66.8325 25.6154 66.7075 25.5166 66.4724Z" fill="#1F4F32" stroke="white" stroke-width="2"/>
<path d="M27.6663 70.3924C27.4213 70.3998 27.2392 70.3421 27.0766 70.25C27.0583 70.2396 27.1499 70.035 27.1906 69.9204C27.372 70.0527 27.5535 70.1849 27.6663 70.3924Z" fill="#1F4F32" stroke="white" stroke-width="2"/>
<path d="M28.666 67.7928C28.7264 67.6588 28.8444 67.586 28.9625 67.5132C28.8829 67.6268 28.8033 67.7404 28.666 67.7928Z" fill="#1F4F32" stroke="white" stroke-width="2"/>
<path d="M29.4209 70.7821C29.5807 70.7276 29.7532 70.7387 29.8909 70.8139C29.9322 70.8364 29.8761 71.0373 29.8647 71.1565C29.7165 71.0617 29.5684 70.9669 29.4209 70.7821Z" fill="#1F4F32" stroke="white" stroke-width="2"/>
<path d="M30.9743 69.9487C30.9584 69.9487 30.9902 69.9488 30.9743 69.9487V69.9487Z" fill="#1F4F32" stroke="white" stroke-width="2"/>
<path d="M48.5037 84.933C48.6306 84.8364 48.8095 84.894 48.8966 84.9305C48.9989 85.1438 49.0141 85.3206 49.0868 85.618C48.9698 85.7459 48.6928 85.8236 48.6408 85.7474C48.5013 85.5434 48.4582 85.2735 48.5037 84.933Z" fill="black" stroke="white" stroke-width="2"/>
<path d="M45.3126 102.92C45.2424 102.734 45.302 102.498 45.4465 102.173C45.5017 102.346 45.472 102.609 45.3126 102.92Z" fill="#98A1A1" stroke="white" stroke-width="2"/>
<path d="M45.7131 101.635C45.6096 101.592 45.6077 101.503 45.6085 101.282C45.679 101.296 45.7468 101.442 45.7131 101.635Z" fill="#98A1A1" stroke="white" stroke-width="2"/>
<path d="M111.278 36.7046C111.273 36.8308 111.174 36.9911 111.011 37.1003C110.983 36.9127 111.062 36.8092 111.278 36.7046Z" fill="#98A1A1" stroke="white" stroke-width="2"/>
<path d="M96.0219 40.9839C95.9626 40.7764 96.0207 40.5723 96.0789 40.3682C96.236 40.4352 96.393 40.5022 96.55 40.5693C96.4132 40.7086 96.2763 40.8479 96.0219 40.9839Z" fill="#75DA9E" stroke="white" stroke-width="2"/>
<path d="M99.3512 41.9731C99.3985 42.049 99.3728 42.1274 99.347 42.2058C99.3241 42.1291 99.3011 42.0524 99.3512 41.9731Z" fill="#75DA9E" stroke="white" stroke-width="2"/>
<path d="M98.5641 44.8818C98.5692 44.9775 98.4297 45.0905 98.166 45.2555C98.1677 45.1714 98.2937 45.0353 98.5641 44.8818Z" fill="#75DA9E" stroke="white" stroke-width="2"/>
<path d="M99.2251 44.0708C99.2643 44.1571 99.1783 44.314 98.9986 44.5691C98.97 44.492 99.035 44.3167 99.2251 44.0708Z" fill="#75DA9E" stroke="white" stroke-width="2"/>
<path d="M99.6785 43.6138C99.7013 43.6928 99.6214 43.8155 99.4366 43.9787C99.413 43.8986 99.4943 43.778 99.6785 43.6138Z" fill="#75DA9E" stroke="white" stroke-width="2"/>
<path d="M70.1128 43.0127C72.5548 44.0475 72.8977 46.3217 70.7269 47.9354C70.2818 47.0562 69.9892 46.1317 69.6641 45.0473C69.7892 44.3132 69.9469 43.7391 70.1128 43.0127Z" fill="#CCD7D6" stroke="white" stroke-width="2"/>
<path d="M78.3534 54.4121C79.2471 55.3773 80.1408 56.3424 80.9433 57.429C80.1024 57.3337 79.3528 57.117 78.4367 56.8866C77.582 56.4389 76.8938 56.0049 76.1748 55.4394C76.708 54.9626 77.2719 54.6174 78.0334 54.2847C78.231 54.2971 78.3534 54.4121 78.3534 54.4121Z" fill="#CCD7D6" stroke="white" stroke-width="2"/>
<path d="M91.1826 57.3528C91.32 57.6928 91.4573 58.0327 91.5919 58.5016C91.589 58.6304 91.6051 58.6357 91.4953 58.658C91.3109 58.807 91.2361 58.9337 91.1613 59.0604C91.1613 59.0604 91.1781 59.064 91.047 59.0349C90.8295 59.0179 90.7432 59.0299 90.6569 59.042C89.9192 59.0951 89.1815 59.1482 88.3682 59.0192C88.4546 58.5345 88.6166 58.2318 88.7787 57.9292C89.2531 57.4544 89.692 56.9302 90.2296 56.5432C90.3492 56.4571 90.8167 56.8541 91.0447 57.168C90.8988 57.4206 90.832 57.534 90.7652 57.6474C90.9044 57.5492 91.0435 57.451 91.1826 57.3528Z" fill="#CCD7D6" stroke="white" stroke-width="2"/>
<path d="M88.7064 57.8663C88.6158 58.2323 88.4538 58.5349 88.2351 58.9551C87.9497 59.2055 87.721 59.3384 87.384 59.5513C87.2069 59.6081 87.1381 59.5851 86.9626 59.5399C86.8688 59.3259 86.8818 59.134 87.0206 58.7318C87.5955 58.2391 88.0446 57.9567 88.4936 57.6743C88.4936 57.6743 88.6349 57.803 88.7064 57.8663Z" fill="#75DA9E" stroke="white" stroke-width="2"/>
<path d="M99.0059 57.7538C99.2061 57.3464 99.554 56.9201 100.047 56.4912C99.8464 56.904 99.5 57.3195 99.0059 57.7538Z" fill="#BFC6C6" stroke="white" stroke-width="2"/>
<path d="M90.7158 59.108C90.7433 59.0302 90.8297 59.0182 91.0453 59.0268C91.0412 59.0896 90.9079 59.1317 90.7158 59.108Z" fill="#75DA9E" stroke="white" stroke-width="2"/>
<path d="M91.2603 59.0152C91.236 58.9337 91.3108 58.807 91.496 58.6494C91.5241 58.7357 91.4417 58.8528 91.2603 59.0152Z" fill="#75DA9E" stroke="white" stroke-width="2"/>
<path d="M101.062 52.1839C101.235 52.2606 101.409 52.3358 101.583 52.4109C101.478 52.481 101.373 52.5512 101.165 52.6161C101.063 52.6109 101.064 52.6125 101.068 52.5045C101.07 52.3241 101.069 52.2516 101.067 52.1792C101.067 52.1792 101.064 52.1822 101.062 52.1839Z" fill="#75DA9E" stroke="white" stroke-width="2"/>
<path d="M110.987 46.7442C111.079 46.7123 111.214 46.7551 111.323 46.915C111.188 46.9863 111.099 46.9152 110.987 46.7442Z" fill="#ABB5B5" stroke="white" stroke-width="2"/>
<path d="M88.5324 57.5182C88.0451 57.9563 87.596 58.2387 87.0308 58.5877C86.1324 58.5327 85.3503 58.4111 84.4111 58.2228C84.7993 57.7808 85.3446 57.4054 85.852 57.2043C85.9247 57.4125 86.0354 57.4464 86.146 57.4803C86.8611 57.0122 87.5761 56.544 88.4459 56.0668C88.6006 56.0579 88.6181 56.0771 88.6181 56.0771C88.6022 56.5056 88.5864 56.9341 88.5324 57.5182Z" fill="#CCD7D6" stroke="white" stroke-width="2"/>
<path d="M82.8117 35.8979C82.9416 35.7605 83.4222 35.4862 83.4327 35.5032C84.6507 37.4694 86.1608 37.5453 88.0944 36.2835C87.6324 36.8443 87.0483 37.6626 86.3214 37.8197C85.1531 38.0721 83.8904 37.8874 82.6748 37.8874C82.7656 37.2133 82.8543 36.5552 82.8117 35.8979Z" fill="#CCD7D6" stroke="white" stroke-width="2"/>
<path d="M97.123 47.8209C97.2797 47.6265 97.4364 47.4322 97.5931 47.2378C97.6774 47.3092 97.7617 47.3806 97.8461 47.452C97.7176 47.5931 97.5891 47.7342 97.3198 47.8737C97.1791 47.8723 97.123 47.8209 97.123 47.8209Z" fill="#BFC6C6" stroke="white" stroke-width="2"/>
<path d="M78.1689 54.2411C78.3453 54.0462 78.5842 53.9074 78.8231 53.7686C78.7372 53.9577 78.6513 54.1468 78.4596 54.374C78.3538 54.4121 78.2314 54.2972 78.1689 54.2411Z" fill="#CCD7D6" stroke="white" stroke-width="2"/>
<path d="M96.7717 48.3183C96.6108 48.5092 96.45 48.7001 96.2891 48.891C96.223 48.8217 96.1569 48.7525 96.0908 48.6832C96.2424 48.5625 96.3939 48.4418 96.6542 48.3162C96.763 48.3113 96.7717 48.3183 96.7717 48.3183Z" fill="#BFC6C6" stroke="white" stroke-width="2"/>
<path d="M100.967 52.1738C101.068 52.2514 101.07 52.3238 101.068 52.5048C100.898 52.5374 100.731 52.4614 100.563 52.3853C100.664 52.3131 100.766 52.2409 100.967 52.1738Z" fill="#BFC6C6" stroke="white" stroke-width="2"/>
<path d="M88.5928 56.0479C88.7421 55.9727 88.8996 55.9075 89.057 55.8423C88.9715 55.9199 88.886 55.9975 88.7095 56.0761C88.6184 56.0772 88.6009 56.058 88.5928 56.0479Z" fill="#CCD7D6" stroke="white" stroke-width="2"/>
<path d="M93.7715 44.8978C93.7238 44.9171 93.6403 44.8999 93.6094 44.8368C93.6619 44.791 93.7359 44.8613 93.7715 44.8978Z" fill="#CCD7D6" stroke="white" stroke-width="2"/>
<path d="M91.3765 55.4308C91.3713 55.4167 91.3817 55.4449 91.3765 55.4308V55.4308Z" fill="#CCD7D6" stroke="white" stroke-width="2"/>
<path d="M96.7588 48.3071C96.776 48.1579 96.8409 48.0368 97.0359 47.8803C97.1218 47.8211 97.1779 47.8725 97.2044 47.9005C97.1693 48.0561 97.0797 48.1593 96.8665 48.2783C96.7712 48.3186 96.7625 48.3116 96.7588 48.3071Z" fill="#BFC6C6" stroke="white" stroke-width="2"/>
<path d="M93.3271 38.8564C93.287 38.8709 93.2448 38.8828 93.2616 38.8726C93.3206 38.8503 93.3251 38.8538 93.3271 38.8564Z" fill="#CCD7D6" stroke="white" stroke-width="2"/>
<path d="M91.1762 57.3447C91.0438 57.4512 90.9047 57.5494 90.7656 57.6476C90.8324 57.5342 90.8992 57.4208 91.0606 57.314C91.1552 57.3205 91.1695 57.3364 91.1762 57.3447Z" fill="#75DA9E" stroke="white" stroke-width="2"/>
<path d="M86.0933 57.4276C86.0348 57.4465 85.9241 57.4125 85.874 57.325C85.9346 57.2715 86.0411 57.3748 86.0933 57.4276Z" fill="#75DA9E" stroke="white" stroke-width="2"/>
</svg>
