<svg width="304" height="117" viewBox="0 0 304 117" fill="none" xmlns="http://www.w3.org/2000/svg">
<path d="M103.026 17.8628C102.974 16.4095 102.481 15.0064 101.614 13.8395C100.746 12.6725 99.544 11.797 98.1672 11.3289C97.9253 9.8681 97.1726 8.54066 96.0433 7.58302C94.914 6.62537 93.4814 6.09973 92.0008 6.09973C90.5201 6.09973 89.0875 6.62537 87.9582 7.58302C86.8289 8.54066 86.0763 9.8681 85.8344 11.3289C84.4572 11.7965 83.2548 12.6719 82.3868 13.8389C81.5188 15.0059 81.0262 16.4093 80.9744 17.8628C79.6141 18.4117 78.4857 19.4146 77.781 20.7012C77.0762 21.9877 76.8386 23.4786 77.1084 24.9205C77.3782 26.3624 78.1389 27.6664 79.2612 28.6111C80.3834 29.5557 81.7981 30.0827 83.2649 30.1026H90.5008V36.1025H86.0009C85.603 36.1025 85.2215 36.2606 84.9402 36.5419C84.6589 36.8232 84.5009 37.2047 84.5009 37.6025C84.5009 38.0003 84.6589 38.3819 84.9402 38.6632C85.2215 38.9445 85.603 39.1025 86.0009 39.1025H98.0007C98.3985 39.1025 98.78 38.9445 99.0613 38.6632C99.3426 38.3819 99.5007 38.0003 99.5007 37.6025C99.5007 37.2047 99.3426 36.8232 99.0613 36.5419C98.78 36.2606 98.3985 36.1025 98.0007 36.1025H93.5008V30.1026H100.735C102.202 30.0827 103.617 29.5557 104.739 28.6111C105.861 27.6664 106.622 26.3624 106.892 24.9205C107.161 23.4786 106.924 21.9877 106.219 20.7012C105.514 19.4146 104.386 18.4117 103.026 17.8628ZM100.735 27.1027H93.5008V24.7237L97.5612 20.6632C97.8344 20.3803 97.9856 20.0014 97.9822 19.6082C97.9788 19.2149 97.821 18.8387 97.5429 18.5605C97.2648 18.2824 96.8886 18.1247 96.4953 18.1213C96.102 18.1179 95.7231 18.269 95.4402 18.5423L93.5008 20.4817V16.6028C93.5008 16.205 93.3427 15.8235 93.0614 15.5422C92.7801 15.2609 92.3986 15.1028 92.0008 15.1028C91.603 15.1028 91.2214 15.2609 90.9401 15.5422C90.6588 15.8235 90.5008 16.205 90.5008 16.6028V20.4817L88.5613 18.5423C88.2784 18.269 87.8995 18.1179 87.5062 18.1213C87.113 18.1247 86.7367 18.2824 86.4586 18.5605C86.1805 18.8387 86.0228 19.2149 86.0194 19.6082C86.0159 20.0014 86.1671 20.3803 86.4404 20.6632L90.5008 24.7237V27.1027H83.2649C82.434 27.0834 81.6402 26.7552 81.0382 26.1821C80.4363 25.6091 80.0695 24.8324 80.0093 24.0035C79.9492 23.1746 80.2 22.353 80.7129 21.6991C81.2259 21.0451 81.964 20.6058 82.7834 20.4667C82.9786 20.4371 83.1659 20.3692 83.3348 20.267C83.5037 20.1648 83.6507 20.0303 83.7675 19.8712C83.8842 19.712 83.9685 19.5314 84.0153 19.3397C84.0621 19.1479 84.0707 18.9488 84.0404 18.7538C83.9495 18.2176 83.9661 17.6688 84.0893 17.1391C84.2124 16.6094 84.4397 16.1095 84.7578 15.6685C85.0759 15.2274 85.4785 14.854 85.9422 14.5699C86.4059 14.2859 86.9214 14.0969 87.4588 14.0138C87.8156 13.9623 88.1419 13.784 88.3779 13.5116C88.614 13.2391 88.7441 12.8908 88.7443 12.5304C88.7443 12.4914 88.7443 12.4404 88.7368 12.3894C88.736 11.9607 88.8197 11.5361 88.983 11.1398C89.1463 10.7435 89.386 10.3833 89.6886 10.0796C90.2996 9.4664 91.1291 9.12099 91.9948 9.1194C92.8604 9.11781 93.6913 9.46017 94.3045 10.0712C94.9177 10.6821 95.2631 11.5117 95.2647 12.3774C95.2647 12.4044 95.2647 12.4314 95.2647 12.4509C95.2451 12.8244 95.3658 13.1917 95.6031 13.4809C95.8403 13.77 96.1771 13.9601 96.5472 14.0138C97.0851 14.0968 97.6012 14.286 98.0653 14.5703C98.5294 14.8547 98.9323 15.2285 99.2506 15.67C99.5688 16.1115 99.7961 16.6119 99.9191 17.1421C100.042 17.6723 100.058 18.2217 99.9672 18.7583C99.9073 19.1515 100.006 19.5524 100.242 19.8728C100.478 20.1932 100.831 20.4068 101.224 20.4667C102.044 20.6061 102.782 21.0461 103.295 21.7007C103.808 22.3554 104.058 23.1777 103.997 24.0071C103.936 24.8364 103.568 25.6131 102.965 26.1856C102.361 26.758 101.567 27.085 100.735 27.1027Z" fill="#F2B1C4"/>
<g clip-path="url(#clip0_1366_52)">
<path d="M283.749 79.2445C280.321 79.4172 277.648 82.3732 277.821 85.7997C277.914 87.6484 278.818 89.2766 280.169 90.358C275.379 92.4107 272.152 97.4953 272.438 103.178C272.461 103.619 272.657 104.033 272.985 104.33C273.313 104.626 273.746 104.78 274.187 104.758L282.197 104.354C282.463 103.128 282.931 101.977 283.572 100.949L275.816 101.339C276.317 96.6273 279.928 92.963 284.428 92.7364C285.052 92.705 285.665 92.7432 286.261 92.8409C286.361 90.7974 287.718 89.0386 289.597 88.3718C290.1 87.416 290.363 86.3201 290.305 85.1709C290.133 81.7444 287.177 79.0718 283.749 79.2445ZM283.916 82.5726C285.544 82.4906 286.893 83.7097 286.975 85.3386C287.057 86.9676 285.837 88.3162 284.21 88.3982C282.582 88.4802 281.233 87.2609 281.151 85.632C281.069 84.0031 282.289 82.6546 283.916 82.5726Z" fill="#F2B1C4"/>
<path d="M291.742 88.8545C289 88.9927 286.862 91.3575 287 94.0988C287.075 95.5777 287.798 96.8803 288.878 97.7454C285.047 99.3875 282.465 103.455 282.694 108.001C282.712 108.354 282.869 108.686 283.132 108.923C283.394 109.16 283.74 109.283 284.093 109.265L292.748 108.829L301.404 108.393C301.757 108.375 302.089 108.218 302.326 107.956C302.563 107.694 302.686 107.348 302.669 106.995C302.44 102.449 299.462 98.6614 295.485 97.4126C296.473 96.4433 297.062 95.0746 296.987 93.5957C296.849 90.8545 294.485 88.7164 291.742 88.8545ZM291.876 91.5171C293.178 91.4515 294.258 92.4268 294.323 93.7299C294.389 95.033 293.413 96.112 292.111 96.1776C290.809 96.2431 289.73 95.2677 289.664 93.9646C289.598 92.6614 290.574 91.5826 291.876 91.5171ZM292.286 99.648C295.886 99.4667 299.055 102.093 299.832 105.803L292.614 106.167L285.396 106.53C285.797 102.761 288.686 99.8294 292.286 99.648Z" fill="#F2B1C4"/>
</g>
<g clip-path="url(#clip1_1366_52)">
<path d="M251.812 57.4078C252.182 56.7439 252.462 56.0341 252.646 55.297C253.233 53.0517 252.904 50.6653 251.731 48.6629C250.558 46.6604 248.638 45.2058 246.393 44.6191L246.297 44.5942C244.054 44.024 241.676 44.3661 239.684 45.5453C238.461 43.5701 236.519 42.1467 234.267 41.5748C232.972 41.2534 231.622 41.2262 230.315 41.4954C229.009 41.7645 227.779 42.3231 226.717 43.13C225.655 43.937 224.787 44.9718 224.177 46.1583C223.568 47.3448 223.232 48.6529 223.195 49.9864C223.027 50.0476 222.877 50.1488 222.758 50.2812C222.639 50.4135 222.554 50.573 222.51 50.7458C222.437 51.0264 222.478 51.3247 222.624 51.575C222.771 51.8253 223.011 52.0072 223.292 52.0805L223.345 52.0943C223.549 53.061 223.911 53.9877 224.414 54.8382L224.761 55.3698C224.789 55.4424 224.823 55.5121 224.865 55.5778L232.915 68.986C233.061 69.233 233.298 69.4127 233.575 69.4864C233.715 69.5224 233.861 69.5303 234.005 69.5095C234.148 69.4887 234.285 69.4397 234.41 69.3653L247.82 61.3049C247.965 61.2172 248.088 61.099 248.182 60.9586L248.607 60.719C249.308 60.2975 249.945 59.7792 250.501 59.1792L250.798 59.2567C251.078 59.33 251.376 59.2889 251.627 59.1423C251.877 58.9957 252.059 58.7556 252.132 58.475C252.179 58.2847 252.175 58.0853 252.118 57.8975C252.062 57.7098 251.956 57.5406 251.812 57.4078ZM228.66 44.4733C229.417 44.0186 230.257 43.7176 231.131 43.5876C232.006 43.4576 232.897 43.5011 233.754 43.7157C234.611 43.9303 235.418 44.3117 236.128 44.8381C236.838 45.3645 237.437 46.0257 237.891 46.7838C238.03 47.0108 238.153 47.247 238.26 47.4907C238.29 47.5678 238.328 47.6419 238.372 47.7121C238.539 47.955 238.792 48.1252 239.081 48.1879C239.369 48.2506 239.67 48.2011 239.923 48.0496L240.075 47.9424C240.276 47.77 240.493 47.6185 240.725 47.4903C241.47 47.0388 242.298 46.7404 243.161 46.6124C244.023 46.4845 244.902 46.5296 245.747 46.7451L245.81 46.7617C246.82 47.0169 247.755 47.5088 248.537 48.1968C249.319 48.8848 249.926 49.7491 250.308 50.7183C250.69 51.6875 250.836 52.7336 250.733 53.7703C250.631 54.807 250.283 55.8043 249.719 56.6799L240.024 54.0223C239.816 53.9682 239.597 53.9764 239.394 54.0459C239.191 54.1155 239.013 54.2433 238.882 54.4134L238.89 52.9119C238.888 52.7397 238.845 52.5705 238.765 52.418C238.685 52.2655 238.57 52.134 238.43 52.0342C238.287 51.9341 238.122 51.8696 237.949 51.8461C237.776 51.8226 237.6 51.8407 237.436 51.899L235.868 52.4501L235.492 47.8301C235.476 47.6307 235.406 47.4396 235.289 47.2775C235.172 47.1153 235.012 46.9884 234.828 46.9104C234.64 46.8208 234.429 46.787 234.222 46.813C234.015 46.839 233.82 46.9238 233.659 47.0572L228.712 51.0663L225.388 50.2882C225.378 49.1177 225.675 47.965 226.249 46.9449C226.823 45.9247 227.654 45.0726 228.66 44.4733ZM247.515 58.8398C247.286 58.9817 247.046 59.1042 246.798 59.2063C246.546 59.3046 246.34 59.4923 246.219 59.7333L234.247 66.915L226.93 54.7269C226.896 54.5733 226.83 54.4287 226.735 54.303C226.58 54.1123 226.44 53.9094 226.317 53.6964C226.124 53.3647 225.961 53.0158 225.832 52.654L228.73 53.332C228.893 53.3698 229.062 53.3697 229.225 53.3319C229.388 53.2941 229.539 53.2195 229.669 53.1138L233.445 50.0421L233.761 54.0248C233.774 54.1919 233.826 54.3536 233.911 54.4976C233.997 54.6416 234.115 54.7639 234.256 54.8551C234.397 54.9474 234.557 55.006 234.724 55.0262C234.892 55.0464 235.061 55.0276 235.22 54.9714L236.69 54.4511L236.724 57.7384C236.726 57.9706 236.801 58.1962 236.939 58.3827C237.077 58.5693 237.271 58.707 237.493 58.7759L237.546 58.7897C237.759 58.8448 237.984 58.8342 238.192 58.7592C238.399 58.6842 238.578 58.5484 238.707 58.3696L240.18 56.324L247.996 58.4682C247.844 58.6017 247.683 58.7258 247.515 58.8398Z" fill="#F2B1C4"/>
</g>
<g clip-path="url(#clip2_1366_52)">
<path d="M300.752 16.2887L299.799 16.2158L300.78 3.387C300.833 2.68838 300.305 2.07313 299.607 2.01972L293.891 1.58276C293.192 1.52936 292.577 2.05722 292.524 2.75584L291.543 15.5847L286.78 15.2205L286.993 12.4261L287.311 12.4504C288.01 12.5038 288.625 11.976 288.678 11.2773C288.732 10.5787 288.204 9.96346 287.505 9.91005L276.772 9.08954C276.074 9.03613 275.458 9.564 275.405 10.2626C275.352 10.9612 275.879 11.5765 276.578 11.6299L276.832 11.6493L276.618 14.4437L273.379 14.1961C272.681 14.1427 272.066 14.6706 272.012 15.3692L270.997 28.6425C270.944 29.3412 271.472 29.9564 272.171 30.0098L299.606 32.1072C300.241 32.1558 300.857 31.6279 300.91 30.9293L301.925 17.6559C301.978 16.9573 301.45 16.3421 300.752 16.2887ZM294.904 4.21537L298.143 4.46298L297.259 16.0216L294.02 15.774L294.904 4.21537ZM279.372 11.8435L284.517 12.2368L284.303 15.0312L279.159 14.6379L279.372 11.8435ZM298.526 29.5333L273.63 27.6301L274.455 16.8336L277.694 17.0812L285.316 17.6638L292.619 18.2221L298.335 18.6591L299.351 18.7368L298.526 29.5333Z" fill="#F2B1C4"/>
<path d="M279.635 20.1042C278.937 20.0507 278.321 20.5786 278.268 21.2772L278.113 23.3095C278.059 24.0082 278.587 24.6234 279.286 24.6768C279.984 24.7302 280.531 24.261 280.653 23.5037L280.808 21.4714C280.862 20.7728 280.334 20.1576 279.635 20.1042Z" fill="#F2B1C4"/>
<path d="M286.685 20.6431C285.986 20.5897 285.371 21.1175 285.317 21.8161L285.162 23.8485C285.109 24.5471 285.637 25.1623 286.335 25.2157C287.034 25.2691 287.644 24.8048 287.702 24.0427L287.858 22.0103C287.911 21.3117 287.383 20.6965 286.685 20.6431Z" fill="#F2B1C4"/>
<path d="M293.734 21.182C293.036 21.1286 292.42 21.6564 292.367 22.355L292.212 24.3874C292.158 25.086 292.686 25.7012 293.385 25.7546C294.083 25.8081 294.694 25.3437 294.752 24.5816L294.907 22.5493C294.961 21.8506 294.433 21.2354 293.734 21.182Z" fill="#F2B1C4"/>
</g>
<g clip-path="url(#clip3_1366_52)">
<path d="M161.854 83.6315C163.579 83.9057 165.327 83.464 166.708 82.4568C167.709 83.8428 169.234 84.8047 170.958 85.0789C172.683 85.3531 174.431 84.9118 175.812 83.9045C176.812 85.2902 178.337 86.252 180.062 86.5262C182.344 86.8891 184.668 85.9984 186.126 84.2022C186.534 83.6993 186.458 82.9606 185.955 82.5525C185.452 82.1446 184.713 82.221 184.305 82.7239C183.373 83.8721 181.888 84.4415 180.43 84.2098C178.972 83.9779 177.737 82.9761 177.207 81.5954C177.057 81.2045 176.71 80.923 176.296 80.8574C175.882 80.7917 175.465 80.9516 175.201 81.2768C174.27 82.4252 172.785 82.9943 171.327 82.7625C169.869 82.5307 168.634 81.5287 168.103 80.1475C167.953 79.7568 167.606 79.4757 167.193 79.41L167.192 79.4099C166.779 79.3442 166.362 79.504 166.098 79.829C165.166 80.9773 163.681 81.5467 162.223 81.3149C160.765 81.0831 159.53 80.0812 159 78.7005C158.768 78.096 158.089 77.7937 157.484 78.026C156.88 78.258 156.578 78.9365 156.81 79.5412C157.639 81.7012 159.572 83.2686 161.854 83.6315Z" fill="#F2B1C4"/>
<path d="M184.604 91.046C184.101 90.6381 183.362 90.7144 182.954 91.2174C182.022 92.3657 180.537 92.9351 179.079 92.7033C177.621 92.4715 176.386 91.4696 175.856 90.0889C175.706 89.698 175.359 89.4166 174.945 89.351C174.531 89.2852 174.114 89.4451 173.85 89.7704C172.919 90.9187 171.434 91.4879 169.976 91.256C168.518 91.0243 167.283 90.0222 166.752 88.6411C166.602 88.2503 166.255 87.9692 165.842 87.9035L165.841 87.9035C165.428 87.8377 165.011 87.9975 164.747 88.3226C163.815 89.4709 162.33 90.0403 160.872 89.8085C159.414 89.5766 158.179 88.5748 157.649 87.1941C157.417 86.5894 156.738 86.2873 156.134 86.5195C155.529 86.7516 155.227 87.43 155.459 88.0347C156.288 90.1948 158.221 91.7622 160.504 92.1251C162.229 92.3993 163.977 91.9577 165.358 90.9504C166.358 92.3364 167.884 93.2984 169.608 93.5726C171.333 93.8468 173.081 93.4054 174.461 92.3982C175.462 93.7838 176.987 94.7456 178.712 95.0199C180.994 95.3827 183.317 94.4922 184.776 92.6957C185.183 92.1928 185.107 91.4542 184.604 91.046Z" fill="#F2B1C4"/>
<path d="M183.253 99.5398C182.75 99.1318 182.012 99.2081 181.604 99.7112C180.672 100.859 179.187 101.429 177.729 101.197C176.271 100.965 175.036 99.9634 174.506 98.5827C174.355 98.1918 174.008 97.9104 173.595 97.8448C173.181 97.779 172.764 97.9389 172.5 98.2642C171.568 99.4125 170.084 99.9817 168.626 99.7498C167.168 99.5181 165.933 98.516 165.402 97.1349C165.252 96.7441 164.905 96.463 164.491 96.3973L164.491 96.3972C164.078 96.3315 163.66 96.4913 163.397 96.8164C162.465 97.9647 160.98 98.5341 159.522 98.3023C158.064 98.0704 156.828 97.0686 156.298 95.6879C156.066 95.0832 155.388 94.7812 154.783 95.0133C154.178 95.2454 153.876 95.9238 154.109 96.5285C154.938 98.6886 156.871 100.256 159.154 100.619C160.878 100.893 162.627 100.451 164.007 99.4442C165.008 100.83 166.533 101.792 168.258 102.066C169.983 102.341 171.731 101.899 173.111 100.892C174.111 102.278 175.636 103.239 177.361 103.514C179.643 103.877 181.967 102.986 183.425 101.189C183.833 100.687 183.756 99.948 183.253 99.5398Z" fill="#F2B1C4"/>
</g>
<path d="M21.4378 44.0686C21.7572 43.4566 21.5201 42.7015 20.908 42.3821C20.2961 42.0626 19.541 42.2997 19.2215 42.9117L21.4378 44.0686ZM24.7444 53.2323C25.4308 53.3052 26.0465 52.808 26.1196 52.1215C26.1926 51.435 25.6953 50.8193 25.0089 50.7463L24.7444 53.2323ZM20.3297 43.4902L20.1486 42.2533L20.1462 42.2537L20.3297 43.4902ZM33.5648 53.2496L32.3297 53.4422C32.3892 53.8236 32.6217 54.1562 32.9596 54.3432C33.2973 54.5302 33.7026 54.5505 34.0575 54.3984L33.5648 53.2496ZM33.3782 57.7556L33.9642 56.6514C33.6225 56.47 33.2162 56.4572 32.8638 56.6162C32.5113 56.7755 32.2523 57.0886 32.1624 57.4648L33.3782 57.7556ZM10.367 55.2701L11.6168 55.2457C11.6092 54.859 11.4231 54.4977 11.1128 54.2669C10.8024 54.0362 10.4028 53.9621 10.0304 54.0663L10.367 55.2701ZM11.1468 50.8282L10.4203 51.8454C10.7345 52.0697 11.1348 52.1365 11.5048 52.0259C11.8747 51.9153 12.1728 51.6399 12.3124 51.28L11.1468 50.8282ZM19.2215 42.9117C17.5775 46.0612 18.5208 49.9413 21.4272 51.9843L22.866 49.94C20.9855 48.6179 20.374 46.1065 21.4378 44.0686L19.2215 42.9117ZM21.4272 51.9843C22.4089 52.6763 23.5499 53.1053 24.7444 53.2323L25.0089 50.7463C24.2375 50.6642 23.5001 50.3867 22.866 49.94L21.4272 51.9843ZM20.5106 44.727C26.174 43.8984 31.4475 47.787 32.3297 53.4422L34.7998 53.0569C33.7062 46.0465 27.169 41.2261 20.1486 42.2533L20.5106 44.727ZM34.0575 54.3984C34.5927 54.1688 35.2157 54.3395 35.5593 54.8098L37.5779 53.3348C36.5469 51.9239 34.6781 51.4121 33.0722 52.1007L34.0575 54.3984ZM35.5593 54.8098C35.903 55.2801 35.8762 55.9254 35.4949 56.3657L37.3845 58.0024C38.5287 56.6816 38.6088 54.7457 37.5779 53.3348L35.5593 54.8098ZM35.4949 56.3657C35.1136 56.8059 34.4787 56.9244 33.9642 56.6514L32.7923 58.8597C34.3357 59.6789 36.2404 59.3232 37.3845 58.0024L35.4949 56.3657ZM32.1624 57.4648C30.9432 62.5634 26.1249 65.9615 20.9129 65.3985L20.6444 67.884C27.1073 68.5821 33.082 64.3685 34.5939 58.0463L32.1624 57.4648ZM20.9129 65.3985C15.7008 64.8355 11.7192 60.487 11.6168 55.2457L9.11725 55.2946C9.24429 61.7938 14.1815 67.186 20.6444 67.884L20.9129 65.3985ZM10.0304 54.0663C9.46942 54.2232 8.87447 53.9718 8.59593 53.4603L6.40034 54.6558C7.23599 56.1904 9.0208 56.9446 10.7036 56.4739L10.0304 54.0663ZM8.59593 53.4603C8.31736 52.9488 8.42906 52.3126 8.86519 51.9265L7.20815 50.0546C5.89972 51.2128 5.56468 53.1212 6.40034 54.6558L8.59593 53.4603ZM8.86519 51.9265C9.30134 51.5405 9.94633 51.5067 10.4203 51.8454L11.8734 49.811C10.4515 48.7953 8.51655 48.8964 7.20815 50.0546L8.86519 51.9265ZM12.3124 51.28C13.6688 47.7798 16.8001 45.2776 20.5131 44.7266L20.1462 42.2537C15.5438 42.9367 11.6626 46.0382 9.98131 50.3765L12.3124 51.28Z" fill="#F2B1C4"/>
<path d="M16.9724 55.3264C16.5156 55.2771 16.184 54.8653 16.2334 54.4084C16.2827 53.9516 16.6945 53.6201 17.1514 53.6694C17.6082 53.7188 17.9398 54.1306 17.8904 54.5874C17.8411 55.0443 17.4293 55.3758 16.9724 55.3264Z" fill="#F2B1C4"/>
<path d="M16.8829 56.1549C15.9677 56.0561 15.306 55.2341 15.4048 54.3189C15.5037 53.4038 16.3257 52.742 17.2408 52.8409C18.156 52.9397 18.8177 53.7617 18.7188 54.6769C18.62 55.5921 17.798 56.2538 16.8829 56.1549Z" fill="#F2B1C4"/>
<path d="M26.9145 56.4003C26.4576 56.351 26.1261 55.9391 26.1755 55.4823C26.2248 55.0254 26.6366 54.6939 27.0935 54.7433C27.5503 54.7926 27.8818 55.2044 27.8325 55.6613C27.7832 56.1181 27.3713 56.4496 26.9145 56.4003Z" fill="#F2B1C4"/>
<path d="M26.825 57.2288C25.91 57.13 25.2481 56.308 25.347 55.3928C25.4458 54.4776 26.268 53.8159 27.183 53.9147C28.0981 54.0136 28.7599 54.8356 28.661 55.7507C28.5622 56.6659 27.7402 57.3276 26.825 57.2288Z" fill="#F2B1C4"/>
<g clip-path="url(#clip4_1366_52)">
<path fill-rule="evenodd" clip-rule="evenodd" d="M182.78 30.5391C182.81 30.7008 182.808 30.867 182.772 31.0277C182.737 31.1884 182.67 31.3403 182.574 31.4743C182.515 31.5512 182.446 31.6196 182.369 31.6775C182.247 32.0722 182.037 32.4342 181.756 32.7366C181.475 33.039 181.128 33.274 180.744 33.4239L179.512 33.6378L181.223 43.4903C181.337 44.1435 181.186 44.8151 180.804 45.3573C180.423 45.8994 179.841 46.2677 179.188 46.3812L161.946 49.3758C161.293 49.4893 160.621 49.3386 160.079 48.9569C159.537 48.5752 159.169 47.9938 159.055 47.3405L157.344 37.488L156.112 37.7019C155.473 37.8099 154.816 37.6653 154.282 37.2984C153.747 36.9316 153.376 36.3713 153.246 35.7359C153.243 35.7174 153.227 35.7011 153.224 35.6826L153.221 35.6666C153.176 35.3558 153.253 35.0395 153.436 34.7843L164.527 19.0214C164.547 18.9509 164.578 18.8841 164.62 18.8239C164.818 18.5603 165.109 18.3821 165.434 18.3257C165.759 18.2693 166.093 18.3388 166.369 18.5201C166.428 18.5633 166.48 18.616 166.523 18.6761L182.279 29.7748C182.538 29.9533 182.717 30.225 182.779 30.5329L182.78 30.5391ZM168.909 45.6354L171.372 45.2076L170.302 39.0498L167.839 39.4776L168.909 45.6354ZM165.944 21.2595L156.152 35.1575L159.379 34.5971L161.518 46.9127L166.444 46.0571L165.161 38.6677C165.104 38.3411 165.18 38.0053 165.37 37.7342C165.561 37.4632 165.852 37.279 166.179 37.2222L171.105 36.3666C171.432 36.3099 171.767 36.3853 172.038 36.5761C172.31 36.767 172.494 37.0577 172.55 37.3843L173.834 44.7737L178.76 43.9181L176.621 31.6025L179.848 31.042L165.944 21.2595Z" fill="#F2B1C4"/>
</g>
<path d="M75.0091 80.3586L75.4584 84.0816L71.7354 84.5309L71.8852 85.7719C72.1677 88.1133 73.2914 89.6401 74.4962 90.4537C75.1013 90.8627 75.724 91.1318 76.2467 91.2655C76.2769 91.2716 76.294 91.2499 76.3242 91.2561L76.357 91.5276L72.634 91.9769L72.7838 93.2179C73.0663 95.5593 74.19 97.086 75.3948 97.8997C75.9999 98.3087 76.6226 98.5778 77.1453 98.7114C77.1755 98.7176 77.1926 98.6959 77.2228 98.7021L77.2556 98.9735L73.5326 99.4229L73.6824 100.664C73.965 103.005 75.0886 104.532 76.2934 105.346C76.8985 105.755 77.5212 106.024 78.0439 106.157C78.0742 106.164 78.0912 106.142 78.1215 106.148L78.6035 110.142L93.4955 108.345L93.0134 104.351C93.0413 104.338 93.063 104.355 93.091 104.341C93.5669 104.087 94.1076 103.678 94.5981 103.137C95.5747 102.06 96.3029 100.309 96.0203 97.968L95.8705 96.727L92.1475 97.1763L92.1148 96.9048C92.1427 96.8916 92.1644 96.9087 92.1923 96.8955C92.6682 96.6413 93.209 96.2318 93.6995 95.6906C94.6761 94.6137 95.4043 92.8634 95.1217 90.522L94.9719 89.281L91.2489 89.7303L91.2162 89.4589C91.2441 89.4457 91.2658 89.4627 91.2937 89.4495C91.7696 89.1953 92.3104 88.7858 92.8008 88.2446C93.7775 87.1677 94.5056 85.4175 94.2231 83.0761L94.0733 81.8351L90.3503 82.2844L89.901 78.5614L75.0091 80.3586ZM77.7906 82.5411L87.7185 81.3429L88.1679 85.0659L91.6582 84.6447C91.5455 85.5042 91.3167 86.1761 90.9474 86.5797C90.6784 86.8778 90.3704 87.0969 90.1209 87.2303C89.8715 87.3637 89.6066 87.4104 89.7084 87.3981L88.4674 87.5479L89.0665 92.5119L92.5568 92.0906C92.4441 92.9502 92.2153 93.6221 91.846 94.0257C91.577 94.3237 91.269 94.5429 91.0196 94.6763C90.7701 94.8097 90.5052 94.8564 90.607 94.8441L89.366 94.9939L89.9651 99.9578L93.4554 99.5366C93.3427 100.396 93.114 101.068 92.7446 101.472C92.4757 101.77 92.1677 101.989 91.9182 102.122C91.6687 102.256 91.4038 102.302 91.5056 102.29L90.2646 102.44L90.7139 106.163L80.786 107.361L80.3367 103.638L79.0957 103.788C79.1975 103.775 78.9291 103.793 78.655 103.723C78.381 103.653 78.0297 103.513 77.6976 103.288C77.2428 102.983 76.8608 102.385 76.5468 101.577L80.0371 101.156L79.4381 96.192L78.1971 96.3418C78.2989 96.3295 78.0305 96.3471 77.7564 96.2769C77.4824 96.2067 77.1311 96.0671 76.7989 95.8416C76.3442 95.5375 75.9621 94.9393 75.6482 94.1312L79.1385 93.71L78.5394 88.746L77.2984 88.8958C77.4002 88.8835 77.1319 88.9012 76.8578 88.831C76.5837 88.7607 76.2325 88.6212 75.9003 88.3957C75.4456 88.0915 75.0635 87.4933 74.7496 86.6853L78.2399 86.2641L77.7906 82.5411ZM83.0541 84.424C81.6822 84.5895 80.7061 85.8336 80.8717 87.2055C81.0372 88.5774 82.2813 89.5535 83.6532 89.388C85.0251 89.2224 86.0012 87.9783 85.8356 86.6064C85.6701 85.2345 84.426 84.2584 83.0541 84.424ZM83.9527 91.8699C82.5808 92.0355 81.6047 93.2796 81.7703 94.6515C81.9358 96.0234 83.1799 96.9995 84.5518 96.8339C85.9237 96.6684 86.8998 95.4243 86.7343 94.0524C86.5687 92.6805 85.3246 91.7044 83.9527 91.8699ZM84.8513 99.3159C83.4795 99.4815 82.5033 100.726 82.6689 102.097C82.8345 103.469 84.0785 104.445 85.4504 104.28C86.8223 104.114 87.7984 102.87 87.6329 101.498C87.4673 100.126 86.2232 99.1504 84.8513 99.3159Z" fill="#F2B1C4"/>
<defs>
<clipPath id="clip0_1366_52">
<rect width="30" height="30" fill="white" transform="translate(271.265 79.8733) rotate(-2.88345)"/>
</clipPath>
<clipPath id="clip1_1366_52">
<rect width="35" height="35" fill="white" transform="translate(224.849 33.0997) rotate(14.6443)"/>
</clipPath>
<clipPath id="clip2_1366_52">
<rect width="30" height="30" fill="white" transform="translate(273.187) rotate(4.37162)"/>
</clipPath>
<clipPath id="clip3_1366_52">
<rect width="30" height="30" fill="white" transform="translate(157.541 73.9306) rotate(9.03357)"/>
</clipPath>
<clipPath id="clip4_1366_52">
<rect width="30" height="30" fill="white" transform="translate(150.655 20.8878) rotate(-9.85299)"/>
</clipPath>
</defs>
</svg>
