<svg width="45" height="45" viewBox="0 0 45 45" fill="none" xmlns="http://www.w3.org/2000/svg">
<path d="M21.4378 11.0686C21.7572 10.4566 21.5201 9.70152 20.908 9.38205C20.2961 9.06259 19.541 9.29974 19.2215 9.91172L21.4378 11.0686ZM24.7444 20.2323C25.4308 20.3052 26.0465 19.808 26.1196 19.1215C26.1926 18.435 25.6953 17.8193 25.0089 17.7463L24.7444 20.2323ZM20.3297 10.4902L20.1486 9.25334L20.1462 9.25372L20.3297 10.4902ZM33.5648 20.2496L32.3297 20.4422C32.3892 20.8236 32.6217 21.1562 32.9596 21.3432C33.2973 21.5302 33.7026 21.5505 34.0575 21.3984L33.5648 20.2496ZM33.3782 24.7556L33.9642 23.6514C33.6225 23.47 33.2162 23.4572 32.8638 23.6162C32.5113 23.7755 32.2523 24.0886 32.1624 24.4648L33.3782 24.7556ZM10.367 22.2701L11.6168 22.2457C11.6092 21.859 11.4231 21.4977 11.1128 21.2669C10.8024 21.0362 10.4028 20.9621 10.0304 21.0663L10.367 22.2701ZM11.1468 17.8282L10.4203 18.8454C10.7345 19.0697 11.1348 19.1365 11.5048 19.0259C11.8747 18.9153 12.1728 18.6399 12.3124 18.28L11.1468 17.8282ZM19.2215 9.91172C17.5775 13.0612 18.5208 16.9413 21.4272 18.9843L22.866 16.94C20.9855 15.6179 20.374 13.1065 21.4378 11.0686L19.2215 9.91172ZM21.4272 18.9843C22.4089 19.6763 23.5499 20.1053 24.7444 20.2323L25.0089 17.7463C24.2375 17.6642 23.5001 17.3867 22.866 16.94L21.4272 18.9843ZM20.5106 11.727C26.174 10.8984 31.4475 14.787 32.3297 20.4422L34.7998 20.0569C33.7062 13.0465 27.169 8.22614 20.1486 9.25334L20.5106 11.727ZM34.0575 21.3984C34.5927 21.1688 35.2157 21.3395 35.5593 21.8098L37.5779 20.3348C36.5469 18.9239 34.6781 18.4121 33.0722 19.1007L34.0575 21.3984ZM35.5593 21.8098C35.903 22.2801 35.8762 22.9254 35.4949 23.3657L37.3845 25.0024C38.5287 23.6816 38.6088 21.7457 37.5779 20.3348L35.5593 21.8098ZM35.4949 23.3657C35.1136 23.8059 34.4787 23.9244 33.9642 23.6514L32.7923 25.8597C34.3357 26.6789 36.2404 26.3232 37.3845 25.0024L35.4949 23.3657ZM32.1624 24.4648C30.9432 29.5634 26.1249 32.9615 20.9129 32.3985L20.6444 34.884C27.1073 35.5821 33.082 31.3685 34.5939 25.0463L32.1624 24.4648ZM20.9129 32.3985C15.7008 31.8355 11.7192 27.487 11.6168 22.2457L9.11725 22.2946C9.24429 28.7938 14.1815 34.186 20.6444 34.884L20.9129 32.3985ZM10.0304 21.0663C9.46942 21.2232 8.87447 20.9718 8.59593 20.4603L6.40034 21.6558C7.23599 23.1904 9.0208 23.9446 10.7036 23.4739L10.0304 21.0663ZM8.59593 20.4603C8.31736 19.9488 8.42906 19.3126 8.86519 18.9265L7.20815 17.0546C5.89972 18.2128 5.56468 20.1212 6.40034 21.6558L8.59593 20.4603ZM8.86519 18.9265C9.30134 18.5405 9.94633 18.5067 10.4203 18.8454L11.8734 16.811C10.4515 15.7953 8.51655 15.8964 7.20815 17.0546L8.86519 18.9265ZM12.3124 18.28C13.6688 14.7798 16.8001 12.2776 20.5131 11.7266L20.1462 9.25372C15.5438 9.93669 11.6626 13.0382 9.98131 17.3765L12.3124 18.28Z" fill="#F2B1C4"/>
<path d="M16.9724 22.3264C16.5156 22.2771 16.184 21.8653 16.2334 21.4084C16.2827 20.9516 16.6945 20.6201 17.1514 20.6694C17.6082 20.7188 17.9398 21.1306 17.8904 21.5874C17.8411 22.0443 17.4293 22.3758 16.9724 22.3264Z" fill="#F2B1C4"/>
<path d="M16.8829 23.1549C15.9677 23.0561 15.306 22.2341 15.4048 21.3189C15.5037 20.4038 16.3257 19.742 17.2408 19.8409C18.156 19.9397 18.8177 20.7617 18.7188 21.6769C18.62 22.5921 17.798 23.2538 16.8829 23.1549Z" fill="#F2B1C4"/>
<path d="M26.9145 23.4003C26.4576 23.351 26.1261 22.9391 26.1755 22.4823C26.2248 22.0254 26.6366 21.6939 27.0935 21.7433C27.5503 21.7926 27.8818 22.2044 27.8325 22.6613C27.7832 23.1181 27.3713 23.4496 26.9145 23.4003Z" fill="#F2B1C4"/>
<path d="M26.825 24.2288C25.91 24.13 25.2481 23.308 25.347 22.3928C25.4458 21.4776 26.268 20.8159 27.183 20.9147C28.0981 21.0136 28.7599 21.8356 28.661 22.7507C28.5622 23.6659 27.7402 24.3276 26.825 24.2288Z" fill="#F2B1C4"/>
</svg>
