<svg width="32" height="32" viewBox="0 0 32 32" fill="none" xmlns="http://www.w3.org/2000/svg">
<g clip-path="url(#clip0_1076_179)">
<path d="M12.7487 1.24448C9.32051 1.41716 6.64836 4.37317 6.82095 7.79971C6.91407 9.64837 7.81823 11.2766 9.16866 12.358C4.37931 14.4107 1.15212 19.4953 1.43832 25.1775C1.46058 25.6189 1.65734 26.0333 1.98531 26.3296C2.31328 26.626 2.74562 26.78 3.18722 26.7578L11.1968 26.3543C11.4633 25.1284 11.9309 23.9769 12.5718 22.9485L4.81643 23.3392C5.31737 18.6273 8.92811 14.963 13.4283 14.7364C14.0519 14.705 14.6646 14.7432 15.261 14.8409C15.3612 12.7974 16.7179 11.0386 18.5966 10.3718C19.1002 9.41597 19.363 8.32012 19.3051 7.1709C19.1325 3.74436 16.1769 1.07181 12.7487 1.24448ZM12.9163 4.57259C14.5438 4.49062 15.8929 5.70971 15.975 7.33864C16.057 8.96756 14.8372 10.3162 13.2098 10.3982C11.5823 10.4802 10.2331 9.2609 10.151 7.63198C10.069 6.00305 11.2889 4.65456 12.9163 4.57259Z" fill="#F2B1C4"/>
<path d="M20.7423 10.8545C17.9997 10.9927 15.862 13.3575 16.0001 16.0988C16.0745 17.5777 16.7978 18.8803 17.8782 19.7454C14.0467 21.3875 11.465 25.4552 11.694 30.001C11.7118 30.3541 11.8692 30.6856 12.1315 30.9227C12.3939 31.1597 12.7398 31.2829 13.093 31.2652L21.7483 30.8292L30.4036 30.3933C30.7569 30.3755 31.0886 30.2181 31.3258 29.9559C31.5631 29.6937 31.6864 29.348 31.6686 28.9949C31.4397 24.4491 28.4623 20.6614 24.4852 19.4126C25.4732 18.4433 26.0619 17.0746 25.9874 15.5957C25.8493 12.8545 23.4848 10.7164 20.7423 10.8545ZM20.8764 13.5171C22.1783 13.4515 23.2576 14.4268 23.3233 15.7299C23.3889 17.033 22.4131 18.112 21.1111 18.1776C19.8091 18.2431 18.7298 17.2677 18.6641 15.9646C18.5985 14.6614 19.5744 13.5826 20.8764 13.5171ZM21.2859 21.648C24.886 21.4667 28.0545 24.093 28.832 27.8032L21.6142 28.1667L14.3964 28.5303C14.7972 24.7608 17.6858 21.8294 21.2859 21.648Z" fill="#F2B1C4"/>
</g>
<defs>
<clipPath id="clip0_1076_179">
<rect width="30" height="30" fill="white" transform="translate(0.264526 1.87329) rotate(-2.88345)"/>
</clipPath>
</defs>
</svg>
