<svg width="45" height="45" viewBox="0 0 45 45" fill="none" xmlns="http://www.w3.org/2000/svg">
<path d="M13.0091 8.35861L13.4584 12.0816L9.73538 12.5309L9.88515 13.7719C10.1677 16.1133 11.2914 17.6401 12.4962 18.4537C13.1013 18.8627 13.724 19.1318 14.2467 19.2655C14.2769 19.2716 14.294 19.2499 14.3242 19.2561L14.357 19.5276L10.634 19.9769L10.7838 21.2179C11.0663 23.5593 12.19 25.086 13.3948 25.8997C13.9999 26.3087 14.6226 26.5778 15.1453 26.7114C15.1755 26.7176 15.1926 26.6959 15.2228 26.7021L15.2556 26.9735L11.5326 27.4229L11.6824 28.6638C11.965 31.0053 13.0886 32.532 14.2934 33.3457C14.8985 33.7546 15.5212 34.0238 16.0439 34.1574C16.0742 34.1636 16.0912 34.1419 16.1215 34.148L16.6035 38.1425L31.4955 36.3453L31.0134 32.3508C31.0413 32.3376 31.063 32.3547 31.091 32.3415C31.5669 32.0873 32.1076 31.6777 32.5981 31.1366C33.5747 30.0596 34.3029 28.3094 34.0203 25.968L33.8705 24.727L30.1475 25.1763L30.1148 24.9048C30.1427 24.8916 30.1644 24.9087 30.1923 24.8955C30.6682 24.6413 31.209 24.2318 31.6995 23.6906C32.6761 22.6137 33.4043 20.8634 33.1217 18.522L32.9719 17.281L29.2489 17.7303L29.2162 17.4589C29.2441 17.4457 29.2658 17.4627 29.2937 17.4495C29.7696 17.1953 30.3104 16.7858 30.8008 16.2446C31.7775 15.1677 32.5056 13.4175 32.2231 11.0761L32.0733 9.83506L28.3503 10.2844L27.901 6.56138L13.0091 8.35861ZM15.7906 10.5411L25.7185 9.34291L26.1679 13.0659L29.6582 12.6447C29.5455 13.5042 29.3167 14.1761 28.9474 14.5797C28.6784 14.8778 28.3704 15.0969 28.1209 15.2303C27.8715 15.3637 27.6066 15.4104 27.7084 15.3981L26.4674 15.5479L27.0665 20.5119L30.5568 20.0906C30.4441 20.9502 30.2153 21.6221 29.846 22.0257C29.577 22.3237 29.269 22.5429 29.0196 22.6763C28.7701 22.8097 28.5052 22.8564 28.607 22.8441L27.366 22.9939L27.9651 27.9578L31.4554 27.5366C31.3427 28.3961 31.114 29.068 30.7446 29.4716C30.4757 29.7697 30.1677 29.9888 29.9182 30.1222C29.6687 30.2556 29.4038 30.3023 29.5056 30.2901L28.2646 30.4398L28.7139 34.1628L18.786 35.361L18.3367 31.638L17.0957 31.7878C17.1975 31.7755 16.9291 31.7931 16.655 31.7229C16.381 31.6527 16.0297 31.5131 15.6976 31.2876C15.2428 30.9835 14.8608 30.3853 14.5468 29.5772L18.0371 29.156L17.4381 24.192L16.1971 24.3418C16.2989 24.3295 16.0305 24.3471 15.7564 24.2769C15.4824 24.2067 15.1311 24.0671 14.7989 23.8416C14.3442 23.5375 13.9621 22.9393 13.6482 22.1312L17.1385 21.71L16.5394 16.746L15.2984 16.8958C15.4002 16.8835 15.1319 16.9012 14.8578 16.831C14.5837 16.7607 14.2325 16.6212 13.9003 16.3957C13.4456 16.0915 13.0635 15.4933 12.7496 14.6853L16.2399 14.2641L15.7906 10.5411ZM21.0541 12.424C19.6822 12.5895 18.7061 13.8336 18.8717 15.2055C19.0372 16.5774 20.2813 17.5535 21.6532 17.388C23.0251 17.2224 24.0012 15.9783 23.8356 14.6064C23.6701 13.2345 22.426 12.2584 21.0541 12.424ZM21.9527 19.8699C20.5808 20.0355 19.6047 21.2796 19.7703 22.6515C19.9358 24.0234 21.1799 24.9995 22.5518 24.8339C23.9237 24.6684 24.8998 23.4243 24.7343 22.0524C24.5687 20.6805 23.3246 19.7044 21.9527 19.8699ZM22.8513 27.3159C21.4795 27.4815 20.5033 28.7256 20.6689 30.0974C20.8345 31.4693 22.0785 32.4455 23.4504 32.2799C24.8223 32.1143 25.7984 30.8703 25.6329 29.4984C25.4673 28.1265 24.2232 27.1504 22.8513 27.3159Z" fill="#F2B1C4"/>
</svg>
