<svg width="43" height="43" viewBox="0 0 43 43" fill="none" xmlns="http://www.w3.org/2000/svg">
<g clip-path="url(#clip0_1076_183)">
<path d="M35.812 24.4078C36.1815 23.7439 36.462 23.0341 36.6462 22.297C37.2329 20.0517 36.9036 17.6653 35.7308 15.6629C34.5581 13.6604 32.6378 12.2058 30.3926 11.6191L30.2973 11.5942C28.0539 11.024 25.676 11.3661 23.6842 12.5453C22.4609 10.5701 20.5187 9.14667 18.2667 8.57485C16.9721 8.2534 15.6218 8.22624 14.3153 8.49537C13.0088 8.76451 11.7792 9.32309 10.717 10.13C9.65481 10.937 8.787 11.9718 8.17741 13.1583C7.56782 14.3448 7.23196 15.6529 7.19452 16.9864C7.02719 17.0476 6.87736 17.1488 6.75805 17.2812C6.63875 17.4135 6.55359 17.573 6.50998 17.7458C6.43664 18.0264 6.4778 18.3247 6.62439 18.575C6.77099 18.8253 7.01102 19.0072 7.29168 19.0805L7.34459 19.0943C7.54946 20.061 7.91059 20.9877 8.41376 21.8382L8.76095 22.3698C8.7886 22.4424 8.8234 22.5121 8.86486 22.5778L16.9147 35.986C17.0607 36.233 17.2979 36.4127 17.5752 36.4864C17.7154 36.5224 17.8613 36.5303 18.0045 36.5095C18.1477 36.4887 18.2854 36.4397 18.4095 36.3653L31.8205 28.3049C31.9649 28.2172 32.0884 28.099 32.1823 27.9586L32.6066 27.719C33.3075 27.2975 33.9454 26.7792 34.5012 26.1792L34.7975 26.2567C35.0782 26.33 35.3765 26.2889 35.6268 26.1423C35.8771 25.9957 36.0589 25.7556 36.1323 25.475C36.1794 25.2847 36.1746 25.0853 36.1182 24.8975C36.0619 24.7098 35.9561 24.5406 35.812 24.4078ZM12.6596 11.4733C13.4174 11.0186 14.2573 10.7176 15.1315 10.5876C16.0056 10.4576 16.8968 10.5011 17.7541 10.7157C18.6114 10.9303 19.418 11.3117 20.1278 11.8381C20.8376 12.3645 21.4368 13.0257 21.891 13.7838C22.0299 14.0108 22.1533 14.247 22.2602 14.4907C22.2905 14.5678 22.3279 14.6419 22.3719 14.7121C22.5391 14.955 22.7925 15.1252 23.0806 15.1879C23.3688 15.2506 23.67 15.2011 23.9229 15.0496L24.0753 14.9424C24.2758 14.77 24.4934 14.6185 24.7247 14.4903C25.4704 14.0388 26.2985 13.7404 27.1607 13.6124C28.0229 13.4845 28.902 13.5296 29.7466 13.7451L29.8101 13.7617C30.8201 14.0169 31.7548 14.5088 32.537 15.1968C33.3192 15.8848 33.9264 16.7491 34.3083 17.7183C34.6902 18.6875 34.836 19.7336 34.7334 20.7703C34.6309 21.807 34.283 22.8043 33.7186 23.6799L24.024 21.0223C23.8163 20.9682 23.5972 20.9764 23.394 21.0459C23.1909 21.1155 23.0128 21.2433 22.8818 21.4134L22.8898 19.9119C22.8876 19.7397 22.8447 19.5705 22.7647 19.418C22.6848 19.2655 22.5699 19.134 22.4295 19.0342C22.2867 18.9341 22.122 18.8696 21.9492 18.8461C21.7764 18.8226 21.6005 18.8407 21.4361 18.899L19.8677 19.4501L19.4923 14.8301C19.4763 14.6307 19.4059 14.4396 19.2888 14.2775C19.1717 14.1153 19.0124 13.9884 18.8282 13.9104C18.6397 13.8208 18.4295 13.787 18.2224 13.813C18.0153 13.839 17.8199 13.9238 17.6594 14.0572L12.7117 18.0663L9.38791 17.2882C9.37819 16.1177 9.6751 14.965 10.2491 13.9449C10.8231 12.9247 11.6541 12.0726 12.6596 11.4733ZM31.515 25.8398C31.2865 25.9817 31.0465 26.1042 30.7975 26.2063C30.5462 26.3046 30.3402 26.4923 30.2189 26.7333L18.2472 33.915L10.9299 21.7269C10.8963 21.5733 10.8299 21.4287 10.7354 21.303C10.5802 21.1123 10.4404 20.9094 10.3174 20.6964C10.1237 20.3647 9.96129 20.0158 9.83236 19.654L12.7301 20.332C12.8928 20.3698 13.0621 20.3697 13.2248 20.3319C13.3875 20.2941 13.5394 20.2195 13.6689 20.1138L17.4447 17.0421L17.7605 21.0248C17.7739 21.1919 17.8256 21.3536 17.9114 21.4976C17.9973 21.6416 18.1151 21.7639 18.2558 21.8551C18.3967 21.9474 18.5571 22.006 18.7244 22.0262C18.8916 22.0464 19.0613 22.0276 19.2202 21.9714L20.6901 21.4511L20.7242 24.7384C20.7257 24.9706 20.801 25.1962 20.9392 25.3827C21.0774 25.5693 21.2714 25.707 21.4931 25.7759L21.546 25.7897C21.7594 25.8448 21.9844 25.8342 22.1915 25.7592C22.3987 25.6842 22.5784 25.5484 22.7072 25.3696L24.18 23.324L31.9965 25.4682C31.8437 25.6017 31.6829 25.7258 31.515 25.8398Z" fill="#F2B1C4"/>
</g>
<defs>
<clipPath id="clip0_1076_183">
<rect width="35" height="35" fill="white" transform="translate(8.84875 0.0997314) rotate(14.6443)"/>
</clipPath>
</defs>
</svg>
