<svg width="36" height="36" viewBox="0 0 36 36" fill="none" xmlns="http://www.w3.org/2000/svg">
<g clip-path="url(#clip0_1076_194)">
<path d="M9.85429 10.6315C11.5788 10.9057 13.3274 10.464 14.7082 9.45675C15.7086 10.8428 17.2339 11.8047 18.9584 12.0789C20.6833 12.3531 22.4315 11.9118 23.8116 10.9045C24.8119 12.2902 26.337 13.252 28.0619 13.5262C30.3441 13.8891 32.6677 12.9984 34.1261 11.2022C34.5343 10.6993 34.4576 9.96064 33.9547 9.55246C33.4517 9.14458 32.7132 9.22096 32.305 9.72386C31.373 10.8721 29.8882 11.4415 28.4303 11.2098C26.9722 10.9779 25.7368 9.97608 25.2069 8.59538C25.0568 8.20448 24.7096 7.92302 24.296 7.85743C23.8823 7.79165 23.4652 7.95159 23.2013 8.27682C22.2698 9.42518 20.7853 9.99431 19.327 9.76246C17.8693 9.53071 16.634 8.5287 16.1031 7.14752C15.9529 6.75677 15.6058 6.47566 15.1926 6.40995L15.1923 6.4099C14.7788 6.34418 14.3617 6.50396 14.0979 6.82904C13.1659 7.97733 11.6811 8.54672 10.2231 8.31492C8.76491 8.08309 7.52957 7.08123 6.99968 5.70053C6.76756 5.09599 6.08917 4.7937 5.48445 5.02595C4.87976 5.25805 4.57763 5.93646 4.80987 6.54117C5.63862 8.70122 7.57162 10.2686 9.85429 10.6315Z" fill="#F2B1C4"/>
<path d="M32.6038 18.046C32.1008 17.6381 31.3623 17.7144 30.954 18.2174C30.0221 19.3657 28.5372 19.9351 27.0794 19.7033C25.6213 19.4715 24.3859 18.4696 23.856 17.0889C23.7058 16.698 23.3587 16.4166 22.9451 16.351C22.5314 16.2852 22.1142 16.4451 21.8504 16.7704C20.9188 17.9187 19.4344 18.4879 17.9761 18.256C16.5184 18.0243 15.2831 17.0222 14.7521 15.6411C14.6019 15.2503 14.2549 14.9692 13.8416 14.9035L13.8413 14.9035C13.4279 14.8377 13.0108 14.9975 12.7469 15.3226C11.815 16.4709 10.3301 17.0403 8.87214 16.8085C7.41399 16.5766 6.17864 15.5748 5.64875 14.1941C5.41665 13.5894 4.73824 13.2873 4.13353 13.5195C3.52883 13.7516 3.2267 14.43 3.45895 15.0347C4.28816 17.1948 6.22116 18.7622 8.50398 19.1251C10.2285 19.3993 11.9771 18.9577 13.3579 17.9504C14.3583 19.3364 15.8835 20.2984 17.6081 20.5726C19.3329 20.8468 21.0812 20.4054 22.4613 19.3982C23.4616 20.7838 24.9867 21.7456 26.7116 22.0199C28.9938 22.3827 31.3174 21.4922 32.7758 19.6957C33.1833 19.1928 33.1067 18.4542 32.6038 18.046Z" fill="#F2B1C4"/>
<path d="M31.2534 26.5398C30.7505 26.1318 30.0119 26.2081 29.6037 26.7112C28.6717 27.8595 27.1869 28.4289 25.729 28.1971C24.2709 27.9653 23.0355 26.9634 22.5057 25.5827C22.3555 25.1918 22.0083 24.9104 21.5947 24.8448C21.181 24.779 20.7639 24.9389 20.5 25.2642C19.5685 26.4125 18.084 26.9817 16.6257 26.7498C15.168 26.5181 13.9327 25.516 13.4018 24.1349C13.2516 23.7441 12.9045 23.463 12.4913 23.3973L12.491 23.3972C12.0776 23.3315 11.6604 23.4913 11.3966 23.8164C10.4646 24.9647 8.97977 25.5341 7.52178 25.3023C6.06362 25.0704 4.82828 24.0686 4.29839 22.6879C4.06629 22.0832 3.38786 21.7812 2.78317 22.0133C2.17847 22.2454 1.87634 22.9238 2.10859 23.5285C2.9378 25.6886 4.8708 27.256 7.15362 27.6189C8.87817 27.8931 10.6267 27.4515 12.0075 26.4442C13.0079 27.8302 14.5332 28.7922 16.2577 29.0663C17.9826 29.3406 19.7308 28.8992 21.1109 27.892C22.1112 29.2776 23.6364 30.2394 25.3612 30.5137C27.6434 30.8765 29.967 29.9859 31.4254 28.1895C31.833 27.6866 31.7563 26.948 31.2534 26.5398Z" fill="#F2B1C4"/>
</g>
<defs>
<clipPath id="clip0_1076_194">
<rect width="30" height="30" fill="white" transform="translate(5.54138 0.930603) rotate(9.03357)"/>
</clipPath>
</defs>
</svg>
