<svg width="34" height="33" viewBox="0 0 34 33" fill="none" xmlns="http://www.w3.org/2000/svg">
<g clip-path="url(#clip0_1076_186)">
<path d="M30.7518 16.2887L29.7992 16.2158L30.7799 3.387C30.8333 2.68838 30.3055 2.07313 29.6068 2.01972L23.8911 1.58276C23.1924 1.52936 22.5772 2.05722 22.5238 2.75584L21.543 15.5847L16.7799 15.2205L16.9935 12.4261L17.311 12.4504C18.0096 12.5038 18.6249 11.976 18.6783 11.2773C18.7317 10.5787 18.2038 9.96346 17.5052 9.91005L6.77221 9.08954C6.07359 9.03613 5.45834 9.564 5.40493 10.2626C5.35152 10.9612 5.87938 11.5765 6.57801 11.6299L6.83203 11.6493L6.61841 14.4437L3.37942 14.1961C2.68086 14.1427 2.06561 14.6706 2.0122 15.3692L0.997482 28.6425C0.944074 29.3412 1.47193 29.9564 2.17056 30.0098L29.6064 32.1072C30.2415 32.1558 30.8568 31.6279 30.9102 30.9293L31.9249 17.6559C31.9783 16.9573 31.4505 16.3421 30.7518 16.2887ZM24.9035 4.21537L28.1425 4.46298L27.2589 16.0216L24.0199 15.774L24.9035 4.21537ZM9.37239 11.8435L14.5166 12.2368L14.303 15.0312L9.15877 14.6379L9.37239 11.8435ZM28.5256 29.5333L3.63009 27.6301L4.45546 16.8336L7.69444 17.0812L15.3155 17.6638L22.6191 18.2221L28.3349 18.6591L29.351 18.7368L28.5256 29.5333Z" fill="#F2B1C4"/>
<path d="M9.63523 20.1042C8.93661 20.0507 8.32136 20.5786 8.26795 21.2772L8.11258 23.3095C8.05918 24.0082 8.58704 24.6234 9.28566 24.6768C9.98429 24.7302 10.5312 24.261 10.6529 23.5037L10.8083 21.4714C10.8617 20.7728 10.3339 20.1576 9.63523 20.1042Z" fill="#F2B1C4"/>
<path d="M16.6848 20.6431C15.9861 20.5897 15.3709 21.1175 15.3175 21.8161L15.1621 23.8485C15.1087 24.5471 15.6366 25.1623 16.3352 25.2157C17.0338 25.2691 17.6442 24.8048 17.7025 24.0427L17.8578 22.0103C17.9112 21.3117 17.3833 20.6965 16.6848 20.6431Z" fill="#F2B1C4"/>
<path d="M23.7342 21.182C23.0356 21.1286 22.4204 21.6564 22.3669 22.355L22.2116 24.3874C22.1582 25.086 22.686 25.7012 23.3847 25.7546C24.0833 25.8081 24.6937 25.3437 24.7519 24.5816L24.9073 22.5493C24.9607 21.8506 24.4329 21.2354 23.7342 21.182Z" fill="#F2B1C4"/>
</g>
<defs>
<clipPath id="clip0_1076_186">
<rect width="30" height="30" fill="white" transform="translate(3.18713) rotate(4.37162)"/>
</clipPath>
</defs>
</svg>
