<svg width="36" height="36" viewBox="0 0 36 36" fill="none" xmlns="http://www.w3.org/2000/svg">
<g clip-path="url(#clip0_1076_205)">
<path fill-rule="evenodd" clip-rule="evenodd" d="M32.7799 15.5391C32.8104 15.7008 32.8078 15.867 32.7725 16.0277C32.7372 16.1884 32.6698 16.3403 32.5744 16.4743C32.5155 16.5512 32.4463 16.6196 32.3687 16.6775C32.2468 17.0722 32.0374 17.4342 31.756 17.7366C31.4746 18.039 31.1285 18.274 30.7435 18.4239L29.512 18.6378L31.2232 28.4903C31.3366 29.1435 31.1859 29.8151 30.8042 30.3573C30.4225 30.8994 29.8411 31.2677 29.1879 31.3812L11.946 34.3758C11.2927 34.4893 10.6212 34.3386 10.079 33.9569C9.53687 33.5752 9.16852 32.9938 9.05506 32.3405L7.34385 22.488L6.11229 22.7019C5.47284 22.8099 4.81642 22.6653 4.28163 22.2984C3.74684 21.9316 3.37555 21.3713 3.2461 20.7359C3.24289 20.7174 3.22735 20.7011 3.22414 20.6826L3.22136 20.6666C3.17595 20.3558 3.25297 20.0395 3.43611 19.7843L14.5272 4.0214C14.5469 3.9509 14.5783 3.88414 14.6199 3.82387C14.8181 3.56029 15.1092 3.38214 15.4341 3.32571C15.759 3.26927 16.0932 3.33882 16.3686 3.52015C16.4282 3.56331 16.4803 3.61596 16.5227 3.67606L32.2792 14.7748C32.5377 14.9533 32.7168 15.225 32.7789 15.5329L32.7799 15.5391ZM18.9086 30.6354L21.3718 30.2076L20.3022 24.0498L17.8391 24.4776L18.9086 30.6354ZM15.9437 6.2595L6.15249 20.1575L9.37917 19.5971L11.5182 31.9127L16.4444 31.0571L15.161 23.6677C15.1043 23.3411 15.1796 23.0053 15.3704 22.7342C15.5613 22.4632 15.8521 22.279 16.1787 22.2222L21.1049 21.3666C21.4316 21.3099 21.7674 21.3853 22.0385 21.5761C22.3096 21.767 22.4937 22.0577 22.5504 22.3843L23.8338 29.7737L28.7601 28.9181L26.621 16.6025L29.8477 16.042L15.9437 6.2595Z" fill="#F2B1C4"/>
</g>
<defs>
<clipPath id="clip0_1076_205">
<rect width="30" height="30" fill="white" transform="translate(0.654541 5.88782) rotate(-9.85299)"/>
</clipPath>
</defs>
</svg>
