<svg width="30" height="34" viewBox="0 0 30 34" fill="none" xmlns="http://www.w3.org/2000/svg">
<path d="M26.0256 11.8628C25.9738 10.4095 25.4813 9.00639 24.6136 7.83946C23.7459 6.67253 22.544 5.79696 21.1672 5.32887C20.9253 3.8681 20.1726 2.54066 19.0433 1.58302C17.914 0.625374 16.4814 0.0997314 15.0008 0.0997314C13.5201 0.0997314 12.0875 0.625374 10.9582 1.58302C9.82895 2.54066 9.07629 3.8681 8.83436 5.32887C7.45719 5.79653 6.25481 6.67194 5.3868 7.83893C4.51879 9.00592 4.02621 10.4093 3.97443 11.8628C2.61408 12.4117 1.4857 13.4146 0.78096 14.7012C0.076219 15.9877 -0.161422 17.4786 0.108403 18.9205C0.378229 20.3624 1.13888 21.6664 2.26115 22.6111C3.38343 23.5557 4.79811 24.0827 6.2649 24.1026H13.5008V30.1025H9.00086C8.60304 30.1025 8.22152 30.2606 7.94022 30.5419C7.65892 30.8232 7.50088 31.2047 7.50088 31.6025C7.50088 32.0003 7.65892 32.3819 7.94022 32.6632C8.22152 32.9445 8.60304 33.1025 9.00086 33.1025H21.0007C21.3985 33.1025 21.78 32.9445 22.0613 32.6632C22.3426 32.3819 22.5007 32.0003 22.5007 31.6025C22.5007 31.2047 22.3426 30.8232 22.0613 30.5419C21.78 30.2606 21.3985 30.1025 21.0007 30.1025H16.5008V24.1026H23.7352C25.202 24.0827 26.6166 23.5557 27.7389 22.6111C28.8612 21.6664 29.6218 20.3624 29.8917 18.9205C30.1615 17.4786 29.9238 15.9877 29.2191 14.7012C28.5144 13.4146 27.386 12.4117 26.0256 11.8628ZM23.7352 21.1027H16.5008V18.7237L20.5612 14.6632C20.8344 14.3803 20.9856 14.0014 20.9822 13.6082C20.9788 13.2149 20.821 12.8387 20.5429 12.5605C20.2648 12.2824 19.8886 12.1247 19.4953 12.1213C19.102 12.1179 18.7231 12.269 18.4402 12.5423L16.5008 14.4817V10.6028C16.5008 10.205 16.3427 9.82346 16.0614 9.54216C15.7801 9.26085 15.3986 9.10282 15.0008 9.10282C14.603 9.10282 14.2214 9.26085 13.9401 9.54216C13.6588 9.82346 13.5008 10.205 13.5008 10.6028V14.4817L11.5613 12.5423C11.2784 12.269 10.8995 12.1179 10.5062 12.1213C10.113 12.1247 9.73674 12.2824 9.45863 12.5605C9.18052 12.8387 9.02277 13.2149 9.01935 13.6082C9.01593 14.0014 9.16712 14.3803 9.44036 14.6632L13.5008 18.7237V21.1027H6.2649C5.43404 21.0834 4.64018 20.7552 4.03823 20.1821C3.43629 19.6091 3.06945 18.8324 3.00931 18.0035C2.94916 17.1746 3.20003 16.353 3.71295 15.6991C4.22587 15.0451 4.96404 14.6058 5.78341 14.4667C5.97855 14.4371 6.16593 14.3692 6.3348 14.267C6.50366 14.1648 6.6507 14.0303 6.76747 13.8712C6.88425 13.712 6.96846 13.5314 7.0153 13.3397C7.06213 13.1479 7.07066 12.9488 7.04039 12.7538C6.94951 12.2176 6.96614 11.6688 7.08929 11.1391C7.21245 10.6094 7.43968 10.1095 7.75777 9.66848C8.07586 9.22742 8.47846 8.85401 8.94217 8.56995C9.40587 8.28589 9.92142 8.09685 10.4588 8.01384C10.8156 7.96229 11.1419 7.78399 11.3779 7.51157C11.614 7.23915 11.7441 6.89083 11.7443 6.53036C11.7443 6.49136 11.7443 6.44036 11.7368 6.38936C11.736 5.96073 11.8197 5.53614 11.983 5.13984C12.1463 4.74354 12.386 4.38328 12.6886 4.07964C13.2996 3.4664 14.1291 3.12099 14.9948 3.1194C15.8604 3.11781 16.6913 3.46017 17.3045 4.07115C17.9177 4.68214 18.2631 5.5117 18.2647 6.37736C18.2647 6.40436 18.2647 6.43136 18.2647 6.45086C18.2451 6.82438 18.3658 7.19174 18.6031 7.48089C18.8403 7.77004 19.1771 7.96011 19.5472 8.01384C20.0851 8.09684 20.6012 8.28601 21.0653 8.57034C21.5294 8.85466 21.9323 9.22847 22.2506 9.67C22.5688 10.1115 22.7961 10.6119 22.9191 11.1421C23.0421 11.6723 23.0585 12.2217 22.9672 12.7583C22.9073 13.1515 23.0062 13.5524 23.2419 13.8728C23.4776 14.1932 23.8309 14.4068 24.2242 14.4667C25.044 14.6061 25.7824 15.0461 26.2952 15.7007C26.8079 16.3554 27.0582 17.1777 26.9971 18.0071C26.936 18.8364 26.5679 19.6131 25.9647 20.1856C25.3615 20.758 24.5666 21.085 23.7352 21.1027Z" fill="#F2B1C4"/>
</svg>
